<svg width="44" height="43" viewBox="0 0 44 43" fill="none" xmlns="http://www.w3.org/2000/svg">
<path d="M25.2147 36.1719C25.7944 37.0678 26.4795 37.911 27.3754 38.4907C28.6402 39.3866 30.1158 39.9136 31.8021 39.9136C35.3857 39.9136 38.3369 37.4894 39.2328 34.222C39.4436 33.5896 39.4963 32.9572 39.4963 32.2194C39.4963 31.9559 39.4963 31.7451 39.4436 31.5343C39.1801 28.267 36.8086 25.4739 33.6466 24.7361C33.0669 24.6307 32.4345 24.4726 31.8021 24.4726C31.5386 24.4726 31.2751 24.4726 30.959 24.5253C30.8536 24.5253 30.6954 24.5253 30.59 24.578C26.9538 25.1577 24.0553 28.3724 24.0553 32.2194C24.0553 33.5896 24.5296 35.0125 25.2147 36.1719ZM22.3689 36.33C21.7892 35.0652 21.473 33.6423 21.473 32.1667C21.473 27.4765 24.635 23.5767 28.851 22.2592C29.1145 22.2065 29.4307 22.1538 29.6942 22.0484C28.6402 20.362 27.4281 19.0445 26.1106 18.1486C25.4255 17.6216 24.7404 17.2527 24.0553 16.9892C23.2121 16.673 22.4743 16.4622 21.6838 16.4622C21.0514 16.4622 20.3136 16.5676 19.6285 16.8311C18.9434 17.0946 18.2056 17.4108 17.5205 17.9378C14.2531 20.0985 11.2493 24.7888 11.2493 31.2181C11.2493 31.7978 11.3547 32.3248 11.5655 32.7464C11.7763 33.2734 12.0925 33.6423 12.4614 34.0112C12.9357 34.3801 13.5153 34.8017 14.2004 35.0652C16.3084 36.0138 19.365 36.3827 22.3689 36.33ZM43.9231 28.1616C43.9231 29.8479 43.238 31.2708 42.1313 32.3775C42.1313 32.3775 42.1313 32.4302 42.0786 32.4302C41.8678 37.9637 37.3883 42.3905 31.8021 42.3905C28.6929 42.3905 25.9525 41.0203 24.108 38.9123C19.0488 39.3866 13.3045 38.438 10.7223 35.9084C10.4588 35.6449 10.248 35.3814 10.0372 35.1179C6.71709 34.9071 3.5551 34.0112 1.86871 32.3775C0.70932 31.2181 0.0769234 29.7952 0.0769234 28.1616C0.0769234 24.6834 1.23632 20.8363 3.18621 17.8851C4.1348 16.4095 5.24149 15.2501 6.45359 14.3542C6.66439 14.1434 6.71709 13.8799 6.76979 13.6691C6.82249 13.3002 6.71709 12.8259 6.45359 12.5097C5.29419 11.245 4.5037 9.50586 4.5037 7.55597C4.5037 3.4981 7.77108 0.230713 11.829 0.230713C13.6734 0.230713 15.3598 0.915809 16.6246 2.0752C18.0475 0.915809 19.7866 0.283413 21.6838 0.283413C23.7391 0.283413 25.5836 1.07391 27.0065 2.286C28.2713 1.02121 30.1158 0.230713 32.0656 0.230713C36.1235 0.230713 39.3909 3.4981 39.3909 7.55597C39.3909 9.40046 38.7058 11.1396 37.441 12.5097C37.1775 12.8786 37.1248 13.3002 37.1248 13.6691C37.1775 13.9326 37.2302 14.1961 37.441 14.3542C38.6531 15.2501 39.7598 16.4095 40.7084 17.8851C42.7637 20.8363 43.9231 24.7361 43.9231 28.1616ZM41.4989 28.8994C41.5516 28.6359 41.5516 28.4251 41.5516 28.2143C41.6043 19.9404 36.0708 14.8812 32.171 14.8812C30.9589 14.8812 29.5361 15.4082 28.1659 16.3041C29.3253 17.2 30.432 18.4121 31.3278 19.835C31.8021 20.4674 32.171 21.0998 32.4872 21.8903C36.7032 22.2065 40.2341 25.0523 41.4989 28.8994ZM36.1762 10.4545C36.7559 9.61126 37.0721 8.66267 37.0721 7.55597C37.0721 4.81559 34.806 2.5495 32.0656 2.5495C30.6428 2.5495 29.4307 3.1292 28.5348 4.02509C29.3253 5.28989 29.7996 6.76548 29.7996 8.34647C29.7996 9.50586 29.5361 10.5072 29.1672 11.5612C30.0104 12.1935 31.0116 12.5097 32.1183 12.5097C33.5412 12.5097 34.806 11.93 35.7019 10.9815C35.86 10.8234 36.0181 10.6653 36.1762 10.4545ZM27.1119 8.18837C27.1119 5.18449 24.6877 2.7076 21.6311 2.7076C18.5745 2.7076 16.1503 5.13179 16.1503 8.18837C16.1503 11.245 18.5745 13.6691 21.6311 13.6691C24.6877 13.6691 27.1119 11.245 27.1119 8.18837ZM13.6734 8.39917C13.6734 6.66008 14.2004 5.13179 15.0963 3.81429C14.2004 3.0238 13.0938 2.6022 11.829 2.6022C9.08857 2.6022 6.82249 4.86829 6.82249 7.60867C6.82249 8.71537 7.13868 9.66396 7.77108 10.5072C7.98188 10.718 8.08728 10.8761 8.24538 11.0869C9.14127 12.0354 10.4061 12.6151 11.829 12.6151C12.7776 12.6151 13.6734 12.3516 14.4112 11.8246C13.8842 10.7707 13.6734 9.61126 13.6734 8.39917ZM12.1979 19.835C13.1465 18.3067 14.3058 17.0946 15.6233 16.0933C14.4112 15.2501 13.0411 14.8285 11.8817 14.8285C7.98188 14.8285 2.44841 19.8877 2.44841 28.1089C2.44841 29.1629 2.76461 29.9533 3.5551 30.6911C4.6091 31.6397 6.66439 32.2721 8.93047 32.5356C8.82507 32.0613 8.82507 31.6397 8.82507 31.1127C8.71967 27.3711 9.98447 23.1024 12.1979 19.835Z" fill="#5F4A4A"/>
<path d="M30.0097 35.9611L27.7436 33.8004C27.3747 33.4842 27.2693 33.0099 27.4801 32.5356C27.7963 31.7978 28.8503 31.5343 29.3773 32.114C29.8516 32.5356 30.2732 32.9572 30.7475 33.4315C32.065 31.9559 33.3825 30.533 34.6473 29.0574C35.227 28.425 36.2283 28.6358 36.5972 29.3736C36.808 29.7952 36.7026 30.2695 36.3864 30.6384C35.2797 31.9032 34.173 33.168 33.0136 34.3801L31.6961 35.8557C31.4853 36.1192 31.1691 36.2246 30.8002 36.2246C30.5367 36.2773 30.2205 36.1719 30.0097 35.9611Z" fill="#5F4A4A"/>
</svg>
