<svg width="38" height="38" viewBox="0 0 38 38" fill="none" xmlns="http://www.w3.org/2000/svg">
<path d="M29.1917 19.673C25.1164 19.673 21.6794 22.4133 20.6783 26.1215L16.6528 23.5442C17.2686 22.3602 17.6165 21.0195 17.6165 19.6004C17.6165 18.3239 17.335 17.1111 16.8303 16.0188L21.7867 13.3695C23.3563 15.7643 26.0891 17.3527 29.1917 17.3527C34.0487 17.3527 38 13.4606 38 8.67634C38 3.89239 34.0487 0 29.1917 0C24.3351 0 20.3835 3.8921 20.3835 8.67634C20.3835 9.61816 20.5374 10.5254 20.8204 11.3753L15.6477 14.14C14.0314 12.1795 11.5659 10.9241 8.80826 10.9241C3.95128 10.9241 0 14.8162 0 19.6004C0 24.3844 3.95128 28.2765 8.80826 28.2765C11.4207 28.2765 13.7708 27.1499 15.3853 25.3645L20.3864 28.5666C20.5041 33.2506 24.4087 37.0256 29.1917 37.0256C34.0487 37.0256 38 33.1333 38 28.3493C38 23.5651 34.0487 19.673 29.1917 19.673ZM24.9703 11.0272C24.9703 9.51478 25.7942 8.18886 27.0229 7.46121C26.7408 7.04999 26.5758 6.55451 26.5758 6.02192C26.5758 4.60118 27.7494 3.44518 29.1917 3.44518C30.6341 3.44518 31.8077 4.60118 31.8077 6.02192C31.8077 6.55451 31.6427 7.04999 31.3606 7.46121C32.5893 8.18886 33.4132 9.51478 33.4132 11.0272V11.7948C33.4132 12.4042 32.9117 12.8983 32.293 12.8983H26.0905C25.4718 12.8983 24.9703 12.4042 24.9703 11.7948V11.0272ZM4.51604 22.7997V22.0147C4.51604 20.4569 5.37651 19.0941 6.65302 18.3608C6.38832 17.9624 6.2338 17.4869 6.2338 16.976C6.2338 15.5778 7.38853 14.4401 8.80826 14.4401C10.2277 14.4401 11.3827 15.5778 11.3827 16.976C11.3827 17.4869 11.2279 17.9624 10.9632 18.3608C12.24 19.0941 13.1002 20.4569 13.1002 22.0147V22.7997C13.1002 23.4091 12.5986 23.9032 11.9799 23.9032H5.63628C5.01759 23.9032 4.51604 23.4091 4.51604 22.7997ZM24.9703 31.4678V30.7002C24.9703 29.202 25.7788 27.887 26.9884 27.1547C26.7277 26.7541 26.5758 26.2786 26.5758 25.7686C26.5758 24.3478 27.7494 23.1918 29.1917 23.1918C30.6341 23.1918 31.8077 24.3478 31.8077 25.7686C31.8077 26.2786 31.6557 26.7541 31.3951 27.1547C32.6046 27.887 33.4132 29.202 33.4132 30.7002V31.4678C33.4132 32.0772 32.9117 32.5712 32.293 32.5712H26.0905C25.4718 32.5712 24.9703 32.0772 24.9703 31.4678Z" fill="#fff"/>
</svg>
