<svg width="25" height="25" viewBox="0 0 25 25" fill="none" xmlns="http://www.w3.org/2000/svg">
<path d="M12.5 0C5.625 0 0 5.625 0 12.5C0 19.375 5.625 25 12.5 25C19.375 25 25 19.375 25 12.5C25 5.625 19.375 0 12.5 0ZM16.875 7.5C17.875 7.5 18.75 8.375 18.75 9.375C18.75 10.375 17.875 11.25 16.875 11.25C15.875 11.25 15 10.375 15 9.375C15 8.375 15.875 7.5 16.875 7.5ZM8.125 7.5C9.125 7.5 10 8.375 10 9.375C10 10.375 9.125 11.25 8.125 11.25C7.125 11.25 6.25 10.375 6.25 9.375C6.25 8.375 7.125 7.5 8.125 7.5ZM12.5 20C9.25 20 6.5 17.875 5.5 15H19.5C18.5 17.875 15.75 20 12.5 20Z" fill="white"/>
</svg>
