<svg width="80" height="78" viewBox="0 0 80 78" fill="none" xmlns="http://www.w3.org/2000/svg">
<path d="M6.45149 69.6779H40V67.0967H6.45149C4.31371 67.0967 2.58053 65.3635 2.58053 63.2257V6.45149C2.58053 4.31307 4.31371 2.58053 6.45149 2.58053H63.2257C65.3645 2.58053 67.0967 4.31307 67.0967 6.45149V36.1287H69.6779V6.45149C69.6737 2.89004 66.7875 0.00420438 63.2257 0H6.45149C2.89069 0.00420438 0.00452781 2.89004 0 6.45149V63.2257C0.00452781 66.7872 2.89069 69.673 6.45149 69.6779Z" fill="#217DDA"/>
<path d="M5.16162 5.16162H7.74183V7.74183H5.16162V5.16162Z" fill="#217DDA"/>
<path d="M10.3225 5.16162H12.9037V7.74183H10.3225V5.16162Z" fill="#217DDA"/>
<path d="M15.4839 5.16162H18.0647V7.74183H15.4839V5.16162Z" fill="#217DDA"/>
<path d="M5.16162 10.3225H64.5161V12.9037H5.16162V10.3225Z" fill="#217DDA"/>
<path d="M18.4428 15.8618L15.1653 19.1393C12.3949 17.3052 8.68501 17.868 6.58249 20.4411C4.48029 23.0138 4.66884 26.7616 7.01813 29.1105C9.3671 31.4605 13.1152 31.649 15.6882 29.5465C18.261 27.4443 18.8241 23.7337 16.9897 20.964L20.2668 17.6865L18.4428 15.8618ZM11.6126 28.3867C9.47512 28.3867 7.74193 26.6539 7.74193 24.5161C7.74193 22.378 9.47512 20.6455 11.6126 20.6455C12.1882 20.6474 12.7545 20.7793 13.271 21.0319L10.7009 23.6024L12.5249 25.4271L15.097 22.8583C15.3496 23.3744 15.4819 23.9407 15.4838 24.5161C15.4838 26.6539 13.7513 28.3867 11.6126 28.3867Z" fill="#217DDA"/>
<path d="M18.4428 31.3457L15.1653 34.6232C12.3949 32.7891 8.68501 33.3518 6.58249 35.9249C4.48029 38.498 4.66884 42.2454 7.01813 44.5951C9.3671 46.9443 13.1152 47.1329 15.6882 45.0304C18.261 42.9279 18.8241 39.2186 16.9897 36.4479L20.2668 33.1704L18.4428 31.3457ZM11.6126 43.8709C9.47512 43.8709 7.74193 42.1377 7.74193 40C7.74193 37.8619 9.47512 36.1287 11.6126 36.1287C12.1882 36.131 12.7545 36.2632 13.271 36.5158L10.7009 39.087L12.5249 40.911L15.097 38.3418C15.3496 38.8583 15.4819 39.4246 15.4838 40C15.4838 42.1377 13.7513 43.8709 11.6126 43.8709Z" fill="#217DDA"/>
<path d="M18.4428 46.8296L15.1653 50.1071C12.3949 48.273 8.68501 48.8357 6.58249 51.4088C4.48029 53.9819 4.66884 57.7293 7.01813 60.0789C9.3671 62.4286 13.1152 62.6165 15.6882 60.5143C18.261 58.4117 18.8241 54.7022 16.9897 51.9315L20.2668 48.6543L18.4428 46.8296ZM11.6126 59.3548C9.47512 59.3548 7.74193 57.6216 7.74193 55.4839C7.74193 53.3458 9.47512 51.6129 11.6126 51.6129C12.1882 51.6148 12.7545 51.7468 13.271 51.9997L10.7009 54.5709L12.5249 56.3949L15.097 53.8257C15.3496 54.3422 15.4819 54.9088 15.4838 55.4839C15.4838 57.6216 13.7513 59.3548 11.6126 59.3548Z" fill="#217DDA"/>
<path d="M60.6456 77.4197C71.3355 77.4197 80.0001 68.7535 80.0001 58.0646C80.0001 47.3747 71.3355 38.7095 60.6456 38.7095C49.9558 38.7095 41.2905 47.3747 41.2905 58.0646C41.3031 68.7486 49.961 77.4068 60.6456 77.4197ZM60.6456 41.2903C69.9092 41.2903 77.4199 48.8004 77.4199 58.0646C77.4199 67.3288 69.9092 74.8385 60.6456 74.8385C51.3811 74.8385 43.8707 67.3288 43.8707 58.0646C43.8817 48.8049 51.3853 41.3007 60.6456 41.2903Z" fill="#217DDA"/>
<path d="M52.7747 58.7777L50.4648 59.931L53.0457 65.0924C53.2307 65.4637 53.5839 65.7234 53.9936 65.7897C54.0603 65.8 54.1269 65.8055 54.1938 65.8065C54.5357 65.8065 54.8639 65.6703 55.1065 65.4284L70.5897 49.9446L68.7656 48.1199L54.547 62.3379L52.7747 58.7777Z" fill="#217DDA"/>
</svg>
