<svg width="51" height="44" viewBox="0 0 51 44" fill="none" xmlns="http://www.w3.org/2000/svg">
<path d="M0.640625 42.6647C0.640625 43.0136 0.923185 43.2968 1.27275 43.2968H32.0187C32.3682 43.2968 32.6508 43.0136 32.6508 42.6647V35.3763C32.6521 30.3313 30.3467 25.6845 26.327 22.6275C26.0875 22.4487 25.7259 22.4708 25.516 22.6699C23.1013 24.9215 19.9514 26.1605 16.6467 26.1605C13.3419 26.1605 10.1933 24.9215 7.78238 22.6724C7.56492 22.4664 7.20588 22.4487 6.9663 22.6294C2.94599 25.6845 0.640625 30.33 0.640625 35.3763V42.6647ZM1.90488 35.3763C1.90488 30.9141 3.87521 26.7686 7.32092 23.9588C9.91011 26.1959 13.2098 27.4247 16.646 27.4247C20.0835 27.4247 23.3832 26.1959 25.9724 23.9582C29.4169 26.7686 31.3859 30.9147 31.3859 35.3763L31.3872 42.0325H1.90488V35.3763Z" fill="#DADADA" stroke="#DADADA" stroke-width="0.75"/>
<path d="M7.80951 21.3766C10.1294 23.8589 13.2679 25.2262 16.646 25.2262C20.0253 25.2262 23.1657 23.8576 25.4894 21.3721C27.5995 19.1135 28.76 16.1799 28.76 13.114C28.76 6.43438 23.3263 1 16.646 1C9.96695 1 4.5332 6.43438 4.5332 13.114C4.53257 16.1843 5.69695 19.1186 7.80951 21.3766ZM16.646 2.26425C22.6291 2.26425 27.4958 7.13162 27.4958 13.114C27.4958 15.86 26.4553 18.4871 24.5634 20.5124C22.4818 22.7375 19.6707 23.9619 16.646 23.9619C13.6225 23.9619 10.8115 22.7369 8.73178 20.5131C6.8392 18.4903 5.79682 15.8625 5.79682 13.114C5.79682 7.13162 10.6642 2.26425 16.646 2.26425Z" fill="#DADADA" stroke="#DADADA" stroke-width="0.75"/>
<path d="M38.4214 22.1794H42.7281C43.0777 22.1794 43.3602 21.8962 43.3602 21.5472V15.8986H49.0089C49.3585 15.8986 49.641 15.6154 49.641 15.2664V10.9598C49.641 10.6108 49.3585 10.3276 49.0089 10.3276H43.3602V4.67961C43.3602 4.33068 43.0777 4.04749 42.7281 4.04749H38.4214C38.0731 4.04749 37.7893 4.33068 37.7893 4.67961V10.3276H32.1419C31.7923 10.3276 31.5098 10.6108 31.5098 10.9598V15.2664C31.5098 15.6154 31.7923 15.8986 32.1419 15.8986H37.7893V21.5472C37.7893 21.8962 38.0731 22.1794 38.4214 22.1794ZM32.774 14.6331V11.5919H38.4214C38.771 11.5919 39.0535 11.3087 39.0535 10.9598V5.31174H42.096V10.9598C42.096 11.3087 42.3798 11.5919 42.7281 11.5919H48.3768V14.6337H42.7281C42.3798 14.6337 42.096 14.9169 42.096 15.2658V20.9151H39.0535V15.2658C39.0535 14.9169 38.771 14.6337 38.4214 14.6337H32.774V14.6331Z" fill="#DADADA" stroke="#DADADA" stroke-width="0.75"/>
<path d="M29.1767 37.7372H22.2044C21.8561 37.7372 21.5723 38.0204 21.5723 38.3693C21.5723 38.7183 21.8561 39.0015 22.2044 39.0015H29.1761C29.5257 39.0015 29.8082 38.7183 29.8082 38.3693C29.8082 38.0204 29.5263 37.7372 29.1767 37.7372Z" fill="#DADADA" stroke="#DADADA" stroke-width="0.75"/>
</svg>
