<svg width="50" height="50" viewBox="0 0 50 50" fill="none" xmlns="http://www.w3.org/2000/svg">
<path d="M38.4102 26.1409C33.0479 26.1409 28.5255 29.7754 27.2083 34.6936L21.9116 31.2753C22.7219 29.705 23.1796 27.9267 23.1796 26.0447C23.1796 24.3516 22.8092 22.743 22.1451 21.2943L28.6667 17.7805C30.732 20.9568 34.3277 23.0634 38.4102 23.0634C44.8009 23.0634 50 17.9014 50 11.556C50 5.21106 44.8009 0.048584 38.4102 0.048584C32.0198 0.048584 26.8204 5.21068 26.8204 11.556C26.8204 12.8052 27.0229 14.0085 27.3952 15.1357L20.5891 18.8024C18.4624 16.2022 15.2184 14.5372 11.5898 14.5372C5.19905 14.5372 0 19.6993 0 26.0447C0 32.3896 5.19905 37.5517 11.5898 37.5517C15.0272 37.5517 18.1194 36.0575 20.2438 33.6895L26.8242 37.9365C26.9791 44.1489 32.1167 49.1557 38.4102 49.1557C44.8009 49.1557 50 43.9933 50 37.6483C50 31.303 44.8009 26.1409 38.4102 26.1409ZM32.8556 14.674C32.8556 12.6681 33.9397 10.9095 35.5564 9.9444C35.1852 9.39899 34.9682 8.74184 34.9682 8.03546C34.9682 6.15114 36.5124 4.61792 38.4102 4.61792C40.308 4.61792 41.8522 6.15114 41.8522 8.03546C41.8522 8.74184 41.6351 9.39899 41.264 9.9444C42.8806 10.9095 43.9648 12.6681 43.9648 14.674V15.6921C43.9648 16.5003 43.3048 17.1556 42.4908 17.1556H34.3296C33.5155 17.1556 32.8556 16.5003 32.8556 15.6921V14.674ZM5.94215 30.2879V29.2467C5.94215 27.1806 7.07436 25.3731 8.75397 24.4005C8.40569 23.8721 8.20236 23.2415 8.20236 22.5639C8.20236 20.7095 9.72176 19.2005 11.5898 19.2005C13.4575 19.2005 14.9773 20.7095 14.9773 22.5639C14.9773 23.2415 14.7736 23.8721 14.4253 24.4005C16.1053 25.3731 17.2371 27.1806 17.2371 29.2467V30.2879C17.2371 31.0962 16.5771 31.7514 15.7631 31.7514H7.41615C6.6021 31.7514 5.94215 31.0962 5.94215 30.2879ZM32.8556 41.7843V40.7662C32.8556 38.7793 33.9195 37.0351 35.511 36.0639C35.1681 35.5326 34.9682 34.9019 34.9682 34.2255C34.9682 32.3411 36.5124 30.8079 38.4102 30.8079C40.308 30.8079 41.8522 32.3411 41.8522 34.2255C41.8522 34.9019 41.6523 35.5326 41.3094 36.0639C42.9008 37.0351 43.9648 38.7793 43.9648 40.7662V41.7843C43.9648 42.5926 43.3048 43.2479 42.4908 43.2479H34.3296C33.5155 43.2479 32.8556 42.5926 32.8556 41.7843Z" fill="#E58221"/>
</svg>
