<svg width="25" height="16" viewBox="0 0 25 16" fill="none" xmlns="http://www.w3.org/2000/svg">
<path d="M10.6294 3.99658C11.7563 3.99658 12.6696 4.90981 12.6696 6.03546C12.6696 7.16182 11.7563 8.07394 10.6294 8.07394C9.50423 8.07394 8.59093 7.1619 8.59093 6.03546C8.59093 4.91028 9.50423 3.99658 10.6294 3.99658Z" fill="#5F4A4A"/>
<path d="M0.195717 7.68812C3.82954 2.58695 7.84154 0 12.1205 0C19.3412 0 24.4848 7.38872 24.7009 7.70354C24.9693 8.09453 24.9414 8.6178 24.633 8.97865C20.6705 13.638 16.5103 16 12.2693 16C5.04264 16 0.373718 9.17439 0.179497 8.88413C-0.0650463 8.52089 -0.0592422 8.04492 0.195717 7.68812ZM12.4428 13.0598C15.2374 13.0598 17.5028 10.7947 17.5028 8C17.5028 5.20515 15.2373 2.9397 12.4428 2.9397C9.64795 2.9397 7.38274 5.20515 7.38274 8C7.38266 10.7947 9.64788 13.0598 12.4428 13.0598Z" fill="#5F4A4A"/>
</svg>
