<svg width="19" height="20" viewBox="0 0 19 20" fill="none" xmlns="http://www.w3.org/2000/svg">
<mask id="mask0" mask-type="alpha" maskUnits="userSpaceOnUse" x="0" y="0" width="19" height="20">
<path fill-rule="evenodd" clip-rule="evenodd" d="M16.2647 2.53329H15.2894V0.666626H13.3388V2.53329H5.53656V0.666626H3.586V2.53329H2.61072C1.52816 2.53329 0.669909 3.37329 0.669909 4.39996L0.660156 17.4666C0.660156 18.4933 1.52816 19.3333 2.61072 19.3333H16.2647C17.3375 19.3333 18.2152 18.4933 18.2152 17.4666V4.39996C18.2152 3.37329 17.3375 2.53329 16.2647 2.53329ZM16.2643 17.4666H2.61035V7.19995H16.2643V17.4666ZM4.56146 9.06665H9.43786V13.7333H4.56146V9.06665Z" fill="white"/>
</mask>
<g mask="url(#mask0)">
<rect x="-3.24121" y="-2.13342" width="25.3573" height="24.2667" fill="#BFBFBF"/>
</g>
</svg>
