<svg width="44" height="44" viewBox="0 0 44 44" fill="none" xmlns="http://www.w3.org/2000/svg">
<path d="M25.107 36.903L25.107 36.903L25.1097 36.9073C25.6931 37.8089 26.389 38.6682 27.3053 39.2617C28.5891 40.1705 30.0889 40.7061 31.8021 40.7061C35.4433 40.7061 38.4413 38.2434 39.3525 34.9258C39.5685 34.2759 39.6213 33.629 39.6213 32.8869V32.878C39.6213 32.6253 39.6213 32.404 39.5674 32.1817C39.2955 28.8656 36.8878 26.0315 33.675 25.2818L33.6751 25.2817L33.669 25.2806C33.5505 25.259 33.4284 25.2349 33.3036 25.2103C32.8293 25.1167 32.3145 25.0151 31.8021 25.0151H31.7994C31.5397 25.0151 31.2705 25.0151 30.9487 25.0678C30.8977 25.0678 30.8304 25.0681 30.762 25.075C30.6965 25.0815 30.621 25.0948 30.5529 25.1248C26.8661 25.7213 23.9303 28.9826 23.9303 32.8869C23.9303 34.2841 24.4132 35.7287 25.107 36.903ZM22.3711 37.1225L22.5621 37.1191L22.4825 36.9454C21.9104 35.6971 21.598 34.292 21.598 32.8342C21.598 28.2046 24.7177 24.3522 28.8819 23.048C28.9156 23.0412 28.9505 23.0345 28.9864 23.0275C29.223 22.9815 29.502 22.9274 29.7406 22.8319L29.8794 22.7764L29.8001 22.6496C28.7399 20.9533 27.5176 19.6225 26.1839 18.7148C25.4898 18.1814 24.7951 17.8073 24.1001 17.54L24.0992 17.5397C23.2517 17.2219 22.497 17.0047 21.6838 17.0047C21.0388 17.0047 20.2854 17.112 19.5836 17.3819C18.8972 17.6459 18.1468 17.9667 17.4479 18.5035C14.1443 20.6901 11.1242 25.4199 11.1242 31.8856C11.1242 32.4773 11.2313 33.0228 11.4513 33.4651C11.6714 34.0128 12.0007 34.3949 12.3729 34.7671L12.3784 34.7726L12.3846 34.7774C12.8596 35.1468 13.4504 35.5775 14.1523 35.8481C16.2848 36.8068 19.3615 37.1753 22.3711 37.1225ZM42.0429 32.9566L42.0268 32.9727H41.9582L41.9537 33.093C41.7454 38.5608 37.3196 42.933 31.8021 42.933C28.7305 42.933 26.0239 41.5796 24.202 39.4975L24.1599 39.4494L24.0963 39.4553C21.5778 39.6914 18.8895 39.5732 16.5116 39.0819C14.1308 38.59 12.0767 37.7274 10.8103 36.4871C10.5525 36.2294 10.3459 35.9712 10.1348 35.7073L10.1002 35.6642L10.0451 35.6607C6.73368 35.4504 3.61003 34.5573 1.95636 32.9559C0.819143 31.8184 0.201904 30.4269 0.201904 28.829C0.201904 25.3756 1.35395 21.5525 3.29049 18.6215L3.29133 18.6202C4.23194 17.157 5.32828 16.0089 6.52787 15.1222L6.53536 15.1167L6.54196 15.1101C6.76369 14.8884 6.83057 14.6143 6.87938 14.4143C6.88336 14.398 6.88722 14.3822 6.89103 14.3669L6.89168 14.3671L6.89351 14.3543C6.95058 13.9548 6.83845 13.4438 6.5496 13.0972L6.5497 13.0971L6.54571 13.0928C5.40527 11.8486 4.62868 10.139 4.62868 8.22345C4.62868 4.23461 7.8401 1.02319 11.8289 1.02319C13.642 1.02319 15.2983 1.69643 16.5401 2.83483L16.6198 2.90784L16.7036 2.83959C18.1043 1.69829 19.8155 1.07589 21.6838 1.07589C23.7061 1.07589 25.5225 1.85359 26.9254 3.04864L27.0132 3.12347L27.0948 3.04187C28.336 1.80074 30.1486 1.02319 32.0656 1.02319C36.0545 1.02319 39.2659 4.23461 39.2659 8.22345C39.2659 10.0361 38.5929 11.745 37.3491 13.0924L37.3438 13.0982L37.3393 13.1046C37.0535 13.5047 36.9998 13.9576 36.9998 14.3366V14.349L37.0022 14.3611L37.006 14.3801C37.0556 14.6288 37.1166 14.9347 37.366 15.1217L37.3667 15.1222C38.5663 16.0089 39.6626 17.157 40.6032 18.6202L40.6032 18.6202L40.6058 18.624C42.646 21.5536 43.7981 25.4282 43.7981 28.829C43.7981 30.4786 43.1289 31.8706 42.0429 32.9566ZM41.3801 29.6059L41.5284 30.0568L41.6214 29.5913C41.6766 29.3157 41.6766 29.0946 41.6766 28.8844L41.6766 28.8825C41.6766 28.8823 41.6766 28.8821 41.6766 28.8819C41.703 24.7166 40.3231 21.3554 38.4406 19.0338C36.5614 16.7163 34.1706 15.4237 32.171 15.4237C30.9259 15.4237 29.4792 15.9635 28.0974 16.867L27.9504 16.9631L28.0894 17.0705C29.2366 17.957 30.3335 19.1579 31.222 20.5691L31.2217 20.5693L31.2278 20.5775C31.6961 21.2018 32.0593 21.8247 32.3712 22.6042L32.4001 22.6766L32.4779 22.6824C36.643 22.9948 40.131 25.8065 41.3801 29.6059ZM36.2762 11.1969L36.2763 11.197L36.2792 11.1928C36.8728 10.3293 37.1971 9.35614 37.1971 8.22345C37.1971 5.41403 34.875 3.09198 32.0656 3.09198C30.6067 3.09198 29.3636 3.68695 28.4464 4.60418L28.376 4.6745L28.4287 4.75882C29.208 6.00557 29.6745 7.45845 29.6745 9.01395C29.6745 10.1532 29.416 11.1393 29.0492 12.1873L29.0189 12.2737L29.0921 12.3286C29.9586 12.9785 30.9867 13.3022 32.1183 13.3022C33.5756 13.3022 34.8726 12.7084 35.7916 11.736L35.7922 11.7354C35.9494 11.5782 36.1128 11.4148 36.2762 11.1969ZM15.1997 4.55206L15.2616 4.46095L15.179 4.38804C14.2598 3.57692 13.1235 3.14468 11.8289 3.14468C9.01952 3.14468 6.69747 5.46673 6.69747 8.27615C6.69747 9.40917 7.02201 10.3842 7.67106 11.2496L7.67639 11.2567L7.68267 11.263C7.85026 11.4306 7.94681 11.5613 8.06615 11.7227C8.09125 11.7567 8.11736 11.792 8.14536 11.8293L8.14961 11.835L8.15448 11.8402C9.0736 12.8133 10.3711 13.4076 11.8289 13.4076C12.8007 13.4076 13.7227 13.1376 14.4839 12.5938L14.5708 12.5318L14.523 12.4362C14.0067 11.4036 13.7984 10.2644 13.7984 9.06665C13.7984 7.35437 14.3169 5.85032 15.1997 4.55206ZM12.3013 20.5726L12.3014 20.5726L12.304 20.5684C13.2438 19.0543 14.3924 17.8533 15.699 16.8603L15.8358 16.7563L15.6947 16.6582C14.4638 15.8019 13.0691 15.371 11.8816 15.371C9.8821 15.371 7.49144 16.6636 5.60575 18.9742C3.71663 21.289 2.32339 24.6371 2.32339 28.7763C2.32339 29.863 2.65256 30.6873 3.4698 31.45L3.47146 31.4515C4.01636 31.9419 4.8117 32.344 5.74871 32.6564C6.68737 32.9693 7.7764 33.1948 8.91602 33.3273L9.09061 33.3476L9.05248 33.176C8.9505 32.7171 8.95005 32.3089 8.95005 31.7802H8.9501L8.95 31.7767C8.84537 28.0623 10.102 23.8192 12.3013 20.5726ZM27.2369 8.85585C27.2369 5.78371 24.7575 3.25008 21.6311 3.25008C18.5055 3.25008 16.0253 5.73023 16.0253 8.85585C16.0253 11.9815 18.5055 14.4616 21.6311 14.4616C24.7567 14.4616 27.2369 11.9815 27.2369 8.85585Z" fill="#0A63AF" stroke="#0A63AF" stroke-width="0.25"/>
<path d="M30.0981 36.5402L30.0981 36.5402L30.096 36.5381L27.8299 34.3774L27.83 34.3773L27.825 34.373C27.5 34.0945 27.4049 33.6802 27.5943 33.2539L27.595 33.2523C27.7353 32.925 28.0423 32.6979 28.3779 32.62C28.7132 32.5422 29.0584 32.6165 29.2848 32.8656L29.2843 32.8661L29.2943 32.8749C29.7654 33.2937 30.1844 33.7127 30.6591 34.1874L30.7526 34.2809L30.8407 34.1822C31.2637 33.7085 31.6872 33.2396 32.1092 32.7724C32.9991 31.7872 33.8825 30.8092 34.7408 29.8079C35.2542 29.2499 36.1509 29.4282 36.4854 30.097C36.6687 30.4636 36.5828 30.8843 36.2919 31.2241C35.185 32.489 34.0803 33.7516 32.9233 34.9612L32.9232 34.9611L32.9203 34.9643L31.6029 36.4399L31.6027 36.4398L31.5985 36.4451C31.4194 36.669 31.1461 36.7671 30.8002 36.7671H30.7878L30.7757 36.7695C30.5582 36.813 30.2831 36.7252 30.0981 36.5402Z" fill="#0A63AF" stroke="#0A63AF" stroke-width="0.25"/>
</svg>
