<svg width="23" height="28" viewBox="0 0 23 28" fill="none" xmlns="http://www.w3.org/2000/svg">
<path d="M14.8284 21.2312C14.8342 21.2312 14.8342 21.2312 14.8397 21.2312C14.8514 21.2128 14.8693 21.2011 14.8827 21.1827C14.8634 21.2011 14.8459 21.2186 14.8284 21.2312Z" fill="#5F4A4A"/>
<path d="M14.7444 25.4708C14.291 23.8651 12.3454 22.7701 11.212 22.7701C8.3037 22.7158 8.14209 20.8187 8.13293 20.6078H8.91909C8.91909 20.6078 9.68438 20.5957 9.37671 19.9235C9.37627 19.9218 9.37627 19.9218 9.37627 19.921L8.38428 17.7571C9.39128 17.5788 10.3065 17.1212 11.0421 16.4641C11.0621 16.4516 11.0751 16.4374 11.0951 16.4184C11.5059 15.9545 11.8838 15.4773 12.2157 15.0066C12.222 14.9995 12.222 14.9934 12.222 14.9859C13.9462 12.5078 14.5287 10.0157 14.7345 8.67685V8.64303C14.7608 8.51049 14.767 8.39815 14.7879 8.29815C14.795 8.17961 14.808 8.08608 14.8138 8.00007C14.8339 7.788 14.8339 7.67545 14.8339 7.67545C14.8414 7.58945 14.8414 7.50322 14.8414 7.41678C14.8413 3.3204 11.5197 0 7.41709 0C3.32101 0 0 3.3204 0 7.41691C0 7.50331 1.64044e-08 7.58953 0.00730988 7.67558C0.00730988 7.71503 0.00730988 7.7622 0.0131225 7.79496C0.027346 8.05362 0.0534149 8.29846 0.0863974 8.54418C0.0863974 8.56337 0.0937073 8.57694 0.0937073 8.58971C0.517679 11.8249 1.95556 14.1844 2.85754 15.3902C2.90329 15.4505 2.95068 15.51 2.98969 15.5635C3.11576 15.7292 3.2281 15.8603 3.32141 15.9743C3.41366 16.0866 3.48672 16.1655 3.53974 16.2185C3.60006 16.2788 3.62613 16.3056 3.62613 16.3056C3.62613 16.3056 3.62613 16.3056 3.63344 16.3056C4.38891 17.0469 5.37006 17.5648 6.45659 17.7572L5.61076 19.7024C5.24192 20.5508 6.05226 20.6075 6.05226 20.6075H6.92922C7.44695 23.8611 9.8175 23.9024 10.8925 23.9321C13.613 24.2448 13.82 26.4901 13.82 26.8308C13.8961 27.0763 14.028 27.3401 14.5574 27.265C15.0867 27.1898 14.9907 26.5661 14.9907 26.5661C14.9907 26.5661 15.0275 26.3397 14.7444 25.4708Z" fill="#5F4A4A"/>
<path d="M17.3145 3.0874C16.5647 3.0874 15.8558 3.24355 15.2016 3.50825C14.8955 3.67272 14.9966 4.06477 14.9966 4.06477L15.0484 4.18441C15.0484 4.18441 15.0509 4.18877 15.0509 4.19005L15.0567 4.20299C15.0593 4.20757 15.0693 4.21779 15.0734 4.22426C15.1858 4.45849 15.3908 4.89853 15.4868 5.18075C15.9544 6.69834 16.2658 9.75528 13.7684 14.2797L13.7158 14.3735C13.7141 14.3756 13.6097 14.577 13.7613 14.7847C13.7813 14.8131 13.8043 14.8467 13.8227 14.8726C13.8594 14.9183 13.8953 14.9642 13.9254 15.0043C14.0214 15.1325 14.1074 15.2323 14.1784 15.3202C14.2502 15.4059 14.3061 15.4663 14.3462 15.5066C14.3922 15.552 14.4122 15.5738 14.4122 15.5738C14.4122 15.5738 14.4122 15.5738 14.4172 15.5738C14.9959 16.1415 15.7474 16.5373 16.5798 16.6849L15.9319 18.1733C15.7052 18.6956 16.0559 18.8242 16.2058 18.8563H18.5613C18.7158 18.8279 18.9913 18.7236 18.8164 18.3441C18.8164 18.3428 18.8164 18.3428 18.8164 18.3415L18.0559 16.685C18.8283 16.5483 19.5285 16.1969 20.0917 15.6959C20.1067 15.6855 20.118 15.675 20.1317 15.6606C20.4474 15.3049 20.7363 14.939 20.9906 14.5791C20.9951 14.5727 20.9951 14.5686 20.9951 14.5638C22.3153 12.6663 22.762 10.7571 22.9186 9.73229V9.70622C22.9398 9.60498 22.9449 9.51854 22.9599 9.44258C22.9649 9.35196 22.9749 9.28018 22.9799 9.21421C22.995 9.05265 22.995 8.96537 22.995 8.96537C22.9999 8.90024 22.9999 8.83366 22.9999 8.76792C22.9983 5.62978 20.4562 3.0874 17.3145 3.0874Z" fill="#5F4A4A"/>
</svg>
