<svg width="44" height="43" viewBox="0 0 44 43" fill="none" xmlns="http://www.w3.org/2000/svg">
<path d="M25.1378 35.9412C25.7175 36.8371 26.4026 37.6803 27.2984 38.26C28.5632 39.1559 30.0388 39.6829 31.7252 39.6829C35.3088 39.6829 38.26 37.2587 39.1559 33.9913C39.3667 33.3589 39.4194 32.7265 39.4194 31.9887C39.4194 31.7252 39.4194 31.5144 39.3667 31.3036C39.1032 28.0362 36.7317 25.2432 33.5697 24.5054C32.99 24.4 32.3576 24.2419 31.7252 24.2419C31.4617 24.2419 31.1982 24.2419 30.882 24.2946C30.7766 24.2946 30.6185 24.2946 30.5131 24.3473C26.8768 24.927 23.9784 28.1416 23.9784 31.9887C23.9784 33.3589 24.4527 34.7818 25.1378 35.9412ZM22.292 36.0993C21.7123 34.8345 21.3961 33.4116 21.3961 31.936C21.3961 27.2458 24.5581 23.346 28.774 22.0285C29.0375 21.9758 29.3537 21.9231 29.6172 21.8177C28.5632 20.1313 27.3511 18.8138 26.0337 17.9179C25.3486 17.3909 24.6635 17.022 23.9784 16.7585C23.1352 16.4423 22.3974 16.2315 21.6069 16.2315C20.9745 16.2315 20.2367 16.3369 19.5516 16.6004C18.8665 16.8639 18.1287 17.1801 17.4436 17.7071C14.1762 19.8678 11.1723 24.5581 11.1723 30.9874C11.1723 31.5671 11.2777 32.0941 11.4885 32.5157C11.6993 33.0427 12.0155 33.4116 12.3844 33.7805C12.8587 34.1494 13.4384 34.571 14.1235 34.8345C16.2315 35.7831 19.2881 36.152 22.292 36.0993ZM43.8462 27.9308C43.8462 29.6172 43.1611 31.0401 42.0544 32.1468C42.0544 32.1468 42.0544 32.1995 42.0017 32.1995C41.7909 37.733 37.3114 42.1598 31.7252 42.1598C28.6159 42.1598 25.8756 40.7896 24.0311 38.6816C18.9719 39.1559 13.2276 38.2073 10.6453 35.6777C10.3818 35.4142 10.171 35.1507 9.96025 34.8872C6.64016 34.6764 3.47818 33.7805 1.79179 32.1468C0.632397 30.9874 0 29.5645 0 27.9308C0 24.4527 1.15939 20.6056 3.10928 17.6544C4.05788 16.1788 5.16457 15.0194 6.37666 14.1235C6.58746 13.9127 6.64016 13.6492 6.69286 13.4384C6.74556 13.0695 6.64016 12.5952 6.37666 12.279C5.21727 11.0142 4.42678 9.27515 4.42678 7.32526C4.42678 3.26738 7.69416 0 11.752 0C13.5965 0 15.2829 0.685096 16.5477 1.84449C17.9706 0.685096 19.7097 0.0526999 21.6069 0.0526999C23.6622 0.0526999 25.5067 0.843196 26.9295 2.05529C28.1943 0.790496 30.0388 0 31.9887 0C36.0466 0 39.314 3.26738 39.314 7.32526C39.314 9.16975 38.6289 10.9088 37.3641 12.279C37.1006 12.6479 37.0479 13.0695 37.0479 13.4384C37.1006 13.7019 37.1533 13.9654 37.3641 14.1235C38.5762 15.0194 39.6829 16.1788 40.6315 17.6544C42.6868 20.6056 43.8462 24.5054 43.8462 27.9308ZM41.422 28.6686C41.4747 28.4051 41.4747 28.1943 41.4747 27.9835C41.5274 19.7097 35.9939 14.6505 32.0941 14.6505C30.882 14.6505 29.4591 15.1775 28.0889 16.0734C29.2483 16.9693 30.355 18.1814 31.2509 19.6043C31.7252 20.2367 32.0941 20.8691 32.4103 21.6596C36.6263 21.9758 40.1572 24.8216 41.422 28.6686ZM36.0993 10.2237C36.679 9.38055 36.9952 8.43195 36.9952 7.32526C36.9952 4.58488 34.7291 2.31879 31.9887 2.31879C30.5658 2.31879 29.3537 2.89848 28.4578 3.79438C29.2483 5.05917 29.7226 6.53476 29.7226 8.11576C29.7226 9.27515 29.4591 10.2764 29.0902 11.3304C29.9334 11.9628 30.9347 12.279 32.0414 12.279C33.4643 12.279 34.7291 11.6993 35.625 10.7507C35.7831 10.5926 35.9412 10.4345 36.0993 10.2237ZM27.0349 7.95766C27.0349 4.95377 24.6108 2.47689 21.5542 2.47689C18.4976 2.47689 16.0734 4.90107 16.0734 7.95766C16.0734 11.0142 18.4976 13.4384 21.5542 13.4384C24.6108 13.4384 27.0349 11.0142 27.0349 7.95766ZM13.5965 8.16846C13.5965 6.42937 14.1235 4.90107 15.0194 3.58358C14.1235 2.79308 13.0168 2.37149 11.752 2.37149C9.01165 2.37149 6.74556 4.63758 6.74556 7.37796C6.74556 8.48465 7.06176 9.43325 7.69416 10.2764C7.90495 10.4872 8.01035 10.6453 8.16845 10.8561C9.06435 11.8047 10.3291 12.3844 11.752 12.3844C12.7006 12.3844 13.5965 12.1209 14.3343 11.5939C13.8073 10.5399 13.5965 9.38055 13.5965 8.16846ZM12.1209 19.6043C13.0695 18.076 14.2289 16.8639 15.5464 15.8626C14.3343 15.0194 12.9641 14.5978 11.8047 14.5978C7.90496 14.5978 2.37149 19.657 2.37149 27.8781C2.37149 28.9321 2.68769 29.7226 3.47818 30.4604C4.53217 31.409 6.58746 32.0414 8.85355 32.3049C8.74815 31.8306 8.74815 31.409 8.74815 30.882C8.64275 27.1404 9.90754 22.8717 12.1209 19.6043Z" fill="white"/>
<path d="M29.9329 35.7304L27.6668 33.5697C27.2979 33.2535 27.1925 32.7792 27.4033 32.3049C27.7195 31.5671 28.7735 31.3036 29.3005 31.8833C29.7748 32.3049 30.1964 32.7265 30.6707 33.2008C31.9882 31.7252 33.3057 30.3023 34.5705 28.8267C35.1502 28.1943 36.1515 28.4051 36.5204 29.1429C36.7312 29.5645 36.6258 30.0388 36.3096 30.4077C35.2029 31.6725 34.0962 32.9373 32.9368 34.1494L31.6193 35.625C31.4085 35.8885 31.0923 35.9939 30.7234 35.9939C30.4599 36.0466 30.1437 35.9412 29.9329 35.7304Z" fill="white"/>
</svg>
