<svg width="43" height="38" viewBox="0 0 43 38" fill="none" xmlns="http://www.w3.org/2000/svg">
<path d="M39.5363 0H3.13363C2.29448 0 1.50653 0.327074 0.913499 0.921753C0.322124 1.51313 -0.0016456 2.30108 6.28986e-06 3.13528V28.6949C6.28986e-06 30.4228 1.40246 31.8286 3.13363 31.8286H22.8357L30.1882 37.3211C30.7912 37.772 31.4106 38 32.0284 38C33.1765 38 34.4121 37.1245 34.4121 35.205V31.8269H39.5363C41.2658 31.8269 42.6732 30.4211 42.6732 28.6933V3.13363C42.6732 1.40576 41.2641 0 39.5363 0ZM39.7642 28.6933C39.7642 28.8188 39.6651 28.9179 39.5363 28.9179H31.5031V34.6731L23.802 28.9196H23.3197H3.12868C3.00809 28.9196 2.91063 28.8188 2.91063 28.6949V3.13032C2.91063 3.05434 2.94532 3.00313 2.97505 2.9734C3.00479 2.94366 3.056 2.90732 3.13363 2.90732H39.5363C39.6618 2.90732 39.7642 3.00809 39.7642 3.13198V28.6933Z" fill="#3175BE"/>
<path d="M26.2611 11C24.0742 11 22.3475 12.7731 22.3475 14.96C22.3475 17.1468 24.1436 18.9199 26.3304 18.9199C26.3523 18.9199 26.3853 18.9169 26.4072 18.9166C25.5425 19.6051 24.4565 20.02 23.2678 20.02C22.7209 20.02 22.2808 20.4635 22.2808 21.01C22.2808 21.5565 22.6326 22 23.1795 22C27.0613 21.9996 30.1284 18.8417 30.1284 14.96C30.1284 14.9592 30.1284 14.9585 30.1284 14.9574C30.1284 12.7716 28.4472 11 26.2611 11Z" fill="#3175BE"/>
<path d="M16.9859 11C14.799 11 13.0693 12.7731 13.0693 14.96C13.0693 17.1468 14.8639 18.9199 17.0512 18.9199C17.073 18.9199 17.1053 18.9169 17.1272 18.9166C16.2625 19.6051 15.1761 20.02 13.9874 20.02C13.4405 20.02 13 20.4635 13 21.01C13 21.5565 13.3574 22 13.9043 22C17.7861 21.9996 20.8587 18.8417 20.8587 14.96C20.8587 14.9592 20.8587 14.9585 20.8587 14.9574C20.8587 12.7716 19.172 11 16.9859 11Z" fill="#3175BE"/>
</svg>
