<svg width="18" height="21" viewBox="0 0 18 21" fill="none" xmlns="http://www.w3.org/2000/svg">
<path d="M8.53834 9.69111C8.53834 9.94647 8.74531 10.1521 8.9998 10.1521C9.2543 10.1521 9.46126 9.94517 9.46126 9.69111C9.4617 9.15101 9.65354 8.62603 10.0018 8.21297C10.7765 7.29436 11.3572 6.29842 11.7249 5.25279C11.7746 5.1115 11.753 4.95509 11.6666 4.83281C11.5798 4.71053 11.4398 4.63794 11.2898 4.63794H6.70935C6.55942 4.63794 6.41899 4.71053 6.33214 4.83281C6.24573 4.95509 6.22412 5.1115 6.27381 5.25279C6.64238 6.29842 7.22223 7.29436 7.99695 8.21297C8.34563 8.62603 8.53791 9.15144 8.53834 9.69111Z" fill="white"/>
<path d="M9.46126 11.5409C9.46126 11.2859 9.2543 11.0798 8.9998 11.0798C8.74531 11.0798 8.53834 11.2868 8.53834 11.5409C8.53791 12.2071 8.13996 12.8661 7.41796 13.4005C5.87371 14.5408 4.71789 15.7796 3.98249 17.0819C3.90169 17.2253 3.90299 17.3999 3.98638 17.5407C4.06848 17.6829 4.22057 17.7697 4.38476 17.7697H13.6157C13.7795 17.7697 13.9311 17.6829 14.0141 17.5407C14.0966 17.3999 14.0979 17.2253 14.0175 17.0819C13.2826 15.7796 12.1263 14.5408 10.5825 13.4005C9.85964 12.8661 9.46169 12.2071 9.46126 11.5409Z" fill="white"/>
<path d="M17.0762 18.4623H16.8001C16.483 14.8704 14.3796 12.1129 12.7446 10.1543C14.38 8.19612 16.4825 5.43815 16.801 1.84628H17.0771C17.5869 1.84628 18 1.43278 18 0.922922C18 0.413068 17.5869 0 17.0771 0H0.922922C0.413068 0 0 0.4135 0 0.922922C0 1.43278 0.413068 1.84628 0.922922 1.84628H1.19902C1.5166 5.43858 3.6191 8.19655 5.25452 10.1543C3.61953 12.1125 1.5166 14.87 1.19859 18.4623H0.922922C0.413068 18.4623 0 18.875 0 19.3848C0 19.8951 0.413068 20.3086 0.922922 20.3086H2.07701H15.9226H17.0771C17.5869 20.3086 18 19.8951 18 19.3848C18 18.875 17.5865 18.4623 17.0762 18.4623ZM3.04918 18.4623C3.39614 15.217 5.50599 12.7178 7.08265 10.8504L7.1669 10.7506C7.45726 10.4071 7.45726 9.90413 7.1669 9.56019L7.08308 9.46081C5.50685 7.59293 3.39614 5.09379 3.04918 1.848H14.9504C14.6034 5.09379 12.4927 7.59293 10.9165 9.46081L10.8331 9.56019C10.5427 9.90369 10.5427 10.4066 10.8331 10.7506L10.9174 10.8504C12.4936 12.7178 14.6034 15.217 14.9504 18.4623H3.04918Z" fill="white"/>
</svg>
