<svg width="36" height="42" viewBox="0 0 36 42" fill="none" xmlns="http://www.w3.org/2000/svg">
<path d="M14.18 4.65205C14.6476 4.80628 15.0901 5.00364 15.4954 5.23869C15.6022 5.30065 15.719 5.33015 15.8341 5.33015C16.0674 5.33015 16.2944 5.20928 16.42 4.99299C16.6074 4.66982 16.4974 4.2559 16.1742 4.06838C15.6882 3.78652 15.1598 3.55065 14.6037 3.36719C14.249 3.25029 13.8664 3.44286 13.7493 3.7977C13.6324 4.15254 13.8253 4.53506 14.18 4.65205Z" fill="#5F4A4A"/>
<path d="M18.7667 11.8937C18.7667 12.9029 18.6496 13.9344 18.4185 14.9594C18.3363 15.3238 18.5651 15.6859 18.9296 15.7681C18.9797 15.7793 19.0297 15.7848 19.079 15.7848C19.3883 15.7848 19.6674 15.5713 19.7383 15.2569C19.9914 14.1344 20.1198 13.0029 20.1198 11.8937C20.1198 9.53148 19.5432 7.56374 18.4062 6.04545C18.1823 5.74645 17.7582 5.68547 17.4592 5.90943C17.1602 6.13339 17.0993 6.55741 17.3232 6.85641C18.281 8.1355 18.7667 9.8303 18.7667 11.8937Z" fill="#5F4A4A"/>
<path d="M8.99748 22.2234C7.31629 21.0767 5.81307 18.8777 4.97622 16.3413C4.85915 15.9864 4.47644 15.7938 4.12178 15.9108C3.76695 16.0279 3.57429 16.4104 3.69136 16.7653C4.63203 19.6163 6.28823 22.0131 8.23513 23.3412C8.35176 23.4207 8.48444 23.4589 8.61567 23.4589C8.83179 23.4589 9.0442 23.3555 9.17516 23.1636C9.38559 22.8548 9.30613 22.4339 8.99748 22.2234Z" fill="#5F4A4A"/>
<path d="M32.6197 11.0479C30.5602 9.04199 27.6745 7.93734 24.4942 7.93734C23.8234 7.93734 23.1601 7.98713 22.5153 8.084C21.9784 6.13475 21.007 4.45041 19.6314 3.11054C17.5718 1.10464 14.6861 0 11.5059 0C8.32561 0 5.43993 1.10464 3.38037 3.11054C1.17262 5.26074 0.00564575 8.29795 0.00564575 11.8937C0.00564575 15.5558 1.20581 19.3677 3.29847 22.3518C5.08239 24.8959 7.28347 26.5329 9.634 27.1031C9.47607 27.3996 9.38614 27.7376 9.38614 28.0963V29.5395C9.38614 29.913 9.68902 30.2159 10.0626 30.2159H10.7892C10.734 30.632 10.6282 30.9141 10.5116 31.2251C10.3223 31.7297 10.1077 32.3017 10.1077 33.3861C10.1077 34.4711 10.3222 35.0433 10.5115 35.5482C10.6821 36.003 10.8293 36.3957 10.8293 37.2354C10.8293 38.0752 10.6821 38.4679 10.5115 38.9227C10.3222 39.4276 10.1077 39.9998 10.1077 41.0848C10.1077 41.4584 10.4106 41.7612 10.7842 41.7612C11.1578 41.7612 11.4607 41.4584 11.4607 41.0848C11.4607 40.2451 11.6079 39.8524 11.7783 39.3976C11.9677 38.8927 12.1823 38.3205 12.1823 37.2355C12.1823 36.1505 11.9677 35.5782 11.7783 35.0734C11.6079 34.6186 11.4607 34.2259 11.4607 33.3863C11.4607 32.5473 11.6079 32.1549 11.7783 31.7006C11.9237 31.313 12.0837 30.8847 12.1502 30.2161H12.9489C13.3225 30.2161 13.6254 29.9132 13.6254 29.5396V28.0965C13.6254 27.7378 13.5355 27.3998 13.3775 27.1033C13.7187 27.0206 14.0566 26.9154 14.3907 26.7882C16.1681 31.1589 19.25 34.2012 22.6249 35.0357C22.4653 35.3334 22.3745 35.6731 22.3745 36.0339V37.4771C22.3745 37.8507 22.6774 38.1535 23.051 38.1535H23.7775C23.7224 38.5696 23.6166 38.8518 23.5 39.1628C23.3107 39.6673 23.0961 40.2393 23.0961 41.3237C23.0961 41.6973 23.399 42.0002 23.7726 42.0002C24.1462 42.0002 24.4491 41.6973 24.4491 41.3237C24.4491 40.4848 24.5963 40.0923 24.7667 39.638C24.9121 39.2504 25.072 38.8222 25.1386 38.1535H25.9373C26.3109 38.1535 26.6138 37.8507 26.6138 37.4771V36.0339C26.6138 35.6752 26.5239 35.3372 26.3659 35.0408C28.7165 34.4705 30.9175 32.8335 32.7015 30.2894C34.794 27.3053 35.9942 23.4935 35.9942 19.8314C35.9944 16.2353 34.8274 13.1981 32.6197 11.0479ZM4.40627 21.5751C2.46947 18.813 1.35869 15.2843 1.35869 11.8937C1.35869 8.67137 2.38423 5.96933 4.32437 4.07979C6.12985 2.32131 8.68026 1.35296 11.5059 1.35296C14.3315 1.35296 16.882 2.32131 18.6874 4.0797C20.6275 5.96933 21.653 8.67137 21.653 11.8937C21.653 15.2843 20.5423 18.813 18.6055 21.575C16.615 24.4136 14.0937 25.9768 11.5059 25.9768C8.91802 25.9768 6.39665 24.4136 4.40627 21.5751ZM12.2725 28.0964V28.8631H10.7392V28.0964C10.7392 27.6736 11.0831 27.3297 11.5059 27.3297C11.9286 27.3297 12.2725 27.6736 12.2725 28.0964ZM25.2609 36.0337V36.8004H23.7276V36.0337C23.7276 35.611 24.0715 35.2671 24.4942 35.2671C24.917 35.2671 25.2609 35.611 25.2609 36.0337ZM31.5938 29.5124C29.6034 32.3509 27.0821 33.9141 24.4942 33.9141C22.6703 33.9141 20.845 33.1192 19.2156 31.6154C17.7514 30.264 16.4836 28.3562 15.6182 26.2121C16.0587 25.9648 16.4901 25.6778 16.9099 25.3521C17.8776 27.9157 19.4263 30.0526 21.2235 31.2784C21.3401 31.3579 21.4728 31.3961 21.6041 31.3961C21.8202 31.3961 22.0326 31.2927 22.1636 31.1008C22.3741 30.7921 22.2945 30.3713 21.9859 30.1607C20.3296 29.031 18.8465 26.8797 18.0027 24.3907C18.6055 23.7951 19.1783 23.1147 19.7133 22.3518C21.8058 19.3677 23.006 15.5558 23.006 11.8937C23.006 11.0314 22.9382 10.2017 22.8057 9.40801C23.3558 9.32981 23.9216 9.2903 24.4942 9.2903C27.3198 9.2903 29.8703 10.2587 31.6757 12.017C33.6159 13.9067 34.6414 16.6087 34.6414 19.831C34.6414 23.2218 33.5306 26.7505 31.5938 29.5124Z" fill="#5F4A4A"/>
<path d="M31.3945 13.9827C31.1706 13.6837 30.7465 13.6227 30.4475 13.8467C30.1485 14.0706 30.0875 14.4947 30.3115 14.7937C31.2694 16.0728 31.7551 17.7676 31.7551 19.831C31.7551 20.8401 31.6379 21.8716 31.4069 22.8966C31.3247 23.2611 31.5535 23.6232 31.918 23.7053C31.9681 23.7166 32.0181 23.722 32.0674 23.722C32.3767 23.722 32.6558 23.5085 32.7267 23.1942C32.9798 22.0717 33.1082 20.9402 33.1082 19.831C33.1081 17.4687 32.5315 15.5011 31.3945 13.9827Z" fill="#5F4A4A"/>
<path d="M29.1627 12.0056C28.6767 11.7238 28.1483 11.4879 27.5921 11.3044C27.2374 11.1875 26.8549 11.3801 26.7378 11.735C26.6208 12.0898 26.8136 12.4722 27.1683 12.5893C27.6359 12.7435 28.0784 12.9409 28.4837 13.1759C28.5905 13.2379 28.7073 13.2674 28.8224 13.2674C29.0557 13.2674 29.2827 13.1465 29.4083 12.9302C29.5959 12.6071 29.4858 12.1932 29.1627 12.0056Z" fill="#5F4A4A"/>
</svg>
