<svg width="35" height="36" viewBox="0 0 35 36" fill="none" xmlns="http://www.w3.org/2000/svg">
<path d="M34.3305 31.1375L25.8066 22.6043L32.5286 20.3611C32.9945 20.2056 33.3088 19.769 33.3088 19.2772C33.3088 18.7854 32.9945 18.3488 32.5286 18.1934L13.1606 11.7301C12.7512 11.5925 12.2987 11.6989 11.9926 12.0061C11.6865 12.3122 11.5802 12.7648 11.7169 13.1751L18.1732 32.565C18.3285 33.0317 18.7646 33.3464 19.2558 33.3464C19.7471 33.3464 20.1832 33.0317 20.3384 32.565L22.5789 25.8356L31.1029 34.3688C31.5486 34.8151 32.1326 35.0383 32.7167 35.0383C33.3007 35.0383 33.8847 34.8151 34.3306 34.3688C35.2222 33.4765 35.2222 32.0297 34.3305 31.1375Z" fill="#1D70B7"/>
<path d="M4.56445 4.57031V11.4256H9.67418C9.84248 11.0479 10.0744 10.6944 10.3795 10.3894C11.0237 9.74337 11.8834 9.38594 12.7988 9.38594C13.1696 9.38594 13.5359 9.44582 13.8874 9.56407L19.4656 11.4256H30.434V4.57031H4.56445Z" fill="#1D70B7"/>
<path d="M31.5761 0H3.42392C1.5359 0 0 1.53757 0 3.42765V12.568C0 14.4581 1.5359 15.9957 3.42392 15.9957H10.251L9.55247 13.8976C9.53183 13.8358 9.5213 13.7729 9.50414 13.7105H3.42392C2.7946 13.7105 2.28259 13.198 2.28259 12.568V3.42765C2.28259 2.79765 2.7946 2.28508 3.42392 2.28508H31.5761C32.2054 2.28508 32.7174 2.79765 32.7174 3.42765V12.568C32.7174 13.198 32.2054 13.7106 31.5761 13.7106H26.3141L32.6208 15.8153C33.996 15.3701 35 14.0912 35 12.5681V3.42765C35 1.53757 33.4641 0 31.5761 0Z" fill="#1D70B7"/>
</svg>
