<svg width="25" height="23" viewBox="0 0 25 23" fill="none" xmlns="http://www.w3.org/2000/svg">
<path fill-rule="evenodd" clip-rule="evenodd" d="M2.06112 0H23.1798C24.1822 0 24.9997 0.815539 24.9997 1.81795V16.6462C24.9997 17.6486 24.1832 18.4641 23.1798 18.4641H20.2071V20.4239C20.2071 21.5375 19.4903 22.0454 18.8242 22.0454C18.4658 22.0454 18.1064 21.9132 17.7566 21.6515L13.4911 18.4651H2.06112C1.05679 18.4651 0.243168 17.6496 0.243168 16.6471V1.81891C0.242209 1.33495 0.430042 0.87783 0.773124 0.534748C1.11716 0.189749 1.57429 0 2.06112 0ZM16.4835 5.27492C14.8688 5.27492 13.5939 6.5841 13.5939 8.19881C13.5939 9.81351 14.92 11.1227 16.5347 11.1227C16.5435 11.1227 16.5547 11.122 16.5657 11.1214C16.5749 11.1209 16.584 11.1204 16.5914 11.1202C15.953 11.6286 15.1511 11.935 14.2734 11.935C13.8696 11.935 13.5446 12.2624 13.5446 12.6659C13.5446 13.0695 13.8044 13.3969 14.2082 13.3969C17.0743 13.3966 19.339 11.0649 19.339 8.19881V8.19689C19.339 6.583 18.0977 5.27492 16.4835 5.27492ZM6.74322 8.1988C6.74322 6.58409 8.02036 5.27492 9.63507 5.27492C11.2492 5.27492 12.4946 6.583 12.4946 8.19689V8.1988C12.4946 11.0649 10.2259 13.3966 7.35975 13.3969C6.95594 13.3969 6.69202 13.0695 6.69202 12.6659C6.69202 12.2624 7.01726 11.935 7.42108 11.935C8.29879 11.935 9.10094 11.6286 9.73938 11.1202C9.73199 11.1203 9.723 11.1209 9.71387 11.1214C9.70304 11.122 9.69202 11.1227 9.68326 11.1227C8.06827 11.1227 6.74322 9.81351 6.74322 8.1988Z" fill="white"/>
</svg>
