<svg width="53" height="50" viewBox="0 0 53 50" fill="none" xmlns="http://www.w3.org/2000/svg">
<path d="M0 25.9487V33.1203C0 34.2422 0.909609 35.152 2.03178 35.152H8.62265V27.4274C8.62265 24.7397 9.27513 22.2034 10.4239 19.9612C8.03997 19.8196 5.88692 18.8106 4.27435 17.246C1.67508 19.2586 0 22.4071 0 25.9487Z" fill="#E58221"/>
<path d="M15.5022 14.0686C14.4719 12.3769 13.8782 10.3919 13.8782 8.27076C13.8782 6.97901 14.101 5.73912 14.5058 4.58402C13.486 3.95875 12.2867 3.5979 11.0029 3.5979C7.29581 3.5979 4.29053 6.60278 4.29053 10.31C4.29053 14.0171 7.29581 17.0224 11.0029 17.0224C11.5134 17.0224 12.0099 16.9634 12.4879 16.8554C13.372 15.8059 14.3852 14.8699 15.5022 14.0686Z" fill="#E58221"/>
<path d="M33.7337 27.6974C34.8217 27.6974 35.8865 27.9392 36.8559 28.3905L38.5284 27.1672C38.4432 22.6943 36.1811 18.7563 32.7551 16.3674C30.7487 18.276 28.0386 19.4512 25.0576 19.4512C22.0766 19.4512 19.3665 18.276 17.3599 16.3676C13.8674 18.8028 11.5801 22.8471 11.5801 27.4279V36.2128C11.5801 37.5874 12.6944 38.7017 14.0689 38.7017H27.24C26.6508 37.6382 26.314 36.4165 26.314 35.1173C26.314 31.0257 29.6425 27.6974 33.7337 27.6974Z" fill="#E58221"/>
<path d="M25.0576 16.4929C29.5986 16.4929 33.2798 12.8117 33.2798 8.27076C33.2798 3.72978 29.5986 0.048584 25.0576 0.048584C20.5166 0.048584 16.8354 3.72978 16.8354 8.27076C16.8354 12.8117 20.5166 16.4929 25.0576 16.4929Z" fill="#E58221"/>
<path d="M48.7247 40.5191C48.0472 40.5191 47.4091 40.6812 46.8401 40.9624L38.8484 35.1169L46.7819 29.3136C47.365 29.6129 48.0243 29.785 48.7245 29.785C50.9486 29.785 52.7727 28.0822 52.9697 25.91C53.199 23.3576 51.1824 21.2559 48.7245 21.2559C46.3694 21.2559 44.4598 23.1652 44.4598 25.5206C44.4598 25.7158 44.4776 25.9064 44.503 26.0946L36.5449 31.9156C35.764 31.2308 34.7653 30.8522 33.7334 30.8522C31.3783 30.8522 29.4688 32.7615 29.4688 35.1169C29.4688 37.4721 31.3783 39.3816 33.7334 39.3816C34.7732 39.3816 35.7702 38.9989 36.5449 38.318L44.5127 44.1461C44.4813 44.3548 44.4598 44.5665 44.4598 44.7838C44.4598 47.139 46.3694 49.0485 48.7245 49.0485C51.0734 49.0485 52.9894 47.1447 52.9894 44.7838C52.9896 42.4356 51.0858 40.5191 48.7247 40.5191Z" fill="#E58221"/>
</svg>
