<svg width="66" height="66" viewBox="0 0 66 66" fill="none" xmlns="http://www.w3.org/2000/svg">
<path d="M60.9887 40.7696C57.1638 41.0054 52.1344 44.8267 47.2839 47.0235C41.3354 49.7136 32.0796 47.5516 32.0786 47.5516C33.5094 46.8811 39.3115 45.4992 40.4795 44.9846C46.6906 42.253 46.1613 36.5557 43.2041 36.6036C39.2981 36.6695 37.0009 37.6288 29.2036 38.6923C23.2927 39.4953 16.3018 39.2017 12.9489 40.4817C8.2157 42.2903 0.594727 54.4544 0.594727 54.4544L12.38 65.8768C12.38 65.8768 19.6786 58.6902 23.2279 58.6902C31.3199 58.6902 31.6461 58.5788 39.1573 58.1732C42.3537 58.0025 43.0176 57.8712 44.8475 57.255C54.5866 53.9627 65.0421 45.1947 65.2345 44.1393C65.6773 41.6972 63.0057 40.644 60.9887 40.7696Z" fill="#ECF0F1"/>
<path d="M12.3829 32.4975C12.7076 32.7056 13.1137 32.7381 13.4614 32.5811C19.7699 29.7474 26.1657 29.7474 32.4728 32.5811C32.7687 32.7114 33.1084 32.7114 33.4044 32.5811C39.712 29.7474 46.1087 29.7474 52.4155 32.5811C52.5608 32.6462 52.7214 32.6804 52.8773 32.6804C53.0945 32.6804 53.3093 32.6184 53.495 32.4975C53.8168 32.2899 54.0121 31.9322 54.0121 31.5476V3.33108C54.0121 2.55819 53.3571 2.30152 53.336 2.2925C49.9529 0.771808 46.4816 0 43.0207 0C39.9766 0 36.9226 0.60214 33.924 1.78259V15.6336C33.924 16.1784 33.485 16.6199 32.938 16.6199C32.3954 16.6199 31.9519 16.1784 31.9519 15.6336V1.78259C28.9564 0.60214 25.9027 0 22.8579 0C19.3985 0 15.9257 0.771808 12.5403 2.2925C12.5199 2.30152 11.8652 2.63743 11.8652 3.33108V31.5476C11.8651 31.9322 12.0596 32.2898 12.3829 32.4975ZM14.1308 26.1888C17.0092 25.0505 19.9389 24.4719 22.8579 24.4719C26.1527 24.4719 29.4697 25.2092 32.708 26.6649C32.8529 26.7299 33.0235 26.7299 33.1692 26.6649C36.4078 25.2092 39.7245 24.4719 43.0207 24.4719C45.9383 24.4719 48.8681 25.0505 51.7456 26.1888V29.852C48.831 28.7536 45.8654 28.1986 42.9061 28.1986C39.5633 28.1986 36.2118 28.9074 32.9378 30.3108C29.6655 28.9072 26.3141 28.1986 22.9694 28.1986C20.0109 28.1986 17.0462 28.7538 14.1307 29.8521L14.1308 26.1888Z" fill="#ECF0F1"/>
</svg>
