<svg width="50" height="44" viewBox="0 0 50 44" fill="none" xmlns="http://www.w3.org/2000/svg">
<mask id="path-1-inside-1" fill="white">
<path d="M18.6296 0.744385C15.7563 0.744385 13.3604 1.5406 11.6995 3.16417C10.0385 4.78774 9.19738 7.16258 9.19738 9.97907C9.19738 12.1101 10.26 14.1705 11.7159 16.1026C13.1719 18.0348 15.0697 19.8563 16.9506 21.4525C20.7123 24.6448 24.4568 26.9176 24.4568 26.9176C24.6208 27.0163 24.8086 27.0684 25.0001 27.0684C25.1915 27.0684 25.3793 27.0163 25.5433 26.9176C25.5433 26.9176 29.2878 24.6448 33.0495 21.4525C34.9304 19.8563 36.8282 18.0348 38.2842 16.1026C39.7402 14.1705 40.8027 12.1101 40.8027 9.97907C40.8027 7.16258 39.9616 4.78774 38.3006 3.16417C36.6397 1.5406 34.2438 0.744385 31.3705 0.744385C28.3644 0.744385 26.2167 2.26039 25.0001 3.42755C23.7835 2.26039 21.6357 0.744385 18.6296 0.744385ZM18.6296 2.85141C21.5092 2.85141 23.5548 4.84831 24.1935 5.61688C24.2924 5.73455 24.4158 5.82917 24.5551 5.89408C24.6945 5.95898 24.8463 5.99262 25.0001 5.99262C25.1538 5.99262 25.3056 5.95898 25.445 5.89408C25.5843 5.82917 25.7078 5.73455 25.8067 5.61688C26.4453 4.84831 28.4909 2.85141 31.3705 2.85141C33.8559 2.85141 35.6461 3.51589 36.8356 4.67859C38.0251 5.8413 38.6957 7.56858 38.6957 9.97907C38.6957 11.3761 37.9146 13.0973 36.6051 14.8351C35.2957 16.5729 33.5061 18.3063 31.6997 19.8393C28.5225 22.5356 25.7229 24.309 25.0001 24.7612C24.2772 24.309 21.4776 22.5356 18.3004 19.8393C16.494 18.3063 14.7045 16.5729 13.395 14.8351C12.0855 13.0973 11.3044 11.3761 11.3044 9.97907C11.3044 7.56858 11.975 5.8413 13.1645 4.67859C14.354 3.51589 16.1442 2.85141 18.6296 2.85141ZM4.45658 16.5471C2.43204 16.5471 0.769287 18.2098 0.769287 20.2344V32.3497C0.770352 32.4916 0.800061 32.6318 0.856634 32.7619C0.913206 32.8921 0.995476 33.0094 1.09851 33.1069L8.14387 39.642V42.8849C8.1439 43.1643 8.2549 43.4322 8.45247 43.6298C8.65003 43.8273 8.91798 43.9383 9.19738 43.9384H20.786C21.0654 43.9383 21.3334 43.8273 21.5309 43.6298C21.7285 43.4322 21.8395 43.1643 21.8395 42.8849V32.3497C21.8422 32.0894 21.7484 31.8372 21.5761 31.6419L16.5884 26.0945C16.5777 26.0833 16.5667 26.0723 16.5555 26.0616C15.8885 25.3886 14.9561 24.9752 13.9382 24.9752C11.9142 24.9752 10.2509 26.6385 10.2509 28.6624C10.2509 29.3213 10.4562 29.8647 10.7283 30.3579L8.6377 29.0904L8.14387 20.1685C8.03552 18.2182 6.4822 16.5471 4.45658 16.5471ZM45.5435 16.5471C43.5179 16.5471 41.9646 18.2182 41.8562 20.1685L41.3624 29.0904L39.2719 30.3579C39.5439 29.8647 39.7492 29.3213 39.7492 28.6624C39.7492 26.6385 38.0859 24.9752 36.0619 24.9752C35.044 24.9752 34.1116 25.3886 33.4446 26.0616C33.4334 26.0723 33.4224 26.0833 33.4117 26.0945L28.424 31.6419C28.2517 31.8372 28.1579 32.0894 28.1606 32.3497V42.8849C28.1606 43.1643 28.2716 43.4322 28.4692 43.6298C28.6668 43.8273 28.9347 43.9383 29.2141 43.9384H40.8027C41.0821 43.9383 41.3501 43.8273 41.5476 43.6298C41.7452 43.4322 41.8562 43.1643 41.8562 42.8849V39.642L48.9016 33.1069C49.0046 33.0094 49.0869 32.8921 49.1435 32.7619C49.2001 32.6318 49.2298 32.4916 49.2308 32.3497V20.2344C49.2308 18.2098 47.5681 16.5471 45.5435 16.5471ZM4.45658 18.6541C5.34919 18.6541 5.98332 19.3203 6.03685 20.2837L6.5636 29.7653C6.57406 29.9362 6.626 30.1019 6.71491 30.2482C6.80382 30.3945 6.92704 30.5169 7.0739 30.6049L14.9752 35.3457C15.1905 35.4734 15.4442 35.5203 15.6909 35.478C15.9376 35.4357 16.1612 35.307 16.3216 35.1149C16.482 34.9227 16.5688 34.6798 16.5664 34.4295C16.564 34.1792 16.4726 33.938 16.3086 33.7489L12.9176 29.8806H12.9341C12.5646 29.4511 12.3579 29.0727 12.3579 28.6624C12.3579 27.7772 13.053 27.0822 13.9382 27.0822C14.3834 27.0822 14.77 27.253 15.0575 27.5431L19.7325 32.7448V41.8313H10.2509V39.1976C10.2521 39.0529 10.2234 38.9096 10.1668 38.7765C10.1102 38.6434 10.0267 38.5233 9.92167 38.4239L2.87631 31.8888V20.2344C2.87631 19.3407 3.56289 18.6541 4.45658 18.6541ZM45.5435 18.6541C46.4372 18.6541 47.1238 19.3407 47.1238 20.2344V31.8888L40.0784 38.4239C39.9734 38.5233 39.89 38.6434 39.8333 38.7765C39.7767 38.9096 39.748 39.0529 39.7492 39.1976V41.8313H30.2676V32.7448L34.9426 27.5431C35.2301 27.253 35.6167 27.0822 36.0619 27.0822C36.9472 27.0822 37.6422 27.7772 37.6422 28.6624C37.6422 29.0727 37.4355 29.4511 37.0661 29.8806H37.0825L33.6915 33.7489C33.5275 33.938 33.4361 34.1792 33.4337 34.4295C33.4313 34.6798 33.5181 34.9227 33.6785 35.1149C33.839 35.307 34.0625 35.4357 34.3092 35.478C34.5559 35.5203 34.8096 35.4734 35.0249 35.3457L42.9262 30.6049C43.0731 30.5169 43.1963 30.3945 43.2852 30.2482C43.3741 30.1019 43.4261 29.9362 43.4365 29.7653L43.9633 20.2837C44.0168 19.3203 44.6509 18.6541 45.5435 18.6541Z"/>
</mask>
<path d="M18.6296 0.744385C15.7563 0.744385 13.3604 1.5406 11.6995 3.16417C10.0385 4.78774 9.19738 7.16258 9.19738 9.97907C9.19738 12.1101 10.26 14.1705 11.7159 16.1026C13.1719 18.0348 15.0697 19.8563 16.9506 21.4525C20.7123 24.6448 24.4568 26.9176 24.4568 26.9176C24.6208 27.0163 24.8086 27.0684 25.0001 27.0684C25.1915 27.0684 25.3793 27.0163 25.5433 26.9176C25.5433 26.9176 29.2878 24.6448 33.0495 21.4525C34.9304 19.8563 36.8282 18.0348 38.2842 16.1026C39.7402 14.1705 40.8027 12.1101 40.8027 9.97907C40.8027 7.16258 39.9616 4.78774 38.3006 3.16417C36.6397 1.5406 34.2438 0.744385 31.3705 0.744385C28.3644 0.744385 26.2167 2.26039 25.0001 3.42755C23.7835 2.26039 21.6357 0.744385 18.6296 0.744385ZM18.6296 2.85141C21.5092 2.85141 23.5548 4.84831 24.1935 5.61688C24.2924 5.73455 24.4158 5.82917 24.5551 5.89408C24.6945 5.95898 24.8463 5.99262 25.0001 5.99262C25.1538 5.99262 25.3056 5.95898 25.445 5.89408C25.5843 5.82917 25.7078 5.73455 25.8067 5.61688C26.4453 4.84831 28.4909 2.85141 31.3705 2.85141C33.8559 2.85141 35.6461 3.51589 36.8356 4.67859C38.0251 5.8413 38.6957 7.56858 38.6957 9.97907C38.6957 11.3761 37.9146 13.0973 36.6051 14.8351C35.2957 16.5729 33.5061 18.3063 31.6997 19.8393C28.5225 22.5356 25.7229 24.309 25.0001 24.7612C24.2772 24.309 21.4776 22.5356 18.3004 19.8393C16.494 18.3063 14.7045 16.5729 13.395 14.8351C12.0855 13.0973 11.3044 11.3761 11.3044 9.97907C11.3044 7.56858 11.975 5.8413 13.1645 4.67859C14.354 3.51589 16.1442 2.85141 18.6296 2.85141ZM4.45658 16.5471C2.43204 16.5471 0.769287 18.2098 0.769287 20.2344V32.3497C0.770352 32.4916 0.800061 32.6318 0.856634 32.7619C0.913206 32.8921 0.995476 33.0094 1.09851 33.1069L8.14387 39.642V42.8849C8.1439 43.1643 8.2549 43.4322 8.45247 43.6298C8.65003 43.8273 8.91798 43.9383 9.19738 43.9384H20.786C21.0654 43.9383 21.3334 43.8273 21.5309 43.6298C21.7285 43.4322 21.8395 43.1643 21.8395 42.8849V32.3497C21.8422 32.0894 21.7484 31.8372 21.5761 31.6419L16.5884 26.0945C16.5777 26.0833 16.5667 26.0723 16.5555 26.0616C15.8885 25.3886 14.9561 24.9752 13.9382 24.9752C11.9142 24.9752 10.2509 26.6385 10.2509 28.6624C10.2509 29.3213 10.4562 29.8647 10.7283 30.3579L8.6377 29.0904L8.14387 20.1685C8.03552 18.2182 6.4822 16.5471 4.45658 16.5471ZM45.5435 16.5471C43.5179 16.5471 41.9646 18.2182 41.8562 20.1685L41.3624 29.0904L39.2719 30.3579C39.5439 29.8647 39.7492 29.3213 39.7492 28.6624C39.7492 26.6385 38.0859 24.9752 36.0619 24.9752C35.044 24.9752 34.1116 25.3886 33.4446 26.0616C33.4334 26.0723 33.4224 26.0833 33.4117 26.0945L28.424 31.6419C28.2517 31.8372 28.1579 32.0894 28.1606 32.3497V42.8849C28.1606 43.1643 28.2716 43.4322 28.4692 43.6298C28.6668 43.8273 28.9347 43.9383 29.2141 43.9384H40.8027C41.0821 43.9383 41.3501 43.8273 41.5476 43.6298C41.7452 43.4322 41.8562 43.1643 41.8562 42.8849V39.642L48.9016 33.1069C49.0046 33.0094 49.0869 32.8921 49.1435 32.7619C49.2001 32.6318 49.2298 32.4916 49.2308 32.3497V20.2344C49.2308 18.2098 47.5681 16.5471 45.5435 16.5471ZM4.45658 18.6541C5.34919 18.6541 5.98332 19.3203 6.03685 20.2837L6.5636 29.7653C6.57406 29.9362 6.626 30.1019 6.71491 30.2482C6.80382 30.3945 6.92704 30.5169 7.0739 30.6049L14.9752 35.3457C15.1905 35.4734 15.4442 35.5203 15.6909 35.478C15.9376 35.4357 16.1612 35.307 16.3216 35.1149C16.482 34.9227 16.5688 34.6798 16.5664 34.4295C16.564 34.1792 16.4726 33.938 16.3086 33.7489L12.9176 29.8806H12.9341C12.5646 29.4511 12.3579 29.0727 12.3579 28.6624C12.3579 27.7772 13.053 27.0822 13.9382 27.0822C14.3834 27.0822 14.77 27.253 15.0575 27.5431L19.7325 32.7448V41.8313H10.2509V39.1976C10.2521 39.0529 10.2234 38.9096 10.1668 38.7765C10.1102 38.6434 10.0267 38.5233 9.92167 38.4239L2.87631 31.8888V20.2344C2.87631 19.3407 3.56289 18.6541 4.45658 18.6541ZM45.5435 18.6541C46.4372 18.6541 47.1238 19.3407 47.1238 20.2344V31.8888L40.0784 38.4239C39.9734 38.5233 39.89 38.6434 39.8333 38.7765C39.7767 38.9096 39.748 39.0529 39.7492 39.1976V41.8313H30.2676V32.7448L34.9426 27.5431C35.2301 27.253 35.6167 27.0822 36.0619 27.0822C36.9472 27.0822 37.6422 27.7772 37.6422 28.6624C37.6422 29.0727 37.4355 29.4511 37.0661 29.8806H37.0825L33.6915 33.7489C33.5275 33.938 33.4361 34.1792 33.4337 34.4295C33.4313 34.6798 33.5181 34.9227 33.6785 35.1149C33.839 35.307 34.0625 35.4357 34.3092 35.478C34.5559 35.5203 34.8096 35.4734 35.0249 35.3457L42.9262 30.6049C43.0731 30.5169 43.1963 30.3945 43.2852 30.2482C43.3741 30.1019 43.4261 29.9362 43.4365 29.7653L43.9633 20.2837C44.0168 19.3203 44.6509 18.6541 45.5435 18.6541Z" fill="#0A63AF" stroke="#0A63AF" stroke-width="2" mask="url(#path-1-inside-1)"/>
</svg>
