<svg width="50" height="50" viewBox="0 0 50 50" fill="none" xmlns="http://www.w3.org/2000/svg">
<circle cx="25" cy="25" r="25" fill="white"/>
<g clip-path="url(#clip0)">
<path d="M36.7656 14.2513L39.5484 18.6977C39.5484 18.6977 38.7619 25.1104 35.3741 30.7063C31.0184 37.9658 25.4527 40.5974 25.4527 40.5974C25.4527 40.5974 19.7963 37.6331 15.6826 31.3717C12.0528 25.9271 11.2058 18.6977 11.2058 18.6977L13.9887 14.2513H36.7656ZM37.552 12.8296H36.7656H13.9887H13.2022L12.7787 13.4951L9.99589 17.9718L9.75391 18.365L9.8144 18.849C9.84465 19.212 10.7218 26.4715 14.5029 32.1582C18.7679 38.6313 24.5755 41.7166 24.8175 41.8376L25.4527 42.1703L26.0879 41.8679C26.3299 41.7469 32.1073 38.964 36.6446 31.4625C40.1533 25.6548 40.9701 19.1817 41.0003 18.849L41.0608 18.365L40.7886 17.9415L37.9452 13.4951L37.552 12.8296Z" fill="#217DDA"/>
<path d="M32.1679 21.2083L35.102 25.0196C35.7977 22.9022 36.4329 20.8151 36.6446 19.5144L35.0112 16.9433H15.8339L14.2307 19.3934C14.4425 20.6941 14.8659 22.8417 15.5919 25.1104L18.526 21.2083H23.2144L21.7625 33.1564C22.7305 34.4873 24.5151 35.9392 25.483 36.6047C26.693 35.8182 28.4171 34.3663 29.2943 33.1261C29.0523 30.3735 27.7819 21.2083 27.7819 21.2083H32.1679Z" fill="#217DDA"/>
</g>
<defs>
<clipPath id="clip0">
<rect width="31.2464" height="29.3408" fill="white" transform="translate(9.75391 12.8296)"/>
</clipPath>
</defs>
</svg>
