<svg width="40" height="36" viewBox="0 0 40 36" fill="none" xmlns="http://www.w3.org/2000/svg">
<path d="M31.76 0H1.588C0.710907 0 0 0.711768 0 1.58973V26.4648C0 27.3429 0.710907 28.0546 1.588 28.0546H24.1343L22.3895 26.0291H18.2223V23.4853H20.4056L20.3899 23.466C19.8328 22.8295 19.4642 22.1718 19.2868 21.5387H3.81119V6.51573H29.5367V21.5387H26.0849C26.6089 22.0959 27.1571 22.6603 27.6174 23.117C27.94 22.8145 28.3205 22.4798 28.7469 22.1448C30.1997 21.003 31.6129 20.3047 32.9471 20.0695C33.0812 20.0459 33.215 20.0283 33.3482 20.0139V1.58973C33.348 0.711768 32.6371 0 31.76 0ZM11.0763 23.4853H15.1257V26.0289H11.0763V23.4853ZM3.93025 23.4853H7.97972V26.0289H3.93025V23.4853ZM7.97972 4.56905H3.93025V2.02548H7.97972V4.56905ZM15.1257 4.56905H11.0763V2.02548H15.1257V4.56905ZM22.2717 4.56905H18.2223V2.02548H22.2717V4.56905ZM29.4177 4.56905H25.3683V2.02548H29.4177V4.56905Z" fill="#1D70B7"/>
<path d="M39.8846 28.1832C39.4902 26.055 38.1372 24.0875 37.3658 23.1038C36.3194 21.7693 34.991 21.2333 33.4182 21.5108C32.2949 21.7088 31.0742 22.321 29.7897 23.3305C28.8822 24.044 28.1967 24.7579 27.8937 25.0903C27.132 24.4335 25.0052 22.2396 23.961 21.0025C23.4366 20.3813 22.0842 19.0601 21.0751 19.9721C19.9889 21.0291 21.58 22.7559 21.6212 22.806L28.0042 30.6278C27.9784 30.6624 27.9495 30.6924 27.9166 30.7185C27.3043 31.1998 25.518 30.3155 24.7969 29.8381C24.1377 29.4019 23.0279 29.4053 22.4675 29.8455C22.2433 30.0219 22.119 30.2616 22.1177 30.5204C22.1159 30.8932 22.3594 31.2783 22.8406 31.6644C22.8461 31.6688 22.8558 31.6772 22.8697 31.6892C23.581 32.2994 25.5105 33.8188 28.0582 34.7542C29.6914 35.3539 31.2826 35.601 32.7882 35.489C34.6555 35.3497 36.3953 34.6561 37.9596 33.4267C39.6373 32.1073 40.2851 30.3431 39.8846 28.1832Z" fill="#1D70B7"/>
<path d="M15.1064 8.68536C14.8622 8.48024 14.5215 8.43573 14.2324 8.57064C13.9435 8.70555 13.7588 8.99583 13.7588 9.31498V17.9797C13.7588 18.2989 13.9434 18.5891 14.2324 18.7239C14.3432 18.7758 14.4616 18.801 14.5793 18.801C14.7685 18.801 14.9558 18.7354 15.1064 18.6091L20.2707 14.2768C20.4568 14.1207 20.5643 13.89 20.5643 13.6471C20.5643 13.4042 20.4568 13.1735 20.2707 13.0175L15.1064 8.68536Z" fill="#1D70B7"/>
</svg>
