<svg width="25" height="16" viewBox="0 0 25 16" fill="none" xmlns="http://www.w3.org/2000/svg">
<path d="M10.629 3.99658C11.756 3.99658 12.6692 4.90981 12.6692 6.03546C12.6692 7.16182 11.756 8.07394 10.629 8.07394C9.50387 8.07394 8.59056 7.1619 8.59056 6.03546C8.59056 4.91028 9.50387 3.99658 10.629 3.99658Z" fill="white"/>
<path d="M0.195473 7.68812C3.82929 2.58695 7.8413 0 12.1203 0C19.341 0 24.4845 7.38872 24.7006 7.70354C24.9691 8.09453 24.9412 8.6178 24.6328 8.97865C20.6702 13.638 16.5101 16 12.269 16C5.04239 16 0.373474 9.17439 0.179253 8.88413C-0.0652905 8.52089 -0.0594864 8.04492 0.195473 7.68812ZM12.4426 13.0598C15.2372 13.0598 17.5025 10.7947 17.5025 8C17.5025 5.20515 15.2371 2.9397 12.4426 2.9397C9.64771 2.9397 7.3825 5.20515 7.3825 8C7.38242 10.7947 9.64763 13.0598 12.4426 13.0598Z" fill="white"/>
</svg>
