<svg width="50" height="50" viewBox="0 0 50 50" fill="none" xmlns="http://www.w3.org/2000/svg">
<circle cx="25" cy="25" r="25" fill="white"/>
<path d="M24.093 32.4355H25.6624C25.6624 32.4355 26.1364 32.3832 26.3788 32.122C26.6012 31.8822 26.5951 31.4319 26.5951 31.4319C26.5951 31.4319 26.5644 29.3233 27.5416 29.0129C28.5049 28.707 29.7414 31.0508 31.053 31.9529C32.044 32.6353 32.7972 32.4862 32.7972 32.4862L36.3024 32.437C36.3024 32.437 38.1356 32.3233 37.2658 30.8802C37.1952 30.7618 36.7596 29.812 34.6595 27.8587C32.4612 25.8146 32.7557 26.145 35.4035 22.6102C37.0158 20.457 37.6601 19.143 37.4591 18.5805C37.2674 18.0441 36.0815 18.1855 36.0815 18.1855L32.1345 18.2101C32.1345 18.2101 31.8415 18.1702 31.6252 18.3008C31.4135 18.4284 31.2769 18.725 31.2769 18.725C31.2769 18.725 30.6526 20.391 29.8196 21.808C28.0616 24.7972 27.359 24.9555 27.0721 24.7695C26.4033 24.3361 26.5705 23.0313 26.5705 22.1046C26.5705 19.2076 27.0092 17.9996 25.7161 17.686C25.2865 17.5831 24.9705 17.5139 23.8737 17.5031C22.4654 17.4893 21.2735 17.5078 20.5985 17.8382C20.149 18.058 19.8039 18.5498 20.014 18.5774C20.2748 18.6128 20.8654 18.7373 21.1784 19.1645C21.5834 19.7163 21.568 20.9535 21.568 20.9535C21.568 20.9535 21.8012 24.3638 21.025 24.788C20.4927 25.0784 19.764 24.4852 18.1962 21.7726C17.3939 20.3833 16.788 18.8479 16.788 18.8479C16.788 18.8479 16.6714 18.5605 16.4627 18.4068C16.2096 18.2209 15.8568 18.1625 15.8568 18.1625L12.1061 18.1871C12.1061 18.1871 11.5431 18.2024 11.336 18.4483C11.1519 18.6666 11.3207 19.1184 11.3207 19.1184C11.3207 19.1184 14.2568 26.0006 17.5811 29.4678C20.6323 32.6445 24.093 32.4355 24.093 32.4355Z" fill="#217DDA"/>
</svg>
