<svg width="19" height="33" viewBox="0 0 19 33" fill="none" xmlns="http://www.w3.org/2000/svg">
<path d="M9.5 32.4266C14.7379 32.4266 19 28.1011 19 22.8633C19 17.6254 14.7379 13.3633 9.5 13.3633C4.26214 13.3633 0 17.6254 0 22.8633C0 28.1011 4.26214 32.4266 9.5 32.4266ZM13.3 26.6633H11.4V24.7633H13.3V26.6633ZM11.6783 19.3416L13.0217 20.685L7.32168 26.385L5.97832 25.0416L11.6783 19.3416ZM5.7 19.0633H7.6V20.9633H5.7V19.0633Z" fill="#0047D0"/>
<path d="M6.6498 11.8384C7.56245 11.6021 8.51418 11.4633 9.4998 11.4633C10.4854 11.4633 11.4372 11.6024 12.3498 11.8384V7.66333H15.1998L9.4998 0L3.7998 7.66333H6.6498V11.8384Z" fill="#0047D0"/>
</svg>
