<svg width="24" height="20" viewBox="0 0 24 20" fill="none" xmlns="http://www.w3.org/2000/svg">
<path d="M14.0983 3.32213C15.1617 3.98891 15.9074 5.11724 16.0432 6.42697C16.4769 6.62961 16.9583 6.74615 17.4686 6.74615C19.3317 6.74615 20.8418 5.23607 20.8418 3.37322C20.8418 1.51008 19.3317 0 17.4686 0C15.6233 0.000574067 14.1264 1.48368 14.0983 3.32213ZM11.8884 10.2287C13.7515 10.2287 15.2616 8.71836 15.2616 6.85551C15.2616 4.99266 13.7512 3.48258 11.8884 3.48258C10.0255 3.48258 8.5146 4.99295 8.5146 6.8558C8.5146 8.71865 10.0255 10.2287 11.8884 10.2287ZM13.3193 10.4586H10.457C8.07543 10.4586 6.13796 12.3964 6.13796 14.7779V18.2783L6.14685 18.3331L6.38796 18.4086C8.6607 19.1187 10.6352 19.3555 12.2604 19.3555C15.4347 19.3555 17.2746 18.4505 17.388 18.3928L17.6133 18.2789H17.6374V14.7779C17.6382 12.3964 15.7008 10.4586 13.3193 10.4586ZM18.9 6.97635H16.0598C16.0291 8.11272 15.544 9.13599 14.7768 9.87195C16.8937 10.5014 18.4425 12.4644 18.4425 14.7831V15.8618C21.2468 15.759 22.8628 14.9642 22.9693 14.9108L23.1946 14.7966H23.2188V11.2951C23.2188 8.91383 21.2813 6.97635 18.9 6.97635ZM5.96947 6.74672C6.62936 6.74672 7.24332 6.55412 7.76343 6.22605C7.92876 5.14766 8.50685 4.20533 9.33264 3.56352C9.33609 3.50037 9.34211 3.4378 9.34211 3.37408C9.34211 1.51095 7.83174 0.000861038 5.96947 0.000861038C4.10605 0.000861038 2.59625 1.51095 2.59625 3.37408C2.59625 5.23635 4.10605 6.74672 5.96947 6.74672ZM8.99882 9.87195C8.23531 9.13972 7.75195 8.1219 7.71664 6.99243C7.6113 6.98468 7.50711 6.97635 7.39976 6.97635H4.53774C2.15623 6.97635 0.21875 8.91383 0.21875 11.2951V14.796L0.227648 14.85L0.468756 14.926C2.29199 15.4952 3.91919 15.7576 5.33254 15.8402V14.7831C5.33311 12.4644 6.88137 10.502 8.99882 9.87195Z" fill="#5F4A4A"/>
</svg>
