<svg width="25" height="23" viewBox="0 0 25 23" fill="none" xmlns="http://www.w3.org/2000/svg">
<path fill-rule="evenodd" clip-rule="evenodd" d="M1.81795 0H22.9367C23.9391 0 24.7565 0.815539 24.7565 1.81795V16.6462C24.7565 17.6486 23.94 18.4641 22.9367 18.4641H19.9639V20.4239C19.9639 21.5375 19.2471 22.0454 18.5811 22.0454C18.2226 22.0454 17.8633 21.9132 17.5135 21.6515L13.248 18.4651H1.81795C0.813625 18.4651 3.64901e-06 17.6496 3.64901e-06 16.6471V1.81891C-0.000954681 1.33495 0.186878 0.87783 0.52996 0.534748C0.874 0.189749 1.33112 0 1.81795 0ZM16.2404 5.27492C14.6257 5.27492 13.3507 6.5841 13.3507 8.19881C13.3507 9.81351 14.6769 11.1227 16.2916 11.1227C16.3003 11.1227 16.3115 11.122 16.3225 11.1214C16.3318 11.1209 16.3409 11.1204 16.3482 11.1202C15.7098 11.6286 14.9079 11.935 14.0302 11.935C13.6264 11.935 13.3014 12.2624 13.3014 12.6659C13.3014 13.0695 13.5612 13.3969 13.9651 13.3969C16.8312 13.3966 19.0958 11.0649 19.0958 8.19881V8.19689C19.0958 6.583 17.8545 5.27492 16.2404 5.27492ZM6.50005 8.1988C6.50005 6.58409 7.7772 5.27492 9.39191 5.27492C11.0061 5.27492 12.2515 6.583 12.2515 8.19689V8.1988C12.2515 11.0649 9.98271 13.3966 7.11659 13.3969C6.71277 13.3969 6.44886 13.0695 6.44886 12.6659C6.44886 12.2624 6.7741 11.935 7.17791 11.935C8.05563 11.935 8.85778 11.6286 9.49621 11.1202C9.48883 11.1203 9.47984 11.1209 9.47071 11.1214C9.45988 11.122 9.44886 11.1227 9.44009 11.1227C7.82511 11.1227 6.50005 9.81351 6.50005 8.1988Z" fill="#0047D0"/>
</svg>
