<?xml version="1.0"?>
<svg xmlns="http://www.w3.org/2000/svg" height="512px" viewBox="0 0 512 512.09455" width="512px"><path d="m119.515625 221.875c28.277344 0 51.199219-22.925781 51.199219-51.203125s-22.921875-51.199219-51.199219-51.199219-51.203125 22.921875-51.203125 51.199219c.03125 28.265625 22.9375 51.171875 51.203125 51.203125zm0-85.335938c18.851563 0 34.132813 15.28125 34.132813 34.132813s-15.28125 34.136719-34.132813 34.136719-34.136719-15.285156-34.136719-34.136719 15.285156-34.132813 34.136719-34.132813zm0 0" fill="#ffffff"/><path d="m230.449219 162.140625c28.273437 0 51.199219-22.921875 51.199219-51.199219s-22.925782-51.203125-51.199219-51.203125c-28.277344 0-51.203125 22.925781-51.203125 51.203125.03125 28.265625 22.9375 51.171875 51.203125 51.199219zm0-85.332031c18.847656 0 34.132812 15.28125 34.132812 34.132812 0 18.851563-15.285156 34.132813-34.132812 34.132813-18.851563 0-34.136719-15.28125-34.136719-34.132813 0-18.851562 15.285156-34.132812 34.136719-34.132812zm0 0" fill="#ffffff"/><path d="m223.007812 346.742188c-3.152343-3.503907-8.546874-3.789063-12.050781-.640626-4.703125 4.214844-6.210937 5.488282-9.027343 7.851563l-5.121094 4.265625c-2.726563 2.316406-3.71875 6.085938-2.484375 9.445312 1.234375 3.355469 4.429687 5.589844 8.007812 5.589844 2.023438.007813 3.980469-.714844 5.519531-2.03125l5.015626-4.265625c2.953124-2.472656 4.550781-3.804687 9.464843-8.234375 3.46875-3.136718 3.769531-8.476562.675781-11.980468zm0 0" fill="#ffffff"/><path d="m168.152344 382.574219c-42.578125 34.746093-81.703125 62.796875-82.097656 63.078125-2.539063 1.75-3.933594 4.734375-3.652344 7.804687.28125 3.074219 2.199218 5.753907 5.015625 7.011719 2.816406 1.257812 6.09375.898438 8.570312-.941406.390625-.28125 39.933594-28.628906 82.953125-63.734375 3.5-3.019531 3.960938-8.277344 1.039063-11.859375-2.921875-3.582032-8.167969-4.1875-11.828125-1.359375zm0 0" fill="#ffffff"/><path d="m499.121094.960938c-7.507813-2.570313-15.8125.140624-20.355469 6.648437-23.464844 33.492187-52.195313 43.324219-79.980469 52.832031-7.953125 2.71875-15.726562 5.410156-23.238281 8.53125-92.164063-64.914062-217.234375-56.234375-299.554687 20.789063-48.371094 45.265625-75.859376 108.527343-75.945313 174.777343-.05078125 45.46875 12.984375 89.988282 37.546875 128.25-22.3125 31.640626-35.738281 60.335938-36.839844 81.371094-1.042968 9.695313 1.90625 19.394532 8.167969 26.863282 7.640625 7.71875 18.265625 11.726562 29.097656 10.984374 24.269531 0 57.449219-13.484374 92.707031-34.5625 2.363282 1.230469 4.71875 2.5 7.101563 3.601563 10.066406 4.757813 21.066406 7.21875 32.203125 7.210937 42.882812-.164062 77.539062-35.003906 77.484375-77.882812-.085937-13.648438 4.535156-26.90625 13.078125-37.546875.234375-.230469.445312-.480469.640625-.742187.144531-.179688.324219-.359376.46875-.539063 1.640625-1.707031 3.195313-3.414063 4.789063-5.117187.425781-.402344.792968-.804688 1.246093-1.203126 11.058594-9.933593 25.414063-15.402343 40.277344-15.351562h92.074219c41.09375.226562 75.15625-31.792969 77.464844-72.824219 1.488281-26.5625-1.566407-53.183593-9.027344-78.722656 25.378906-34.132813 39.808594-94.417969 42.898437-179.683594.316407-7.984375-4.710937-15.207031-12.304687-17.683593zm-120.195313 234.292968c3.144531 3.503906 2.859375 8.890625-.636719 12.039063l-2.621093 2.363281c-3.527344 3.167969-8.953125 2.886719-12.132813-.628906l-65.589844-72.628906c-3.144531-3.5-2.863281-8.886719.632813-12.039063l2.636719-2.363281c3.53125-3.15625 8.949218-2.875 12.132812.628906zm-56.128906 25.019532-40.277344-44.628907c-3.152343-3.503906-2.863281-8.898437.636719-12.050781l2.621094-2.355469c3.527344-3.164062 8.953125-2.882812 12.132812.632813l40.289063 44.621094c3.144531 3.496093 2.867187 8.875-.617188 12.03125l-2.652343 2.363281c-3.527344 3.167969-8.945313 2.890625-12.132813-.613281zm73.648437-180.90625c-7.867187 53.964843-46.769531 62.589843-62.003906 63.871093 1.195313-16.164062 8.546875-31.25 20.542969-42.152343 12.234375-9.945313 26.328125-17.347657 41.460937-21.769532zm-60.894531 82.441406c-.109375-.53125-.167969-1.050782-.261719-1.578125 18.523438-1.367188 36.09375-8.742188 50.046876-21.003907 17.835937-17.453124 28.207031-41.144531 28.9375-66.089843 11.15625-3.785157 21.980468-8.488281 32.367187-14.054688.136719 99.925781-72.363281 121.175781-90.992187 124.9375zm-318.4375 102.730468c.097657-61.527343 25.640625-120.273437 70.570313-162.304687 73.898437-69.105469 185.289062-79.207031 270.414062-24.523437-5.160156 3.074218-10.019531 6.628906-14.507812 10.625-16.074219 14.527343-25.609375 34.925781-26.453125 56.574218-9.179688-3.984375-19.839844-2.265625-27.304688 4.394532l-2.636719 2.355468c-9.082031 8.160156-11.140624 21.59375-4.917968 32.09375-2.898438 1.089844-5.574219 2.703125-7.890625 4.753906l-2.621094 2.363282c-3.667969 3.289062-6.296875 7.574218-7.570313 12.332031-43.558593 19.601563-84.015624 45.476563-120.078124 76.800781-4.96875-24.839844-27.351563-42.3125-52.652344-41.101562-25.300782 1.207031-45.914063 20.738281-48.488282 45.9375-2.574218 25.199218 13.664063 48.492187 38.195313 54.792968-12.003906 12.988282-22.960937 25.863282-32.636719 38.402344-20.597656-34.273437-31.460937-73.511718-31.421875-113.496094zm79.003907 59.546876c-.734376.058593-1.445313.1875-2.203126.1875-18.851562 0-34.132812-15.28125-34.132812-34.132813s15.28125-34.132813 34.132812-34.132813c18.851563 0 34.132813 15.28125 34.132813 34.132813-.042969 1.382813-.183594 2.765625-.417969 4.128906-.851562.761719-1.707031 1.460938-2.558594 2.226563-10.128906 9.097656-19.773437 18.332031-28.953124 27.589844zm-74.53125 165.546874c-3.125-4.148437-4.488282-9.359374-3.789063-14.507812 1.929687-36.632812 50.722656-104.832031 118.671875-165.863281 38.417969-35.8125 82.078125-65.554688 129.46875-88.191407 1.019531 2.164063 2.332031 4.175782 3.910156 5.972657l40.285156 44.632812c1.371094 1.492188 2.914063 2.816407 4.597657 3.949219-17.042969 28.488281-37.292969 54.929688-60.347657 78.8125-1.941406 1.835938-3.773437 3.789062-5.476562 5.847656-11.09375 11.511719-22.894531 22.988282-35.371094 34.199219-87.816406 78.847656-173.765625 115.242187-191.949218 95.113281zm148.480468-18.382812c-7.617187-.019531-15.152344-1.53125-22.1875-4.453125 27.136719-17.910156 52.894532-37.824219 77.054688-59.578125 2.066406-1.863281 4.019531-3.765625 6.058594-5.632812-.34375 2.917968-.527344 5.851562-.542969 8.789062.078125 33.46875-26.949219 60.6875-60.417969 60.84375zm290.449219-195.113281c-1.835937 31.96875-28.40625 56.886719-60.425781 56.671875h-92.074219c-4.40625.011718-8.800781.398437-13.140625 1.148437 13.945312-16.886719 26.367188-34.976562 37.117188-54.058593 5.339843-.527344 10.371093-2.734376 14.371093-6.304688l2.664063-2.371094c2.304687-2.097656 4.207031-4.59375 5.613281-7.375 9.78125 7.300782 23.351563 6.683594 32.425781-1.476562l2.621094-2.363282c7.589844-6.78125 10.40625-17.4375 7.160156-27.082031 1.613282.09375 3.234375.203125 4.839844.203125 19.539062.054688 38.433594-6.976562 53.1875-19.789062 2.839844 11.851562 4.679688 23.921875 5.503906 36.078125.582032 8.894531.628906 17.816406.136719 26.71875zm-16.214844-76.226563c-17.125 15.082032-40.945312 19.996094-62.644531 12.925782l-13.234375-14.660157c31.234375-9.515625 100.105469-42.863281 94.984375-150 11.335938-8.65625 21.242188-19.039062 29.355469-30.769531.164062-.230469.300781-.46875.929687-.265625.632813.207031.667969.605469.65625.855469-3.359375 92.621094-20.65625 155.519531-50.046875 181.914062zm0 0" fill="#ffffff"/></svg>
