<svg width="80" height="80" viewBox="0 0 80 80" fill="none" xmlns="http://www.w3.org/2000/svg">
<path d="M36.8858 49.5422C37.1764 49.2516 37.3438 48.8484 37.3438 48.4375C37.3438 48.0266 37.1766 47.6234 36.8858 47.3328C36.5953 47.0422 36.1922 46.875 35.7812 46.875C35.3703 46.875 34.9672 47.0422 34.6766 47.3328C34.3859 47.6234 34.2188 48.0266 34.2188 48.4375C34.2188 48.8484 34.3858 49.2516 34.6766 49.5422C34.9673 49.8328 35.3703 50 35.7812 50C36.1922 50 36.5953 49.8328 36.8858 49.5422Z" fill="#217DDA"/>
<path d="M70.5859 65.4256V65.1562C70.5859 63.7491 71.7308 62.6042 73.138 62.6042H74.323C77.4533 62.6042 80 60.0575 80 56.9272C80 53.7969 77.4533 51.25 74.323 51.25H70.9441C71.3386 50.4752 71.5625 49.5994 71.5625 48.6719V24.6875C71.5625 23.8245 70.8628 23.125 70 23.125C69.1372 23.125 68.4375 23.8245 68.4375 24.6875V42.5H3.125V5.70312C3.125 4.28156 4.28141 3.125 5.70312 3.125H65.8594C67.2811 3.125 68.4375 4.28156 68.4375 5.70312V12.1875C68.4375 13.0505 69.1372 13.75 70 13.75C70.8628 13.75 71.5625 13.0505 71.5625 12.1875V5.70312C71.5625 2.55844 69.0041 0 65.8594 0H5.70312C2.55844 0 0 2.55844 0 5.70312V48.6719C0 51.8166 2.55844 54.375 5.70312 54.375H7.5C8.36281 54.375 9.0625 53.6755 9.0625 52.8125C9.0625 51.9495 8.36281 51.25 7.5 51.25H5.70312C4.28141 51.25 3.125 50.0934 3.125 48.6719V45.625H68.4375V48.6719C68.4375 50.0934 67.2809 51.25 65.8594 51.25H43.9062H27.6562H20C19.1372 51.25 18.4375 51.9495 18.4375 52.8125C18.4375 53.6755 19.1372 54.375 20 54.375H26.0938V62.1875H25.2734C22.2795 62.1875 19.8438 64.6233 19.8438 67.6172V70C19.8438 70.863 20.5434 71.5625 21.4062 71.5625H50.1562C51.0191 71.5625 51.7188 70.863 51.7188 70V67.6172C51.7188 64.6233 49.283 62.1875 46.2891 62.1875H45.4688V54.375H65.8594H74.323C75.7302 54.375 76.875 55.5198 76.875 56.927C76.875 58.3342 75.7302 59.4791 74.323 59.4791H73.138C70.0077 59.4791 67.4609 62.0258 67.4609 65.1561V65.4255C62.1461 66.1866 58.0469 70.767 58.0469 76.2889C58.0469 78.3352 59.7116 79.9998 61.7578 79.9998H76.2891C78.3353 79.9998 80 78.3352 80 76.2889C80 70.7672 75.9008 66.1866 70.5859 65.4256ZM48.5938 67.6172V68.4375H22.9688V67.6172C22.9688 66.3464 24.0027 65.3125 25.2734 65.3125H27.6562H43.9062H46.2891C47.5598 65.3125 48.5938 66.3464 48.5938 67.6172ZM42.3438 62.1875H29.2188V54.375H42.3438V62.1875ZM76.2891 76.875H61.7578C61.4348 76.875 61.1719 76.6122 61.1719 76.2891C61.1719 71.9597 64.6941 68.4375 69.0234 68.4375C73.3528 68.4375 76.875 71.9597 76.875 76.2891C76.875 76.6122 76.612 76.875 76.2891 76.875Z" fill="#217DDA"/>
<path d="M29.9613 20H32.2297C33.0925 20 33.7922 19.3005 33.7922 18.4375C33.7922 17.5745 33.0925 16.875 32.2297 16.875H29.9613C28.0404 16.875 26.4775 18.4378 26.4775 20.3587V26.5163C26.4775 28.4372 28.0404 30 29.9613 30H32.2297C33.0925 30 33.7922 29.3005 33.7922 28.4375C33.7922 27.5745 33.0925 26.875 32.2297 26.875H29.9613C29.7635 26.875 29.6025 26.7141 29.6025 26.5163V25H31.6329C32.4957 25 33.1954 24.3005 33.1954 23.4375C33.1954 22.5745 32.4957 21.875 31.6329 21.875H29.6025V20.3587C29.6025 20.1609 29.7635 20 29.9613 20Z" fill="#217DDA"/>
<path d="M40.5075 26.875H37.8252C36.9624 26.875 36.2627 27.5745 36.2627 28.4375C36.2627 29.3005 36.9624 30 37.8252 30H40.5075C42.7477 30 44.57 28.1775 44.57 25.9375C44.57 23.6975 42.7477 21.875 40.5075 21.875H40.3252C39.8082 21.875 39.3877 21.4545 39.3877 20.9375C39.3877 20.4205 39.8082 20 40.3252 20H42.1241C42.9869 20 43.6866 19.3005 43.6866 18.4375C43.6866 17.5745 42.9869 16.875 42.1241 16.875H40.3252C38.085 16.875 36.2627 18.6975 36.2627 20.9375C36.2627 23.1775 38.085 25 40.3252 25H40.5075C41.0246 25 41.445 25.4205 41.445 25.9375C41.445 26.4545 41.0246 26.875 40.5075 26.875Z" fill="#217DDA"/>
<path d="M20.7422 30C21.605 30 22.3047 29.3005 22.3047 28.4375V20H23.3203C24.1831 20 24.8828 19.3005 24.8828 18.4375C24.8828 17.5745 24.1831 16.875 23.3203 16.875H18.1641C17.3013 16.875 16.6016 17.5745 16.6016 18.4375C16.6016 19.3005 17.3013 20 18.1641 20H19.1797V28.4375C19.1797 29.3005 19.8794 30 20.7422 30Z" fill="#217DDA"/>
<path d="M50.8203 30C51.6831 30 52.3828 29.3005 52.3828 28.4375V20H53.3984C54.2613 20 54.9609 19.3005 54.9609 18.4375C54.9609 17.5745 54.2613 16.875 53.3984 16.875H48.2422C47.3794 16.875 46.6797 17.5745 46.6797 18.4375C46.6797 19.3005 47.3794 20 48.2422 20H49.2578V28.4375C49.2578 29.3005 49.9575 30 50.8203 30Z" fill="#217DDA"/>
</svg>
