<svg width="25" height="27" viewBox="0 0 25 27" fill="none" xmlns="http://www.w3.org/2000/svg">
<path d="M3.64177 12.8209C3.64293 7.91799 7.61663 3.94313 12.5195 3.94313C13.8011 3.94313 15.0077 4.23435 16.1069 4.72381L14.5704 6.25119L20.842 6.27273L20.8601 0L18.8217 2.02483C16.9703 0.938217 14.8231 0.30141 12.5195 0.30141C5.6054 0.30141 0 5.90682 0 12.8209C0 15.7103 0.988067 18.3629 2.63101 20.4817L5.2303 17.8824C4.23209 16.4445 3.64177 14.7018 3.64177 12.8209Z" fill="white"/>
<path d="M22.9859 6.12891L20.1748 8.49591C21.0472 10.0131 21.4857 11.7977 21.326 13.6718C20.909 18.5577 16.61 22.1779 11.7242 21.7598C11.0489 21.702 10.4041 21.5547 9.78545 21.3564L11.2823 19.4993L5.04688 20.1678L5.71651 26.4044L7.3946 24.3228C8.63533 24.8814 9.97692 25.2678 11.4114 25.3902C18.3005 25.9806 24.3637 20.8726 24.9529 13.9845C25.2011 11.1066 24.4419 8.37924 22.9859 6.12891Z" fill="white"/>
<path fill-rule="evenodd" clip-rule="evenodd" d="M12.5793 11.1623C11.6219 11.1623 10.8458 11.9384 10.8458 12.8958C10.8458 13.8531 11.6219 14.6292 12.5793 14.6292C13.5366 14.6292 14.3127 13.8531 14.3127 12.8958C14.3127 11.9384 13.5366 11.1623 12.5793 11.1623ZM8.37695 12.8958C8.37695 10.5749 10.2584 8.69348 12.5793 8.69348C14.9001 8.69348 16.7816 10.5749 16.7816 12.8958C16.7816 15.2167 14.9001 17.0981 12.5793 17.0981C10.2584 17.0981 8.37695 15.2167 8.37695 12.8958Z" fill="white"/>
</svg>
