<svg width="40" height="41" viewBox="0 0 40 41" fill="none" xmlns="http://www.w3.org/2000/svg">
<path d="M30.0615 10.8856L31.7848 11.3169H31.7868L33.9075 11.8477L40.0002 5.74846L35.6253 5.31531L30.0615 10.8856Z" fill="#fff"/>
<path d="M28.165 6.09945L28.6939 8.21825C28.6947 8.22146 28.6956 8.22468 28.6963 8.2277L29.1263 9.94955L34.6901 4.37968L34.2574 0L28.165 6.09945Z" fill="#fff"/>
<path d="M17.2809 40.0445C26.8096 40.0445 34.5619 32.2839 34.5619 22.7447C34.5729 19.0763 33.4084 15.5012 31.2395 12.5444L28.9713 11.9772L17.7483 23.2122C17.6243 23.3363 17.4562 23.406 17.2808 23.406C17.1055 23.406 16.9374 23.3363 16.8134 23.2122C16.6894 23.0881 16.6198 22.9197 16.6198 22.7442C16.6198 22.5687 16.6894 22.4004 16.8134 22.2763L28.0362 11.0413L27.4696 8.77062C24.5162 6.59953 20.9451 5.43388 17.2809 5.4449C7.75215 5.4449 0 13.2055 0 22.7447C0 32.2839 7.75234 40.0445 17.2809 40.0445ZM17.2809 20.5704C16.8514 20.5704 16.4315 20.6979 16.0743 20.9368C15.7171 21.1757 15.4387 21.5153 15.2743 21.9126C15.11 22.3099 15.0669 22.7471 15.1508 23.1689C15.2346 23.5906 15.4414 23.9781 15.7452 24.2821C16.0489 24.5862 16.4359 24.7933 16.8572 24.8772C17.2785 24.9611 17.7152 24.918 18.1121 24.7535C18.509 24.5889 18.8482 24.3102 19.0868 23.9527C19.3255 23.5951 19.4529 23.1747 19.4529 22.7447C19.4529 22.5692 19.5225 22.4009 19.6465 22.2768C19.7704 22.1527 19.9386 22.0829 20.1139 22.0829C20.2892 22.0829 20.4573 22.1527 20.5813 22.2768C20.7053 22.4009 20.7749 22.5692 20.7749 22.7447C20.7749 23.4365 20.57 24.1127 20.1861 24.6879C19.8021 25.2632 19.2565 25.7115 18.618 25.9762C17.9796 26.2409 17.2771 26.3102 16.5993 26.1753C15.9215 26.0403 15.299 25.7072 14.8103 25.218C14.3217 24.7288 13.9889 24.1056 13.8541 23.4271C13.7193 22.7486 13.7885 22.0453 14.0529 21.4061C14.3174 20.767 14.7652 20.2207 15.3398 19.8364C15.9144 19.4521 16.5899 19.2469 17.2809 19.2469C17.4563 19.2469 17.6244 19.3166 17.7484 19.4407C17.8723 19.5648 17.942 19.7332 17.942 19.9087C17.942 20.0842 17.8723 20.2525 17.7484 20.3766C17.6244 20.5007 17.4563 20.5704 17.2809 20.5704ZM17.2809 9.79348C20.014 9.78652 22.678 10.6527 24.8854 12.2661C24.9563 12.317 25.0164 12.3814 25.0623 12.4556C25.1081 12.5298 25.1389 12.6124 25.1528 12.6986C25.1667 12.7847 25.1634 12.8728 25.1431 12.9577C25.1228 13.0426 25.086 13.1227 25.0347 13.1932C24.9834 13.2638 24.9186 13.3235 24.8442 13.369C24.7697 13.4144 24.687 13.4446 24.6009 13.4579C24.5147 13.4712 24.4267 13.4673 24.3421 13.4464C24.2574 13.4255 24.1777 13.3881 24.1076 13.3363C21.7438 11.6175 18.8198 10.8537 15.9185 11.1973C13.0173 11.5409 10.3519 12.9665 8.45397 15.1899C6.55602 17.4133 5.56489 20.2712 5.6782 23.1937C5.79151 26.1161 7.00095 28.8885 9.06535 30.9579C11.1298 33.0274 13.8975 34.2419 16.8166 34.3593C19.7357 34.4767 22.5918 33.4883 24.8154 31.5913C27.0389 29.6943 28.4666 27.028 28.8137 24.1241C29.1608 21.2201 28.4019 18.2918 26.6882 15.9232C26.5852 15.7811 26.5428 15.604 26.5704 15.4306C26.5979 15.2573 26.693 15.102 26.8349 14.9989C26.9768 14.8958 27.1538 14.8534 27.327 14.881C27.5001 14.9085 27.6552 15.0038 27.7582 15.1458C29.3633 17.3531 30.2248 20.0145 30.218 22.7447C30.218 29.886 24.4145 35.6959 17.2809 35.6959C10.1474 35.6959 4.34384 29.886 4.34384 22.7447C4.34384 15.6034 10.1474 9.79301 17.2809 9.79301V9.79348Z" fill="#fff"/>
</svg>
