<svg width="36" height="72" viewBox="0 0 36 72" fill="none" xmlns="http://www.w3.org/2000/svg">
<path d="M18.42 72C18.6 72 18.779 71.94 18.96 71.76L23.46 67.56C24.239 66.84 23.1 65.64 22.38 66.36L19.199 69.36V67.8C19.199 66.72 17.579 66.72 17.579 67.8V69.36L14.459 66.36C13.68 65.64 12.539 66.84 13.38 67.56L17.88 71.76C18 71.94 18.24 72 18.42 72ZM18.42 65.04C19.26 65.04 19.98 64.32 19.98 63.48C19.98 62.58 19.26 61.92 18.42 61.92C17.52 61.92 16.8 62.58 16.8 63.48C16.8 64.32 17.52 65.04 18.42 65.04ZM18.42 63.48H18.359C18.359 63.42 18.42 63.42 18.42 63.42C18.42 63.42 18.42 63.42 18.42 63.48ZM13.86 60.78C14.1 60.78 14.28 60.66 14.46 60.54L17.58 57.54V59.16C17.58 59.58 17.94 59.94 18.421 59.94C18.841 59.94 19.2 59.58 19.2 59.16V57.54L22.32 60.54C22.501 60.66 22.74 60.78 22.921 60.72C23.641 60.72 24.001 59.82 23.461 59.34L18.961 55.14C18.66 54.84 18.181 54.84 17.881 55.14L13.381 59.34C12.78 59.82 13.14 60.72 13.86 60.78ZM18.6 53.04C28.2 53.04 36 45.3 36 35.64V17.4C36 7.799 28.199 0 18.6 0H18.18C8.579 0 0.779999 7.8 0.779999 17.4V35.64C0.779999 45.3 8.58 53.04 18.18 53.04H18.6ZM19.2 51.42V47.76C20.94 47.4 22.32 45.84 22.32 43.98V38.58C22.32 36.72 20.94 35.16 19.2 34.8V30.54C19.2 29.46 17.58 29.46 17.58 30.54V34.8C15.841 35.16 14.52 36.72 14.52 38.58V43.98C14.52 45.84 15.84 47.4 17.58 47.76V51.42C9.12 51.12 2.4 44.22 2.4 35.64V17.4C2.4 8.639 9.42 1.62 18.18 1.62H18.6C27.36 1.62 34.38 8.64 34.38 17.4V35.64C34.38 44.22 27.66 51.12 19.2 51.42ZM18.42 46.26H18.359C17.099 46.26 16.079 45.24 16.079 43.98V38.58C16.079 37.32 17.1 36.3 18.359 36.3H18.42C19.68 36.3 20.699 37.32 20.699 38.58V43.98C20.7 45.24 19.68 46.26 18.42 46.26Z" fill="#4D4D4D"/>
</svg>
