<svg width="55" height="56" viewBox="0 0 55 56" fill="none" xmlns="http://www.w3.org/2000/svg">
<path d="M41.3345 15L43.704 15.5923H43.7067L46.6227 16.3214L55.0001 7.94406L48.9847 7.34912L41.3345 15Z" fill="#E58221"/>
<path d="M38.7271 8.42616L39.4542 11.3363C39.4553 11.3407 39.4565 11.3451 39.4575 11.3493L40.0487 13.7143L47.6989 6.06406L47.104 0.048584L38.7271 8.42616Z" fill="#E58221"/>
<path d="M23.7612 55.0495C36.8631 55.0495 47.5224 44.3903 47.5224 31.2883C47.5376 26.2498 45.9364 21.3393 42.9541 17.2783L39.8353 16.4992L24.4038 31.9303C24.2333 32.1008 24.0021 32.1966 23.7611 32.1966C23.52 32.1966 23.2888 32.1008 23.1183 31.9303C22.9479 31.7599 22.8521 31.5287 22.8521 31.2876C22.8521 31.0466 22.9479 30.8154 23.1183 30.6449L38.5496 15.2138L37.7706 12.0949C33.7096 9.11296 28.7994 7.51194 23.7612 7.52708C10.6592 7.52708 0 18.1862 0 31.2883C0 44.3903 10.6594 55.0495 23.7612 55.0495ZM23.7612 28.3019C23.1705 28.3019 22.5932 28.477 22.102 28.8052C21.6109 29.1333 21.2282 29.5997 21.0021 30.1454C20.7761 30.6911 20.717 31.2916 20.8322 31.8709C20.9474 32.4502 21.2318 32.9823 21.6495 33.4C22.0672 33.8176 22.5993 34.102 23.1786 34.2173C23.7579 34.3325 24.3583 34.2734 24.904 34.0473C25.4497 33.8213 25.9161 33.4385 26.2443 32.9474C26.5724 32.4563 26.7476 31.8789 26.7476 31.2883C26.7476 31.0472 26.8433 30.816 27.0138 30.6456C27.1842 30.4751 27.4154 30.3794 27.6565 30.3794C27.8975 30.3794 28.1287 30.4751 28.2992 30.6456C28.4696 30.816 28.5654 31.0472 28.5654 31.2883C28.5654 32.2384 28.2836 33.1673 27.7557 33.9573C27.2278 34.7474 26.4775 35.3631 25.5997 35.7268C24.7218 36.0904 23.7559 36.1855 22.8239 36.0001C21.892 35.8148 21.036 35.3572 20.3641 34.6853C19.6922 34.0135 19.2347 33.1574 19.0493 32.2255C18.864 31.2936 18.9591 30.3276 19.3227 29.4498C19.6863 28.5719 20.3021 27.8216 21.0921 27.2937C21.8822 26.7659 22.811 26.4841 23.7612 26.4841C24.0022 26.4841 24.2334 26.5799 24.4039 26.7503C24.5743 26.9208 24.6701 27.1519 24.6701 27.393C24.6701 27.6341 24.5743 27.8652 24.4039 28.0357C24.2334 28.2061 24.0022 28.3019 23.7612 28.3019ZM23.7612 13.4998C27.5192 13.4903 31.1822 14.68 34.2173 16.896C34.3147 16.9659 34.3974 17.0543 34.4604 17.1563C34.5235 17.2582 34.5659 17.3716 34.5849 17.49C34.604 17.6083 34.5995 17.7293 34.5716 17.8459C34.5438 17.9625 34.4931 18.0725 34.4226 18.1694C34.352 18.2663 34.263 18.3484 34.1606 18.4107C34.0582 18.4731 33.9445 18.5147 33.826 18.5329C33.7076 18.5512 33.5866 18.5458 33.4702 18.5171C33.3538 18.4885 33.2442 18.437 33.1478 18.3658C29.8976 16.0051 25.8771 14.9561 21.8879 15.428C17.8987 15.8999 14.2338 17.8579 11.6242 20.9118C9.01449 23.9657 7.65169 27.8909 7.80749 31.9049C7.9633 35.919 9.62626 39.7268 12.4648 42.5692C15.3034 45.4115 19.1089 47.0797 23.1227 47.2409C27.1365 47.4021 31.0636 46.0446 34.121 43.4391C37.1784 40.8336 39.1414 37.1714 39.6187 33.1828C40.096 29.1942 39.0524 25.1723 36.6961 21.919C36.5545 21.7239 36.4962 21.4805 36.5341 21.2424C36.5719 21.0044 36.7028 20.7911 36.8979 20.6495C37.093 20.5079 37.3363 20.4496 37.5744 20.4875C37.8125 20.5253 38.0258 20.6562 38.1674 20.8513C40.3744 23.8829 41.559 27.5384 41.5496 31.2883C41.5496 41.0968 33.5698 49.0767 23.7612 49.0767C13.9526 49.0767 5.97276 41.0968 5.97276 31.2883C5.97276 21.4797 13.9526 13.4992 23.7612 13.4992V13.4998Z" fill="#E58221"/>
</svg>
