<svg width="25" height="19" viewBox="0 0 25 19" fill="none" xmlns="http://www.w3.org/2000/svg">
<path d="M25 2.89051V10.4583C25 10.4583 23.3803 10.7774 23.0467 10.8193C22.7141 10.8612 21.6688 11.1987 20.9113 10.4706C19.743 9.35094 15.5923 5.22314 15.5923 5.22314C15.5923 5.22314 14.8767 4.52089 13.7276 5.12781C12.6727 5.68377 11.1091 6.49856 10.456 6.81584C9.2213 7.47299 8.19799 6.43036 8.19799 5.63616C8.19799 5.02011 8.58241 4.602 9.13192 4.29451C10.6212 3.3917 13.76 1.62982 15.0674 0.935191C15.8621 0.512539 16.4346 0.476322 17.5256 1.39542C18.8693 2.52547 20.0651 3.55554 20.0651 3.55554C20.0651 3.55554 20.4551 3.88104 21.0771 3.74994C22.6045 3.42701 25 2.89051 25 2.89051ZM8.47915 15.7134C8.68016 15.1969 8.61298 14.6193 8.2276 14.2231C7.88132 13.8686 7.37574 13.7752 6.89367 13.8857C7.0285 13.4075 6.95405 12.8986 6.6059 12.5395C6.25856 12.1859 5.75394 12.0906 5.27192 12.2021C5.40574 11.7247 5.33149 11.2158 4.98314 10.8577C4.43766 10.2982 3.49415 10.3222 2.87432 10.9131C2.25777 11.5047 1.86281 12.5766 2.41308 13.2075C2.96244 13.8353 3.59367 13.4533 4.07488 13.3437C3.94101 13.8211 3.5399 14.2652 4.03388 14.8901C4.5274 15.5153 5.21441 15.136 5.69613 15.0273C5.56181 15.503 5.1782 15.9916 5.65321 16.5711C6.1325 17.1523 6.91753 16.8426 7.43602 16.6815C7.23592 17.196 6.80762 17.7505 7.35788 18.372C7.9073 18.9979 9.17696 18.7083 9.79715 18.1166C10.4157 17.525 10.475 16.5873 9.93102 16.026C9.55543 15.641 8.99553 15.5514 8.47915 15.7134ZM19.7955 11.7762C15.3122 7.29287 17.4209 9.40249 15.0082 6.98462C15.0082 6.98462 14.2831 6.26274 13.3275 6.68207C12.6566 6.97604 11.7929 7.3767 11.143 7.68258C10.4288 8.05706 9.91488 8.17297 9.67356 8.17136C8.29297 8.16233 7.17286 7.05266 7.17286 5.67343C7.17286 4.7787 7.64787 3.99973 8.35633 3.55756C9.35255 2.86817 11.6456 1.64849 11.6456 1.64849C11.6456 1.64849 10.9471 0.763285 9.41676 0.763285C7.88692 0.763285 4.69063 2.85722 4.69063 2.85722C4.69063 2.85722 3.78389 3.43801 2.49132 2.91488L0 2.04733V10.707C0 10.707 0.71138 10.9129 1.35058 11.174C1.49494 10.7623 1.72788 10.3821 2.05101 10.0681C3.11145 9.05807 4.86914 9.04758 5.83394 10.041C6.12458 10.343 6.32741 10.7033 6.43092 11.1015C6.81967 11.2215 7.1718 11.4341 7.45478 11.7256C7.74629 12.0256 7.94836 12.3879 8.05272 12.7841C8.44102 12.9042 8.79265 13.1176 9.07659 13.4093C9.39634 13.7391 9.60935 14.1374 9.70882 14.5689C10.1147 14.6871 10.4815 14.9071 10.777 15.2091C11.3568 15.8047 11.5626 16.6127 11.4379 17.3922C11.4389 17.3922 11.4408 17.3922 11.4417 17.3939C11.4512 17.4063 11.801 17.7962 12.0191 18.0162C12.4465 18.444 13.1445 18.444 13.5733 18.0162C13.9992 17.5885 14.0011 16.8919 13.5733 16.462C13.5579 16.4467 12.0312 14.8497 12.154 14.7259C12.276 14.6029 14.2212 16.627 14.2574 16.664C14.6843 17.091 15.3818 17.091 15.8106 16.664C16.2384 16.2363 16.2375 15.5397 15.8106 15.1108C15.7896 15.0909 15.7021 15.007 15.6696 14.9736C15.6696 14.9736 13.741 13.2555 13.8878 13.1087C14.0364 12.9611 16.4319 15.1966 16.4358 15.1966C16.8665 15.5844 17.5298 15.5816 17.944 15.1671C18.3471 14.764 18.3557 14.1265 17.9984 13.6969C17.9909 13.674 16.1727 11.774 16.3146 11.6311C16.4586 11.4862 18.2576 13.3387 18.2614 13.3425C18.6873 13.7694 19.3858 13.7694 19.8146 13.3425C20.2415 12.9156 20.2415 12.2181 19.8146 11.7874C19.8088 11.7837 19.8012 11.7799 19.7955 11.7762Z" fill="#0A63AF"/>
</svg>
