<svg width="51" height="49" viewBox="0 0 51 49" fill="none" xmlns="http://www.w3.org/2000/svg">
<path d="M9.7079 15.2764C10.0659 15.1645 10.2654 14.7835 10.1535 14.4255C10.0416 14.0674 9.66061 13.8679 9.30258 13.9798C8.94454 14.0918 8.74503 14.4727 8.85696 14.8308C8.96889 15.1888 9.34987 15.3883 9.7079 15.2764Z" fill="#DADADA"/>
<path d="M12.7945 17.2822C13.3338 17.2138 13.7155 16.7212 13.6471 16.1819C13.5787 15.6426 13.0861 15.2609 12.5468 15.3293C12.0075 15.3977 11.6258 15.8904 11.6942 16.4297C11.7626 16.9689 12.2552 17.3507 12.7945 17.2822Z" fill="#DADADA"/>
<path d="M14.7577 13.5722C14.9891 13.277 14.9374 12.8501 14.6421 12.6187C14.3469 12.3872 13.92 12.439 13.6885 12.7342C13.4571 13.0295 13.5089 13.4564 13.8041 13.6878C14.0993 13.9192 14.5263 13.8675 14.7577 13.5722Z" fill="#DADADA"/>
<path d="M44.4031 13.7001C44.6223 13.2766 44.4568 12.7556 44.0333 12.5364C43.6098 12.3172 43.0888 12.4827 42.8696 12.9062C42.6504 13.3297 42.8159 13.8507 43.2394 14.0699C43.6629 14.2891 44.1839 14.1236 44.4031 13.7001Z" fill="#DADADA"/>
<path d="M40.1121 11.4783C40.3313 11.0548 40.1658 10.5338 39.7423 10.3146C39.3188 10.0954 38.7978 10.2609 38.5786 10.6844C38.3594 11.1079 38.5249 11.6289 38.9484 11.8481C39.3719 12.0673 39.8929 11.9018 40.1121 11.4783Z" fill="#DADADA"/>
<path d="M39.0505 16.4017C39.6696 16.7225 40.3565 16.8903 41.0537 16.891C41.712 16.8929 42.362 16.7432 42.9532 16.4535C43.0786 16.38 43.1715 16.2618 43.2133 16.1226C43.2551 15.9834 43.2427 15.8335 43.1786 15.703C43.1145 15.5726 43.0034 15.4712 42.8676 15.4193C42.7318 15.3674 42.5814 15.3688 42.4467 15.4232C41.9967 15.6417 41.5016 15.7515 41.0015 15.7437C40.5013 15.7359 40.0099 15.6108 39.567 15.3784C39.124 15.146 38.7418 14.8128 38.4512 14.4057C38.1605 13.9986 37.9695 13.5289 37.8936 13.0344C37.8826 12.9588 37.8569 12.8861 37.8178 12.8205C37.7788 12.7549 37.7272 12.6975 37.666 12.6518C37.6048 12.6061 37.5352 12.573 37.4611 12.5542C37.3871 12.5353 37.3101 12.5313 37.2345 12.5423C37.1589 12.5532 37.0862 12.579 37.0206 12.618C36.9549 12.6571 36.8976 12.7087 36.8519 12.7699C36.8062 12.8311 36.773 12.9007 36.7542 12.9747C36.7354 13.0487 36.7314 13.1258 36.7423 13.2013C36.8464 13.8794 37.1099 14.5231 37.5111 15.0794C37.9124 15.6358 38.44 16.089 39.0505 16.4017Z" fill="#DADADA"/>
<path d="M49.1231 21.3923L44.8694 18.2437L44.9672 18.1976C44.9853 18.2143 45.0046 18.2297 45.0248 18.2437C45.6539 18.5268 46.3382 18.6664 47.0279 18.6524C48.0928 18.6524 49.1865 18.3415 49.6124 17.5012V17.4493C50.5705 15.6083 50.912 13.5082 50.5866 11.4584C50.2612 9.40868 49.2861 7.51761 47.805 6.06377C48.0003 5.78163 48.1409 5.46532 48.2194 5.13128C48.3283 4.66446 48.3123 4.1772 48.1729 3.71855C48.0336 3.2599 47.7759 2.84605 47.4257 2.51868C47.0756 2.1913 46.6454 1.96194 46.1784 1.8537C45.7115 1.74546 45.2242 1.76215 44.7658 1.9021L41.9222 2.75976L39.7925 0.75088C39.2812 0.264061 38.6009 -0.00513751 37.8949 7.42883e-05C37.189 0.00528608 36.5126 0.284501 36.0086 0.778815C35.5046 1.27313 35.2123 1.94389 35.1934 2.6496C35.1744 3.35531 35.4303 4.04079 35.9071 4.56142C34.3604 5.48378 33.1039 6.82206 32.2808 8.42377L32.229 8.52738C31.5382 9.8628 33.006 11.44 34.1055 12.1365C34.1055 12.2228 34.1055 12.3091 34.1342 12.3955L29.184 10.9104C28.7835 10.7803 28.3608 10.7325 27.9413 10.7701C27.5219 10.8077 27.1144 10.9298 26.7434 11.1291C25.9924 11.5201 25.4242 12.1895 25.1605 12.9941C24.8922 13.7941 24.9524 14.6678 25.328 15.4234C25.7036 16.1789 26.3639 16.7544 27.1636 17.0234L29.938 17.9386L29.0976 19.5964C28.3523 19.3587 27.5772 19.227 26.7952 19.205C26.7843 18.7282 26.6658 18.2601 26.4486 17.8356C26.2313 17.4111 25.9211 17.0411 25.5408 16.7534C25.1606 16.4656 24.7203 16.2674 24.2528 16.1736C23.7852 16.0798 23.3025 16.0929 22.8408 16.2118L18.4431 17.3112C19.0784 16.087 19.2501 14.6745 18.9266 13.3337C18.7573 12.662 18.4646 12.0276 18.0632 11.463C18.3614 11.1831 18.5905 10.8376 18.7322 10.4539C18.8738 10.0702 18.9243 9.65876 18.8795 9.25218C18.8348 8.8456 18.696 8.45502 18.4742 8.11132C18.2525 7.76763 17.9538 7.48025 17.6018 7.27193C17.2497 7.0636 16.8541 6.94005 16.4461 6.91103C16.0381 6.88202 15.6289 6.94834 15.251 7.10476C14.873 7.26117 14.5367 7.50338 14.2685 7.81223C14.0003 8.12109 13.8077 8.48811 13.7058 8.88426C11.747 8.59036 9.75159 9.08508 8.15693 10.26C7.83787 9.90655 7.42942 9.64571 6.97459 9.5049C6.51975 9.3641 6.03537 9.34854 5.57244 9.45987C5.2383 9.53457 4.92229 9.67478 4.64269 9.87239C4.36308 10.07 4.12542 10.3211 3.94346 10.6111C3.72779 10.9499 3.59659 11.3356 3.5609 11.7356C3.5252 12.1357 3.58605 12.5385 3.73833 12.9101C3.8906 13.2818 4.12986 13.6115 4.43599 13.8715C4.74213 14.1315 5.10619 14.3143 5.49761 14.4044C5.371 15.1522 5.39842 15.9181 5.57819 16.655C5.92244 17.9947 6.74039 19.1644 7.88063 19.9475L3.27575 21.0987C2.47124 21.3117 1.78293 21.8328 1.35976 22.5494C0.936596 23.266 0.812606 24.1204 1.01462 24.9277C1.21664 25.735 1.72842 26.4303 2.43922 26.8632C3.15001 27.296 4.00265 27.4315 4.81263 27.2405L6.22288 26.8894C6.51823 26.8161 6.83057 26.8628 7.0916 27.0192C7.35262 27.1756 7.54111 27.429 7.61585 27.724L7.75976 28.2996H6.07322C5.92056 28.2996 5.77415 28.3603 5.6662 28.4682C5.55825 28.5761 5.49761 28.7226 5.49761 28.8752V43.8411C5.49761 43.9938 5.55825 44.1402 5.6662 44.2481C5.77415 44.3561 5.92056 44.4167 6.07322 44.4167H8.83615C8.98261 45.6788 9.58777 46.843 10.5365 47.6881C11.4853 48.5331 12.7116 49 13.9821 49C15.2526 49 16.4789 48.5331 17.4277 47.6881C18.3764 46.843 18.9816 45.6788 19.1281 44.4167H32.4362C32.5826 45.6788 33.1878 46.843 34.1366 47.6881C35.0854 48.5331 36.3116 49 37.5821 49C38.8527 49 40.0789 48.5331 41.0277 47.6881C41.9765 46.843 42.5816 45.6788 42.7281 44.4167H46.366C46.5186 44.4167 46.665 44.3561 46.773 44.2481C46.8809 44.1402 46.9416 43.9938 46.9416 43.8411V28.8752C46.9416 28.7226 46.8809 28.5761 46.773 28.4682C46.665 28.3603 46.5186 28.2996 46.366 28.2996H40.7883L42.7396 24.5236L45.3471 26.4692C45.679 26.7361 46.0612 26.9333 46.471 27.0491C46.8809 27.1648 47.3098 27.1967 47.7322 27.1428C48.1547 27.0888 48.5619 26.9503 48.9295 26.7353C49.2971 26.5203 49.6176 26.2334 49.8717 25.8917C50.1259 25.55 50.3085 25.1606 50.4086 24.7466C50.5087 24.3327 50.5243 23.9029 50.4544 23.4828C50.3845 23.0627 50.2306 22.661 50.0018 22.3018C49.7731 21.9426 49.4742 21.6333 49.1231 21.3923ZM35.7632 9.51743L35.8438 9.35626C35.9004 9.24163 35.9812 9.14061 36.0806 9.06013C36.1799 8.97965 36.2955 8.92162 36.4194 8.89001C36.9321 8.78047 37.4551 8.72643 37.9793 8.72884C39.5534 8.75091 41.0998 9.14542 42.4921 9.88006C44.3145 10.7805 45.7967 12.2465 46.7171 14.059C46.7743 14.1785 46.804 14.3093 46.804 14.4418C46.804 14.5743 46.7743 14.7051 46.7171 14.8246L46.5789 15.1009C45.232 17.7026 41.7093 18.5545 38.7334 17.0291C35.7575 15.5038 34.4163 12.1249 35.7632 9.51743ZM45.1342 3.02454C45.3981 2.94545 45.6782 2.93714 45.9463 3.00046C46.2145 3.06377 46.4613 3.19648 46.662 3.38528C46.8627 3.57407 47.0102 3.81232 47.0897 4.07611C47.1693 4.33991 47.1781 4.61999 47.1152 4.88826C47.0524 5.15653 46.9201 5.40356 46.7317 5.60457C46.5432 5.80558 46.3052 5.95351 46.0416 6.03352C45.7779 6.11354 45.4978 6.12282 45.2295 6.06044C44.9611 5.99805 44.7138 5.8662 44.5125 5.67811L42.5266 3.81313L45.1342 3.02454ZM36.3906 2.39713C36.4517 2.12695 36.5836 1.8779 36.7727 1.67558C36.9619 1.47325 37.2016 1.32495 37.467 1.2459C37.6163 1.20055 37.7715 1.17728 37.9275 1.17683C38.3258 1.17639 38.709 1.32886 38.9981 1.60278L40.984 3.46776L38.3765 4.25635C38.1127 4.33617 37.8326 4.3452 37.5642 4.28255C37.2958 4.2199 37.0486 4.08777 36.8474 3.89941C36.6462 3.71105 36.4981 3.47309 36.4179 3.20941C36.3378 2.94573 36.3283 2.6656 36.3906 2.39713ZM33.5874 10.1333C33.2536 9.69011 33.1269 9.29294 33.2478 9.0627L33.2996 8.95909C34.1047 7.37662 35.3876 6.08774 36.9662 5.27518C37.2675 5.39123 37.5874 5.45169 37.9102 5.45362C38.1814 5.45281 38.451 5.41208 38.7103 5.33274L41.5539 4.47508L43.7182 6.50699C44.2184 6.98227 44.8816 7.24798 45.5716 7.24952C46.0685 7.24905 46.5559 7.11377 46.9819 6.85811C48.3045 8.13864 49.1778 9.81246 49.4714 11.6299C49.7649 13.4473 49.4631 15.311 48.6108 16.9428V16.9946C48.3633 17.4724 47.0912 17.6048 46.1703 17.4148C46.7545 16.9207 47.2357 16.3163 47.5863 15.6362L47.7359 15.3426C47.8672 15.0686 47.9353 14.7686 47.9353 14.4648C47.9353 14.161 47.8672 13.861 47.7359 13.587C46.6613 11.5369 44.9729 9.87383 42.9067 8.83043C40.8405 7.78702 38.4999 7.41542 36.2122 7.76757C35.9215 7.83447 35.6491 7.96456 35.4143 8.1486C35.1795 8.33264 34.9881 8.56612 34.8537 8.83245L34.7732 8.98787C34.489 9.53869 34.2947 10.1314 34.1976 10.7435C33.9736 10.5618 33.7691 10.3573 33.5874 10.1333ZM38.1923 18.0595C39.3047 18.6411 40.5404 18.947 41.7956 18.9517C42.3993 18.9517 43.0007 18.8763 43.5858 18.7272L44.2707 19.2337C43.331 20.1608 42.1183 20.7615 40.8114 20.9471C39.5044 21.1328 38.1724 20.8936 37.0117 20.2649C35.851 19.6362 34.923 18.6512 34.3645 17.4551C33.806 16.259 33.6466 14.9151 33.9097 13.6215C33.9122 13.5909 33.9122 13.5601 33.9097 13.5294L34.4105 13.6791C35.0439 15.5809 36.4032 17.1554 38.1923 18.0595ZM26.2541 13.3337C26.4282 12.8159 26.7952 12.385 27.2787 12.1307C27.5157 12.0028 27.7762 11.9246 28.0444 11.9009C28.3126 11.8771 28.5829 11.9083 28.8386 11.9926L29.0804 12.0674L27.791 15.9988L27.5262 15.9067C27.0167 15.7337 26.5966 15.3656 26.3582 14.8833C26.1197 14.4009 26.0823 13.8436 26.2541 13.3337ZM33.6737 28.2996H22.6796C22.9428 27.3006 23.4187 26.3702 24.0747 25.5722C24.7307 24.7741 25.5515 24.1272 26.4807 23.6757C27.4099 23.2242 28.4257 22.9788 29.4585 22.9562C30.4914 22.9337 31.5169 23.1346 32.465 23.5451C33.2774 24.7318 33.7128 26.1361 33.714 27.5743C33.7025 27.8218 33.7025 28.0636 33.6737 28.2996ZM29.6445 21.7492C27.7357 21.7437 25.8822 22.39 24.3907 23.5812C22.8992 24.7723 21.8589 26.4369 21.442 28.2996H19.3871C19.3871 28.0636 19.341 27.8218 19.341 27.5858C19.3324 26.2461 19.6992 24.9306 20.3999 23.7886C21.1006 22.6466 22.1072 21.7238 23.3055 21.1246C24.5039 20.5254 25.8462 20.2739 27.1802 20.3985C28.5142 20.5231 29.7866 21.0189 30.8533 21.8297C30.4471 21.7731 30.0373 21.7462 29.6272 21.7492H29.6445ZM15.8989 8.08416C16.2154 8.00567 16.549 8.03314 16.8484 8.16236C17.1478 8.29158 17.3966 8.51542 17.5567 8.79957C17.7167 9.08372 17.7791 9.41251 17.7344 9.73555C17.6897 10.0586 17.5403 10.3581 17.3091 10.5881C16.8846 10.186 16.406 9.84503 15.8874 9.57499C15.5454 9.3994 15.1892 9.25305 14.8225 9.13753C14.8923 8.8822 15.0287 8.65005 15.2179 8.46493C15.4071 8.27981 15.6421 8.14838 15.8989 8.08416ZM4.76083 12.4012C4.6892 12.0845 4.72295 11.7531 4.85694 11.4573C4.99093 11.1615 5.21783 10.9175 5.50315 10.7625C5.78847 10.6075 6.11661 10.5498 6.43769 10.5983C6.75877 10.6468 7.05523 10.7989 7.282 11.0313C6.59129 11.7222 6.06588 12.5605 5.74512 13.4834C5.50287 13.4028 5.28525 13.2616 5.11297 13.0732C4.94068 12.8848 4.81946 12.6555 4.76083 12.407V12.4012ZM6.71215 16.373C6.51388 15.4741 6.57047 14.5377 6.87556 13.6692C7.18064 12.8007 7.7221 12.0347 8.43898 11.4572C9.18876 10.8221 10.0753 10.369 11.0292 10.1333C12.4744 9.75543 14.0078 9.91922 15.3405 10.5938C15.9411 10.8906 16.4709 11.313 16.894 11.8324C17.3171 12.3518 17.6235 12.9561 17.7927 13.6043C18.4604 16.2809 16.5148 19.0783 13.4525 19.8439C10.3903 20.6094 7.37985 19.0495 6.71215 16.3787V16.373ZM8.73254 27.4362C8.5817 26.8498 8.20596 26.3464 7.68668 26.0351C7.1674 25.7237 6.54638 25.6295 5.9581 25.7727L4.54785 26.1238C4.03186 26.247 3.48812 26.1617 3.03464 25.8864C2.58116 25.6111 2.25455 25.1681 2.12571 24.6535C1.99687 24.1389 2.0762 23.5943 2.34647 23.1378C2.61675 22.6813 3.05615 22.3499 3.56931 22.2154L9.42903 20.7533C10.222 21.0434 11.0598 21.1915 11.9042 21.1908C12.5252 21.1895 13.1438 21.1122 13.7461 20.9606C15.1895 20.6068 16.4919 19.8241 17.4818 18.7157C17.5239 18.7203 17.5664 18.7203 17.6085 18.7157L23.1113 17.34C23.6296 17.2112 24.1778 17.2935 24.6354 17.5687C25.093 17.8439 25.4227 18.2896 25.5519 18.8078C25.5874 18.9529 25.6067 19.1016 25.6094 19.251C23.5619 19.4853 21.6719 20.4638 20.2986 22.0005C18.9253 23.5372 18.1646 25.525 18.161 27.5858C18.161 27.8218 18.161 28.0636 18.1956 28.2996H8.95127L8.73254 27.4362ZM13.9821 47.8704C13.1852 47.8704 12.4062 47.6341 11.7436 47.1913C11.081 46.7486 10.5645 46.1193 10.2595 45.383C9.95458 44.6468 9.87478 43.8366 10.0303 43.055C10.1857 42.2734 10.5695 41.5555 11.133 40.992C11.6965 40.4285 12.4144 40.0447 13.196 39.8892C13.9776 39.7338 14.7878 39.8136 15.524 40.1185C16.2603 40.4235 16.8896 40.9399 17.3323 41.6025C17.7751 42.2652 18.0114 43.0442 18.0114 43.8411C18.0114 44.9097 17.5869 45.9346 16.8312 46.6902C16.0756 47.4459 15.0507 47.8704 13.9821 47.8704ZM37.5821 47.8704C36.7852 47.8704 36.0062 47.6341 35.3436 47.1913C34.681 46.7486 34.1645 46.1193 33.8596 45.383C33.5546 44.6468 33.4748 43.8366 33.6303 43.055C33.7858 42.2734 34.1695 41.5555 34.733 40.992C35.2965 40.4285 36.0145 40.0447 36.7961 39.8892C37.5777 39.7338 38.3878 39.8136 39.1241 40.1185C39.8603 40.4235 40.4896 40.9399 40.9324 41.6025C41.3751 42.2652 41.6114 43.0442 41.6114 43.8411C41.6114 44.9097 41.1869 45.9346 40.4313 46.6902C39.6756 47.4459 38.6508 47.8704 37.5821 47.8704ZM42.7281 43.2655C42.5816 42.0034 41.9765 40.8392 41.0277 39.9941C40.0789 39.1491 38.8527 38.6822 37.5821 38.6822C36.3116 38.6822 35.0854 39.1491 34.1366 39.9941C33.1878 40.8392 32.5826 42.0034 32.4362 43.2655H19.1281C18.9816 42.0034 18.3764 40.8392 17.4277 39.9941C16.4789 39.1491 15.2526 38.6822 13.9821 38.6822C12.7116 38.6822 11.4853 39.1491 10.5365 39.9941C9.58777 40.8392 8.98261 42.0034 8.83615 43.2655H6.64883V35.4947C7.04076 35.8095 7.364 36.2013 7.59859 36.646C8.12239 37.4864 8.74981 38.5282 10.1025 38.5282C11.4552 38.5282 12.0826 37.4864 12.6064 36.646C13.1302 35.8056 13.4756 35.3221 14.1318 35.3221C14.788 35.3221 15.1391 35.8343 15.6571 36.6632C16.1752 37.4921 16.8084 38.5455 18.161 38.5455C19.5137 38.5455 20.1411 37.5036 20.6649 36.6632C21.1888 35.8228 21.5284 35.3221 22.1903 35.3221C22.8523 35.3221 23.1976 35.8343 23.7157 36.6632C24.2337 37.4921 24.8669 38.5455 26.2196 38.5455C27.5723 38.5455 28.1997 37.5036 28.7235 36.6632C29.2473 35.8228 29.5869 35.3221 30.2489 35.3221C30.9108 35.3221 31.2562 35.8286 31.7742 36.6632C32.2923 37.4979 32.9255 38.5455 34.2781 38.5455C35.6308 38.5455 36.2582 37.5036 36.782 36.6632C37.3058 35.8228 37.6455 35.3221 38.3074 35.3221C38.9694 35.3221 39.3147 35.8343 39.8385 36.6632C40.3623 37.4921 40.9898 38.5455 42.3424 38.5455C43.6951 38.5455 44.3225 37.5036 44.8463 36.6632C45.0823 36.2179 45.4076 35.826 45.8019 35.512V43.2655H42.7281ZM45.7904 34.2514C44.8406 34.5047 44.3053 35.3451 43.8621 36.0531C43.344 36.882 42.9871 37.3943 42.3309 37.3943C41.6747 37.3943 41.3236 36.882 40.7998 36.0531C40.276 35.2242 39.6486 34.1708 38.2959 34.1708C36.9432 34.1708 36.3216 35.2069 35.7977 36.0531C35.2739 36.8992 34.9228 37.3943 34.2781 37.3943C33.6335 37.3943 33.2708 36.8877 32.7528 36.0531C32.2347 35.2184 31.6015 34.1708 30.2489 34.1708C28.8962 34.1708 28.263 35.2069 27.7392 36.0531C27.2154 36.8992 26.87 37.3943 26.2196 37.3943C25.5691 37.3943 25.2123 36.882 24.6942 36.0531C24.1762 35.2242 23.543 34.1708 22.1903 34.1708C20.8376 34.1708 20.2045 35.2069 19.6807 36.0531C19.1568 36.8992 18.8115 37.3943 18.161 37.3943C17.5106 37.3943 17.1537 36.882 16.6357 36.0531C16.1176 35.2242 15.4557 34.1708 14.1318 34.1708C12.8079 34.1708 12.1517 35.2069 11.6279 36.0531C11.1041 36.8992 10.7587 37.3943 10.1025 37.3943C9.4463 37.3943 9.09517 36.882 8.57712 36.0531C8.1339 35.3451 7.59859 34.5047 6.64883 34.2514V29.4508H45.7904V34.2514ZM34.8825 28.2996C34.8825 28.0636 34.9171 27.8218 34.9171 27.5858C34.9178 25.8432 34.3722 24.1442 33.3572 22.7277C33.3358 22.6925 33.3107 22.6597 33.2823 22.6298C32.4692 21.5234 31.3983 20.6323 30.1625 20.0338L31.2734 17.8868C31.3119 17.813 31.3338 17.7317 31.3378 17.6486C31.3418 17.5655 31.3277 17.4825 31.2965 17.4054C31.2653 17.3282 31.2178 17.2588 31.1571 17.2018C31.0965 17.1448 31.0243 17.1016 30.9454 17.0752L28.8847 16.3845L30.1855 12.4128L32.8621 13.2129C32.831 13.2627 32.8077 13.3171 32.7931 13.374C32.4686 14.9266 32.6583 16.5426 33.3336 17.9779C34.0088 19.4131 35.1329 20.5895 36.5359 21.3294C37.9389 22.0693 39.5446 22.3323 41.1103 22.0789C42.6761 21.8254 44.1168 21.0692 45.2147 19.9245L47.2927 21.4614L44.8924 24.6905L42.9123 23.2342H42.8605C42.8374 23.211 42.8124 23.1899 42.7857 23.1709C42.7184 23.136 42.6449 23.1147 42.5694 23.1083C42.4939 23.1018 42.4179 23.1103 42.3457 23.1333C42.2735 23.1563 42.2066 23.1933 42.1487 23.2423C42.0909 23.2912 42.0433 23.3511 42.0086 23.4184L39.4932 28.2996H34.8825ZM48.8526 25.1337C48.5328 25.5617 48.0565 25.8456 47.5279 25.9232C46.9993 26.0009 46.4615 25.8661 46.0321 25.5482L45.8019 25.3755L48.2079 22.1406L48.4382 22.3133C48.6507 22.4711 48.83 22.6694 48.9659 22.8966C49.1018 23.1239 49.1915 23.3756 49.23 23.6376C49.2685 23.8995 49.255 24.1665 49.1902 24.4232C49.1255 24.68 49.0107 24.9214 48.8526 25.1337Z" fill="#DADADA"/>
</svg>
