<svg width="40" height="40" viewBox="0 0 40 40" fill="none" xmlns="http://www.w3.org/2000/svg">
<g clip-path="url(#clip0)">
<path fill-rule="evenodd" clip-rule="evenodd" d="M0.795898 17.035C1.22688 17.035 1.57617 16.6857 1.57617 16.2547V4.11018C1.57617 3.30674 2.22996 2.65295 3.03339 2.65295H36.9168C37.7202 2.65295 38.374 3.30674 38.374 4.11018V6.49793C38.374 6.92861 38.7233 7.27821 39.1543 7.27821C39.5852 7.27821 39.9345 6.92861 39.9345 6.49793V4.11018C39.9345 2.4463 38.5806 1.09241 36.9168 1.09241H3.03339C1.36952 1.09241 0.015625 2.4463 0.015625 4.11018V16.2547C0.015625 16.6857 0.364919 17.035 0.795898 17.035Z" fill="#737373"/>
<path fill-rule="evenodd" clip-rule="evenodd" d="M39.1543 12.0839C38.7233 12.0839 38.374 12.4335 38.374 12.8641V25.009C38.374 25.8124 37.7202 26.4662 36.9168 26.4662H3.03339C2.22996 26.4662 1.57617 25.8124 1.57617 25.009V22.6212C1.57617 22.1902 1.22688 21.8409 0.795898 21.8409C0.364919 21.8409 0.015625 22.1902 0.015625 22.6212V25.009C0.015625 26.6728 1.36952 28.0267 3.03339 28.0267H36.9168C38.5806 28.0267 39.9345 26.6728 39.9345 25.009V12.8641C39.9345 12.4335 39.5852 12.0839 39.1543 12.0839Z" fill="#737373"/>
<path fill-rule="evenodd" clip-rule="evenodd" d="M14.9771 7.66221C14.7357 7.52292 14.4382 7.52292 14.1968 7.66221C13.9554 7.8015 13.8066 8.05905 13.8066 8.33794V20.7809C13.8066 21.0597 13.9554 21.3173 14.1968 21.4566C14.3175 21.5264 14.4522 21.5611 14.5869 21.5611C14.7216 21.5611 14.8564 21.5264 14.9771 21.4566L25.7531 15.2351C25.9945 15.0958 26.1432 14.8383 26.1432 14.5594C26.1432 14.2808 25.9945 14.0233 25.7531 13.8837L14.9771 7.66221ZM15.3672 19.4297V9.68939L23.8027 14.5594L15.3672 19.4297Z" fill="#737373"/>
<path fill-rule="evenodd" clip-rule="evenodd" d="M39.1543 33.7593H13.6375V33.0242C13.6375 31.4606 12.3659 30.189 10.8023 30.189C9.23901 30.189 7.9671 31.4606 7.9671 33.0242V33.7593H0.795898C0.364919 33.7593 0.015625 34.1086 0.015625 34.5396C0.015625 34.9706 0.364919 35.3199 0.795898 35.3199H7.9671V36.0547C7.9671 37.6183 9.23901 38.8899 10.8023 38.8899C12.3659 38.8899 13.6375 37.6183 13.6375 36.0547V35.3199H39.1543C39.5852 35.3199 39.9345 34.9706 39.9345 34.5396C39.9345 34.1086 39.5852 33.7593 39.1543 33.7593ZM12.0769 36.0547C12.0769 36.7579 11.5052 37.3294 10.8023 37.3294C10.0994 37.3294 9.52765 36.7579 9.52765 36.0547V33.0242C9.52765 32.3213 10.0994 31.7495 10.8023 31.7495C11.5052 31.7495 12.0769 32.3213 12.0769 33.0242V36.0547Z" fill="#737373"/>
<path fill-rule="evenodd" clip-rule="evenodd" d="M0.795818 20.2338C1.23411 20.2338 1.59164 19.8763 1.59164 19.438C1.59164 18.9997 1.23411 18.6422 0.795818 18.6422C0.357524 18.6422 0 18.9997 0 19.438C0 19.8763 0.357524 20.2338 0.795818 20.2338Z" fill="#737373"/>
<path fill-rule="evenodd" clip-rule="evenodd" d="M39.1542 8.88513C38.7159 8.88513 38.3584 9.24266 38.3584 9.68095C38.3584 10.1192 38.7159 10.4768 39.1542 10.4768C39.5925 10.4768 39.95 10.1192 39.95 9.68095C39.95 9.24266 39.5925 8.88513 39.1542 8.88513Z" fill="#737373"/>
</g>
<defs>
<clipPath id="clip0">
<rect width="39.95" height="39.95" fill="white"/>
</clipPath>
</defs>
</svg>
