<svg width="25" height="20" viewBox="0 0 25 20" fill="none" xmlns="http://www.w3.org/2000/svg">
<path d="M9.20938 14.2698L9.43432 13.1228C9.86954 10.8979 11.0084 7.86876 13.961 6.07054L15.0985 5.37869L8.10788 1.10243C7.27124 0.58962 6.31075 0.318726 5.33194 0.318726C3.45883 0.318726 1.75758 1.27168 0.781372 2.86676C-0.751436 5.37346 0.0406568 8.66 2.54691 10.1937L9.20938 14.2698ZM2.16844 3.71515C2.84618 2.60611 4.0298 1.94369 5.33194 1.94369C6.01088 1.94369 6.67757 2.13217 7.26059 2.48789L12.0572 5.42273C9.74886 7.26274 8.63781 9.77261 8.10476 11.6878L3.39409 8.8074C1.65231 7.74135 1.10229 5.45698 2.16844 3.71515Z" fill="#0A63AF"/>
<path d="M22.5655 10.1991L16.3162 6.37561L16.2004 6.42493C15.4719 6.73675 14.8455 7.12552 14.2927 7.55802L20.3111 11.232C20.5387 11.3719 20.6111 11.6691 20.471 11.897C20.3806 12.0463 20.2212 12.1288 20.0586 12.1288C19.9729 12.1288 19.8861 12.1065 19.8064 12.058C19.8064 12.058 13.6335 8.24641 13.5942 8.1644C11.387 10.3193 10.7703 13.2569 10.6021 14.6626L10.5833 14.8178L17.2472 18.8927C18.048 19.3832 18.966 19.6416 19.9012 19.6416C21.6926 19.6416 23.3186 18.7303 24.2523 17.2048C25.7188 14.8081 24.9614 11.6652 22.5655 10.1991Z" fill="#0A63AF"/>
</svg>
