<svg width="43" height="43" viewBox="0 0 43 43" fill="none" xmlns="http://www.w3.org/2000/svg">
<path d="M37.0312 31.2656C33.8518 31.2656 31.2656 33.8518 31.2656 37.0312C31.2656 40.2107 33.8518 42.7969 37.0312 42.7969C40.2107 42.7969 42.7969 40.2107 42.7969 37.0312C42.7969 33.8518 40.2107 31.2656 37.0312 31.2656ZM37.0312 41.5156C34.5591 41.5156 32.5469 39.5034 32.5469 37.0312C32.5469 34.5591 34.5591 32.5469 37.0312 32.5469C39.5034 32.5469 41.5156 34.5591 41.5156 37.0312C41.5156 39.5034 39.5034 41.5156 37.0312 41.5156Z" fill="#DADADA"/>
<path d="M37.6719 33.8281H36.3906V37.6719C36.3906 38.0261 36.677 38.3125 37.0312 38.3125H38.9531V37.0312H37.6719V33.8281Z" fill="#DADADA"/>
<path d="M8.32812 0C3.73612 0 0 3.73612 0 8.32812C0 12.9201 3.73612 16.6562 8.32812 16.6562C12.9201 16.6562 16.6562 12.9201 16.6562 8.32812C16.6562 3.73612 12.9201 0 8.32812 0ZM8.32812 15.375C4.44273 15.375 1.28125 12.2135 1.28125 8.32812C1.28125 4.44273 4.44273 1.28125 8.32812 1.28125C12.2135 1.28125 15.375 4.44273 15.375 8.32812C15.375 12.2135 12.2135 15.375 8.32812 15.375Z" fill="#DADADA"/>
<path d="M8.32812 2.5625C5.1487 2.5625 2.5625 5.1487 2.5625 8.32812C2.5625 11.5075 5.1487 14.0938 8.32812 14.0938C11.5075 14.0938 14.0938 11.5075 14.0938 8.32812C14.0938 5.1487 11.5075 2.5625 8.32812 2.5625ZM8.32812 12.8125C5.85595 12.8125 3.84375 10.8003 3.84375 8.32812C3.84375 5.85595 5.85595 3.84375 8.32812 3.84375C10.8003 3.84375 12.8125 5.85595 12.8125 8.32812C12.8125 10.8003 10.8003 12.8125 8.32812 12.8125Z" fill="#DADADA"/>
<path d="M8.96875 5.125H7.6875V8.96875C7.6875 9.32302 7.97386 9.60938 8.32812 9.60938H10.25V8.32812H8.96875V5.125Z" fill="#DADADA"/>
<path d="M17.8125 8.20312H15.8906V9.48438H17.8125V8.20312Z" fill="#DADADA"/>
<path d="M22.9375 8.20312H20.375V9.48438H22.9375V8.20312Z" fill="#DADADA"/>
<path d="M28.0625 8.20312H25.5V9.48438H28.0625V8.20312Z" fill="#DADADA"/>
<path d="M33.1875 8.20312H30.625V9.48438H33.1875V8.20312Z" fill="#DADADA"/>
<path d="M38.6343 9.31783C37.7733 8.81942 36.8393 8.48309 35.8572 8.31781L35.6445 9.58176C36.4754 9.72142 37.2647 10.0052 37.9924 10.4261L38.6343 9.31783Z" fill="#DADADA"/>
<path d="M42.5342 14.4492C42.276 13.4479 41.8378 12.5132 41.2331 11.6727L40.1934 12.421C40.7052 13.1314 41.0749 13.922 41.2933 14.7695L42.5342 14.4492Z" fill="#DADADA"/>
<path d="M40.877 19.4672L42.0416 20.0015C42.4439 19.1245 42.6886 18.1898 42.7687 17.2244L41.4913 17.1193C41.424 17.9355 41.2171 18.726 40.877 19.4672Z" fill="#DADADA"/>
<path d="M37.2444 24.3853C38.2527 24.0291 39.1727 23.4884 39.9779 22.7773L39.1297 21.8164C38.4488 22.418 37.671 22.876 36.8184 23.1777L37.2444 24.3853Z" fill="#DADADA"/>
<path d="M34.4688 23.5781H31.9062V24.8594H34.4688V23.5781Z" fill="#DADADA"/>
<path d="M29.3438 23.5781H26.7812V24.8594H29.3438V23.5781Z" fill="#DADADA"/>
<path d="M24.2188 23.5781H21.6562V24.8594H24.2188V23.5781Z" fill="#DADADA"/>
<path d="M19.0938 23.5781H16.5312V24.8594H19.0938V23.5781Z" fill="#DADADA"/>
<path d="M13.8422 23.7191C12.8133 23.9279 11.8639 24.3546 11.0215 24.9875L11.7909 26.0125C12.4802 25.4942 13.2553 25.1451 14.0965 24.9753L13.8422 23.7191Z" fill="#DADADA"/>
<path d="M9.96356 28.3187L8.78994 27.8062C8.40044 28.6967 8.20312 29.6454 8.20312 30.625H9.48437C9.48437 29.8229 9.64581 29.0471 9.96356 28.3187Z" fill="#DADADA"/>
<path d="M9.96269 32.9313L8.78906 33.4438C9.2753 34.5559 10.0466 35.5303 11.0197 36.2619L11.7891 35.2369C10.9922 34.6392 10.3605 33.841 9.96269 32.9313Z" fill="#DADADA"/>
<path d="M14.0955 36.2747L13.8418 37.5309C14.3037 37.6245 14.7777 37.6719 15.2499 37.6719H16.5311V36.3906H15.2499C14.863 36.3906 14.4741 36.3515 14.0955 36.2747Z" fill="#DADADA"/>
<path d="M21.6562 36.3906H19.0938V37.6719H21.6562V36.3906Z" fill="#DADADA"/>
<path d="M26.7812 36.3906H24.2188V37.6719H26.7812V36.3906Z" fill="#DADADA"/>
</svg>
