<svg width="65" height="35" viewBox="0 0 65 35" fill="none" xmlns="http://www.w3.org/2000/svg">
<path d="M58.0091 1.57334C59.2609 1.57334 60.4615 2.07063 61.3467 2.9558C62.2318 3.84098 62.7291 5.04154 62.7291 6.29337V21.8301C62.7291 23.0819 62.2318 24.2825 61.3467 25.1677C60.4615 26.0529 59.2609 26.5501 58.0091 26.5501H41.6306C41.214 26.5519 40.8151 26.7188 40.5214 27.0143L35.4867 32.049C35.0484 32.4878 34.5278 32.836 33.9548 33.0735C33.3818 33.311 32.7676 33.4333 32.1473 33.4333C31.527 33.4333 30.9128 33.311 30.3398 33.0735C29.7668 32.836 29.2463 32.4878 28.8079 32.049L23.7732 27.0143C23.4795 26.7188 23.0806 26.5519 22.664 26.5501H6.29337C5.04154 26.5501 3.84098 26.0529 2.95581 25.1677C2.07063 24.2825 1.57334 23.0819 1.57334 21.8301V6.29337C1.57334 5.04154 2.07063 3.84098 2.95581 2.9558C3.84098 2.07063 5.04154 1.57334 6.29337 1.57334H58.0091ZM58.0091 0H6.29337C4.62426 0 3.02352 0.663047 1.84328 1.84328C0.663049 3.02352 0 4.62426 0 6.29337V21.8301C0 23.4992 0.663049 25.1 1.84328 26.2802C3.02352 27.4604 4.62426 28.1235 6.29337 28.1235H22.664L27.6987 33.1582C28.8788 34.3375 30.4789 35 32.1473 35C33.8157 35 35.4158 34.3375 36.5959 33.1582L41.6306 28.1235H58.0091C59.6782 28.1235 61.279 27.4604 62.4592 26.2802C63.6394 25.1 64.3025 23.4992 64.3025 21.8301V6.29337C64.3025 4.62426 63.6394 3.02352 62.4592 1.84328C61.279 0.663047 59.6782 0 58.0091 0Z" fill="#DADADA"/>
<path d="M54.9394 15.7649H53.7201C54.5988 14.435 55.1216 12.902 55.2384 11.3123C55.2639 10.6977 55.1649 10.0843 54.9473 9.50894C54.7297 8.93359 54.398 8.40817 53.9722 7.96427C53.5464 7.52037 53.0352 7.16716 52.4693 6.92588C51.9035 6.68459 51.2947 6.56021 50.6796 6.56021C50.0645 6.56021 49.4557 6.68459 48.8899 6.92588C48.324 7.16716 47.8129 7.52037 47.387 7.96427C46.9612 8.40817 46.6295 8.93359 46.4119 9.50894C46.1943 10.0843 46.0953 10.6977 46.1209 11.3123C46.2376 12.902 46.7604 14.435 47.6391 15.7649H46.4198C45.4482 15.7669 44.517 16.1538 43.8299 16.8409C43.1429 17.5279 42.756 18.4591 42.7539 19.4308V19.6668C42.7539 20.084 42.9197 20.4842 43.2147 20.7793C43.5098 21.0743 43.91 21.2401 44.3272 21.2401H57.032C57.4493 21.2401 57.8494 21.0743 58.1445 20.7793C58.4396 20.4842 58.6053 20.084 58.6053 19.6668V19.4308C58.6032 18.4591 58.2164 17.5279 57.5293 16.8409C56.8423 16.1538 55.9111 15.7669 54.9394 15.7649ZM47.1671 11.3045C47.2099 10.4016 47.5986 9.54994 48.2526 8.92613C48.9067 8.30232 49.7758 7.95431 50.6796 7.95431C51.5834 7.95431 52.4526 8.30232 53.1066 8.92613C53.7606 9.54994 54.1494 10.4016 54.1921 11.3045C54.1921 13.397 52.1625 17.0786 50.6757 17.0786C49.1889 17.0786 47.1671 13.397 47.1671 11.3045ZM57.559 19.6668C57.559 19.8065 57.5035 19.9406 57.4047 20.0395C57.3058 20.1383 57.1718 20.1938 57.032 20.1938H44.3272C44.1875 20.1938 44.0534 20.1383 43.9545 20.0395C43.8557 19.9406 43.8002 19.8065 43.8002 19.6668V19.4308C43.8002 18.736 44.0762 18.0697 44.5674 17.5784C45.0587 17.0871 45.725 16.8111 46.4198 16.8111H48.2134C48.7336 17.4359 49.4388 17.8794 50.2273 18.0777H50.2823C50.5425 18.124 50.8088 18.124 51.069 18.0777H51.1241C51.9126 17.8794 52.6177 17.4359 53.138 16.8111H54.9473C55.6421 16.8111 56.3084 17.0871 56.7996 17.5784C57.2909 18.0697 57.5669 18.736 57.5669 19.4308L57.559 19.6668Z" fill="#DADADA"/>
<path d="M14.247 21.4761C14.1095 21.4763 13.9752 21.4352 13.8615 21.3581C13.6019 21.185 7.56814 17.0786 6.5376 13.7903C5.50706 10.502 6.868 7.73294 9.92815 6.71026C10.6076 6.53689 11.3161 6.51036 12.0066 6.63244C12.697 6.75453 13.3535 7.02243 13.9323 7.41827C14.0425 7.49814 14.1476 7.58484 14.247 7.67787C14.358 7.57508 14.4763 7.48043 14.601 7.39467C15.175 6.99849 15.8287 6.73264 16.5164 6.61578C17.204 6.49891 17.9088 6.53384 18.5815 6.71813C21.5709 7.79587 22.7037 10.5807 21.6102 14.16C20.6111 17.4483 14.8606 21.2401 14.6167 21.3817C14.5047 21.4472 14.3766 21.4799 14.247 21.4761ZM11.061 7.89814C10.8292 7.8926 10.5981 7.92448 10.3765 7.99254C8.01654 8.77921 7.08827 10.856 7.8592 13.3891C8.52001 15.5682 12.3983 18.6441 14.2548 19.9499C16.017 18.7385 19.6435 15.8986 20.2965 13.7352C21.1618 10.8954 20.3673 8.80281 18.1095 7.98467C17.6454 7.87962 17.1648 7.87008 16.6968 7.95663C16.2289 8.04319 15.7835 8.22402 15.3876 8.48814C15.1044 8.68481 14.9314 8.90508 14.9314 9.07028C14.9132 9.24015 14.8328 9.39729 14.7058 9.51149C14.5787 9.62568 14.4139 9.68885 14.243 9.68885C14.0722 9.68885 13.9074 9.62568 13.7803 9.51149C13.6532 9.39729 13.5729 9.24015 13.5547 9.07028C13.5547 8.91294 13.3974 8.70054 13.1299 8.51174C12.5131 8.11359 11.7951 7.90064 11.061 7.89814Z" fill="#DADADA"/>
<path d="M35.8789 21.6413C35.7476 21.6408 35.6193 21.6026 35.5092 21.5312C33.9473 20.5127 32.4497 19.3987 31.0251 18.1957C27.4222 17.6765 24.8262 15.23 24.8262 12.3193C24.8262 9.02313 28.2246 6.34058 32.4018 6.34058C36.579 6.34058 39.9775 9.02313 39.9775 12.3193C39.9775 14.6164 38.3333 16.6853 35.753 17.6922C35.7779 18.7192 36.0333 19.7274 36.5004 20.6423C36.5541 20.7476 36.58 20.8649 36.5755 20.983C36.5711 21.1012 36.5364 21.2162 36.4749 21.3172C36.4134 21.4181 36.327 21.5016 36.2241 21.5598C36.1211 21.6179 36.005 21.6487 35.8868 21.6492L35.8789 21.6413ZM32.4018 7.71725C28.9877 7.71725 26.2028 9.7862 26.2028 12.3193C26.2028 14.5456 28.437 16.4965 31.4027 16.8584C31.5426 16.8733 31.6744 16.931 31.7803 17.0236C32.6535 17.8102 33.6841 18.5969 34.5337 19.1869C34.3592 18.487 34.3297 17.7588 34.4472 17.0472C34.471 16.9282 34.5258 16.8177 34.6059 16.7265C34.6859 16.6354 34.7886 16.5669 34.9034 16.528C37.1454 15.7885 38.6008 14.168 38.6008 12.3193C38.5929 9.7862 35.816 7.71725 32.4018 7.71725Z" fill="#DADADA"/>
</svg>
