<svg width="19" height="22" viewBox="0 0 19 22" fill="none" xmlns="http://www.w3.org/2000/svg">
<path d="M18.267 18.5555L16.6932 15.9321C15.9663 14.7212 15.5822 13.3343 15.5822 11.9227V9.6247C15.5822 6.72354 13.6463 4.26971 10.999 3.47864V1.83329C10.999 0.822224 10.1768 0 9.16571 0C8.15465 0 7.33242 0.822224 7.33242 1.83329V3.47864C4.6852 4.26971 2.74926 6.72354 2.74926 9.6247V11.9227C2.74926 13.3343 2.36518 14.7203 1.6392 15.9312L0.0653461 18.5546C-0.0199012 18.6967 -0.0217487 18.8727 0.0598464 19.0166C0.141441 19.1605 0.292687 19.2494 0.457681 19.2494H17.8738C18.0388 19.2494 18.1909 19.1605 18.2725 19.0175C18.3541 18.8745 18.3514 18.6967 18.267 18.5555Z" fill="white"/>
<path d="M6.2793 20.166C6.79628 21.2458 7.89075 21.9993 9.16576 21.9993C10.4408 21.9993 11.5353 21.2458 12.0523 20.166H6.2793Z" fill="white"/>
</svg>
