<svg width="23" height="21" viewBox="0 0 23 21" fill="none" xmlns="http://www.w3.org/2000/svg">
<path d="M13.8795 4.00523C14.943 4.67201 15.6887 5.80034 15.8244 7.11007C16.2582 7.31272 16.7395 7.42926 17.2499 7.42926C19.113 7.42926 20.6231 5.91917 20.6231 4.05632C20.6231 2.19319 19.113 0.683105 17.2499 0.683105C15.4045 0.68368 13.9076 2.16678 13.8795 4.00523ZM11.6696 10.9118C13.5328 10.9118 15.0429 9.40146 15.0429 7.53862C15.0429 5.67577 13.5325 4.16568 11.6696 4.16568C9.80679 4.16568 8.29585 5.67605 8.29585 7.5389C8.29585 9.40175 9.80679 10.9118 11.6696 10.9118ZM13.1005 11.1417H10.2382C7.85668 11.1417 5.91921 13.0795 5.91921 15.461V18.9614L5.9281 19.0162L6.16921 19.0917C8.44195 19.8018 10.4164 20.0386 12.0416 20.0386C15.2159 20.0386 17.0558 19.1336 17.1692 19.0759L17.3945 18.962H17.4186V15.461C17.4195 13.0795 15.482 11.1417 13.1005 11.1417ZM18.6813 7.65946H15.8411C15.8104 8.79582 15.3253 9.8191 14.5581 10.5551C16.6749 11.1845 18.2238 13.1475 18.2238 15.4662V16.5449C21.0281 16.4421 22.6441 15.6473 22.7506 15.5939L22.9759 15.4797H23V11.9782C23 9.59693 21.0625 7.65946 18.6813 7.65946ZM5.75072 7.42983C6.41061 7.42983 7.02457 7.23723 7.54468 6.90915C7.71001 5.83077 8.2881 4.88843 9.11389 4.24663C9.11734 4.18348 9.12336 4.12091 9.12336 4.05719C9.12336 2.19405 7.61299 0.683967 5.75072 0.683967C3.8873 0.683967 2.3775 2.19405 2.3775 4.05719C2.3775 5.91946 3.8873 7.42983 5.75072 7.42983ZM8.78007 10.5551C8.01656 9.82283 7.5332 8.80501 7.49789 7.67553C7.39255 7.66778 7.28836 7.65946 7.18101 7.65946H4.31899C1.93748 7.65946 0 9.59693 0 11.9782V15.4791L0.00889804 15.5331L0.250006 15.6091C2.07324 16.1783 3.70044 16.4407 5.11379 16.5233V15.4662C5.11436 13.1475 6.66262 11.1851 8.78007 10.5551Z" fill="white"/>
</svg>
