<svg width="18" height="23" viewBox="0 0 18 23" fill="none" xmlns="http://www.w3.org/2000/svg">
<path d="M10.9321 19.3692C10.9321 21.3208 12.5144 22.9031 14.466 22.9031C16.4176 22.9031 17.9999 21.3208 17.9999 19.3692C17.9999 17.4176 16.4176 15.8353 14.466 15.8353C12.5144 15.8353 10.9321 17.4176 10.9321 19.3692ZM16.1882 18.6982V20.0402H15.137V21.0914H13.795V20.0402H12.7438V18.6982H13.795V17.647H15.137V18.6982H16.1882Z" fill="white"/>
<path d="M11.0184 15.9215C11.9392 15.0006 13.1636 14.4934 14.4661 14.4934C14.756 14.4934 15.0422 14.5187 15.322 14.568C14.8507 11.8304 12.9325 9.58152 10.3855 8.64004C11.6312 7.78645 12.45 6.35378 12.45 4.7331C12.45 2.12323 10.3268 0 7.71691 0C5.10704 0 2.98381 2.12323 2.98381 4.7331C2.98381 6.35361 3.8028 7.78645 5.04832 8.64004C2.10436 9.72848 0 12.5634 0 15.881V18.9941H9.60441C9.69231 17.833 10.1865 16.7534 11.0184 15.9215Z" fill="white"/>
</svg>
