<svg width="21" height="21" viewBox="0 0 21 21" fill="none" xmlns="http://www.w3.org/2000/svg">
<path d="M19.6875 5.90625H15.75C15.75 5.18134 15.1623 4.59375 14.4375 4.59375H13.0122L15.3655 2.24048C15.8782 1.72811 15.8782 0.896889 15.3655 0.384521C14.8528 -0.128174 14.0222 -0.128174 13.5095 0.384521L10.5 3.39404L7.49048 0.384521C6.97778 -0.128174 6.14722 -0.128174 5.63452 0.384521C5.12183 0.896889 5.12183 1.72811 5.63452 2.24048L7.98779 4.59375H6.5625C5.83767 4.59375 5.25 5.18134 5.25 5.90625H1.3125C0.587672 5.90625 0 6.49384 0 7.21875V19.6875C0 20.4124 0.587672 21 1.3125 21H19.6875C20.4123 21 21 20.4124 21 19.6875V7.21875C21 6.49384 20.4123 5.90625 19.6875 5.90625ZM15.75 18.375H2.625V8.53125H15.75V18.375ZM18.375 18.375C17.6502 18.375 17.0625 17.7873 17.0625 17.0625C17.0625 16.3376 17.6502 15.75 18.375 15.75C19.0998 15.75 19.6875 16.3376 19.6875 17.0625C19.6875 17.7873 19.0998 18.375 18.375 18.375ZM18.375 14.4375C17.6502 14.4375 17.0625 13.8498 17.0625 13.125C17.0625 12.4001 17.6502 11.8125 18.375 11.8125C19.0998 11.8125 19.6875 12.4001 19.6875 13.125C19.6875 13.8498 19.0998 14.4375 18.375 14.4375Z" fill="white"/>
</svg>
