<svg width="24" height="17" viewBox="0 0 24 17" fill="none" xmlns="http://www.w3.org/2000/svg">
<path d="M23.5149 2.10808V9.22627C23.5149 9.22627 21.9914 9.52641 21.6775 9.56589C21.3647 9.60527 20.3815 9.92272 19.669 9.23785C18.5702 8.18471 14.6661 4.30213 14.6661 4.30213C14.6661 4.30213 13.9929 3.6416 12.9121 4.21246C11.9199 4.7354 10.4491 5.50178 9.83481 5.80021C8.6735 6.41833 7.71098 5.43764 7.71098 4.69061C7.71098 4.11117 8.07256 3.71789 8.58942 3.42867C9.99019 2.57949 12.9426 0.922282 14.1723 0.268914C14.9197 -0.128629 15.4583 -0.162694 16.4845 0.701804C17.7483 1.76472 18.8731 2.7336 18.8731 2.7336C18.8731 2.7336 19.2399 3.03976 19.825 2.91645C21.2616 2.6127 23.5149 2.10808 23.5149 2.10808ZM7.97544 14.1692C8.1645 13.6834 8.10131 13.1401 7.73883 12.7674C7.41312 12.434 6.93757 12.3461 6.48414 12.45C6.61096 12.0003 6.54093 11.5216 6.21346 11.1838C5.88676 10.8513 5.41212 10.7616 4.95873 10.8665C5.0846 10.4174 5.01476 9.93881 4.68711 9.60199C4.17403 9.07573 3.28657 9.09832 2.70357 9.65404C2.12365 10.2105 1.75215 11.2187 2.26973 11.8122C2.78645 12.4026 3.38018 12.0434 3.83281 11.9402C3.70689 12.3893 3.32961 12.807 3.79424 13.3948C4.25844 13.9829 4.90464 13.6261 5.35774 13.5239C5.2314 13.9713 4.87058 14.4309 5.31737 14.9759C5.76819 15.5226 6.50658 15.2313 6.99427 15.0798C6.80605 15.5637 6.4032 16.0853 6.92078 16.6698C7.43755 17.2586 8.63179 16.9862 9.21513 16.4296C9.7969 15.8731 9.85275 14.9912 9.34105 14.4633C8.98777 14.1011 8.46113 14.0168 7.97544 14.1692ZM18.6195 10.4659C14.4025 6.2489 16.386 8.2332 14.1166 5.95896C14.1166 5.95896 13.4346 5.27998 12.5357 5.67439C11.9047 5.9509 11.0923 6.32776 10.481 6.61546C9.80929 6.9677 9.32587 7.07673 9.09889 7.07521C7.80031 7.06671 6.74675 6.02297 6.74675 4.72567C6.74675 3.88409 7.19354 3.1514 7.85991 2.73549C8.79695 2.08706 10.9538 0.939837 10.9538 0.939837C10.9538 0.939837 10.2967 0.107221 8.85735 0.107221C7.41838 0.107221 4.41197 2.07676 4.41197 2.07676C4.41197 2.07676 3.5591 2.62305 2.34332 2.13099L0 1.31499V9.46023C0 9.46023 0.669119 9.6539 1.27034 9.89948C1.40613 9.51223 1.62523 9.15463 1.92917 8.85929C2.92661 7.90925 4.57988 7.89938 5.48736 8.83381C5.76074 9.11786 5.95152 9.45672 6.04888 9.8313C6.41454 9.94417 6.74575 10.1441 7.01192 10.4183C7.2861 10.7005 7.47617 11.0412 7.57433 11.4139C7.93957 11.5269 8.27031 11.7276 8.53738 12.002C8.83813 12.3122 9.03849 12.6868 9.13205 13.0927C9.51384 13.2039 9.85886 13.4108 10.1368 13.6949C10.6821 14.2551 10.8757 15.0151 10.7584 15.7482C10.7594 15.7482 10.7612 15.7482 10.762 15.7499C10.771 15.7616 11.0999 16.1283 11.3051 16.3352C11.7071 16.7376 12.3636 16.7376 12.7669 16.3352C13.1675 15.9329 13.1693 15.2777 12.7669 14.8733C12.7525 14.859 11.3164 13.3568 11.432 13.2404C11.5467 13.1247 13.3764 15.0285 13.4104 15.0633C13.8119 15.4649 14.468 15.4649 14.8714 15.0633C15.2737 14.661 15.2729 14.0058 14.8714 13.6024C14.8516 13.5836 14.7692 13.5047 14.7387 13.4733C14.7387 13.4733 12.9247 11.8573 13.0627 11.7193C13.2025 11.5804 15.4558 13.6831 15.4594 13.6831C15.8645 14.0479 16.4884 14.0452 16.878 13.6553C17.2572 13.2762 17.2653 12.6766 16.9292 12.2725C16.9221 12.251 15.212 10.4638 15.3454 10.3294C15.4808 10.1932 17.173 11.9355 17.1765 11.9391C17.5771 12.3407 18.2341 12.3407 18.6375 11.9391C19.039 11.5376 19.039 10.8815 18.6375 10.4764C18.632 10.473 18.6248 10.4694 18.6195 10.4659Z" fill="white"/>
</svg>
