<svg width="41" height="45" viewBox="0 0 41 45" fill="none" xmlns="http://www.w3.org/2000/svg">
<path d="M40.7083 33.503C39.9479 31.724 37.9231 30.9342 36.1754 31.5173L28.901 33.9419C28.88 33.6419 28.8212 33.3428 28.7236 33.05C28.4192 32.1369 27.7773 31.3968 26.9162 30.9664L16.955 25.9858C15.6077 25.312 14.0674 25.1687 12.6191 25.5826L9.64711 26.4319C9.38122 24.7052 7.88566 23.3792 6.08575 23.3792H1.2012C0.537723 23.3792 0 23.9169 0 24.5803V41.3968C0 42.0599 0.537723 42.598 1.2012 42.598H8.48814C9.15161 42.598 9.68934 42.0599 9.68934 41.3968V40.7527L15.8996 43.8577C18.6795 45.2466 21.9928 45.4095 24.9893 44.1239L38.8155 38.2333C40.6448 37.45 41.4929 35.3329 40.7083 33.503ZM7.28694 40.1956H2.40239V25.7815H6.08606C6.74828 25.7815 7.28694 26.3202 7.28694 26.9827V40.1956ZM37.8721 36.0242L24.0449 41.9151C21.7354 42.9058 19.1622 42.8022 16.9735 41.7087L9.68934 38.0669V28.9181L13.2792 27.8927C14.1482 27.644 15.0722 27.73 15.8808 28.1345L25.842 33.1151C26.4344 33.4113 26.6756 34.1342 26.3794 34.727C26.0772 35.3311 25.3502 35.5557 24.7675 35.2641L18.8244 32.2927C17.3082 31.5345 15.4429 31.9483 14.3896 33.2765C13.9774 33.7961 14.0643 34.5518 14.5842 34.9638C15.1038 35.3761 15.8595 35.2891 16.2718 34.7692C16.6228 34.3266 17.2444 34.1887 17.7499 34.4414L23.693 37.4128C24.9999 38.0663 26.6031 37.872 27.7145 36.8698L36.9355 33.7961C37.5352 33.5959 38.2468 33.8565 38.4996 34.4483C38.7649 35.0664 38.4705 35.7677 37.8721 36.0242Z" fill="#3175BE"/>
<path d="M26.5035 12.5687C26.5035 13.2319 25.9657 13.7699 25.3023 13.7699C24.6388 13.7699 24.1011 13.2319 24.1011 12.5687C24.1011 11.9053 24.6388 11.3676 25.3023 11.3676C25.9657 11.3676 26.5035 11.9053 26.5035 12.5687Z" fill="#3175BE"/>
<path d="M31.3083 17.3733C31.3083 18.0367 30.7706 18.5745 30.1074 18.5745C29.444 18.5745 28.9062 18.0367 28.9062 17.3733C28.9062 16.7101 29.444 16.1721 30.1074 16.1721C30.7706 16.1721 31.3083 16.7101 31.3083 17.3733Z" fill="#3175BE"/>
<path d="M30.9583 11.7191C30.4894 11.2502 29.7286 11.2502 29.2597 11.7191L24.4549 16.5239C23.9857 16.9931 23.9857 17.7536 24.4549 18.2225C24.9238 18.6917 25.6846 18.6917 26.1535 18.2225L30.9583 13.418C31.4275 12.9488 31.4275 12.1883 30.9583 11.7191Z" fill="#3175BE"/>
<path d="M40.5493 9.87265L28.5376 0.263394C28.3184 0.087907 28.0528 6.85393e-06 27.7872 6.87714e-06C27.5229 6.90025e-06 27.2586 0.0869687 27.0399 0.260892L14.9482 9.87015C14.5481 10.1883 14.3929 10.7241 14.5612 11.2065C14.7295 11.6888 15.1847 12.012 15.6955 12.012L19.3788 12.012L19.3788 22.9826C19.3788 23.6461 19.9169 24.1838 20.58 24.1838L34.9941 24.1838C35.6575 24.1838 36.1953 23.6461 36.1953 22.9826L36.1953 12.012L39.7989 12.012C40.3091 12.012 40.7636 11.6898 40.9322 11.2084C41.1011 10.7269 40.9475 10.1914 40.5493 9.87265ZM34.9941 9.60958C34.3309 9.60958 33.7929 10.1473 33.7929 10.8108L33.7929 21.7814L21.7812 21.7814L21.7812 10.8108C21.7812 10.1473 21.2435 9.60958 20.58 9.60958L19.1373 9.60958L27.7847 2.73773L36.3745 9.60958L34.9941 9.60958Z" fill="#3175BE"/>
</svg>
