<svg width="51" height="51" viewBox="0 0 51 51" fill="none" xmlns="http://www.w3.org/2000/svg">
<path d="M11.8135 22.1007V28.8987C11.8153 30.4758 12.4382 31.9877 13.5456 33.1028C14.6531 34.2179 16.1546 34.8452 17.7207 34.847H32.9108C34.477 34.8452 35.9785 34.2179 37.0859 33.1028C38.1934 31.9877 38.8163 30.4758 38.8181 28.8987V22.1007C38.8163 20.5237 38.1934 19.0118 37.0859 17.8967C35.9785 16.7815 34.477 16.1543 32.9108 16.1525H17.7207C16.1546 16.1543 14.6531 16.7815 13.5456 17.8967C12.4382 19.0118 11.8153 20.5237 11.8135 22.1007ZM37.1303 22.1007V28.8987C37.129 30.0252 36.684 31.1051 35.893 31.9016C35.102 32.6981 34.0295 33.1461 32.9108 33.1475H17.7207C16.6021 33.1461 15.5296 32.6981 14.7386 31.9016C13.9476 31.1051 13.5026 30.0252 13.5013 28.8987V22.1007C13.5026 20.9743 13.9476 19.8944 14.7386 19.0979C15.5296 18.3014 16.6021 17.8533 17.7207 17.852H32.9108C34.0295 17.8533 35.102 18.3014 35.893 19.0979C36.684 19.8944 37.129 20.9743 37.1303 22.1007Z" fill="white"/>
<path d="M21.5245 31.3376C21.6546 31.4118 21.8019 31.4499 21.9513 31.4479C22.1008 31.446 22.2471 31.4041 22.3752 31.3266L30.8141 26.228C30.9389 26.1525 31.0422 26.0457 31.1138 25.9181C31.1855 25.7905 31.2232 25.6464 31.2232 25.4998C31.2232 25.3532 31.1855 25.2091 31.1138 25.0815C31.0422 24.9538 30.9389 24.8471 30.8141 24.7715L22.3752 19.673C22.2471 19.5955 22.101 19.5537 21.9516 19.5517C21.8023 19.5497 21.6551 19.5877 21.5251 19.6618C21.3951 19.7358 21.2869 19.8433 21.2116 19.9732C21.1364 20.1031 21.0967 20.2508 21.0967 20.4012V30.5983C21.0967 30.7486 21.1363 30.8963 21.2115 31.0262C21.2866 31.156 21.3947 31.2635 21.5245 31.3376ZM22.7845 21.9019L28.739 25.4998L22.7845 29.0977V21.9019Z" fill="white"/>
<path d="M21.0967 47.5933V50.1426C21.0967 50.3679 21.1856 50.5841 21.3438 50.7434C21.5021 50.9028 21.7168 50.9923 21.9406 50.9923H28.6917C28.9155 50.9923 29.1302 50.9028 29.2884 50.7434C29.4467 50.5841 29.5356 50.3679 29.5356 50.1426V47.5933C29.5353 46.8975 29.3653 46.2125 29.0406 45.5983C28.7158 44.9842 28.2463 44.4597 27.6731 44.0711C28.1536 43.5992 28.4835 42.9937 28.6206 42.3321C28.7577 41.6705 28.6957 40.9827 28.4428 40.3567C28.1898 39.7307 27.7572 39.1949 27.2002 38.8176C26.6433 38.4404 25.9874 38.2389 25.3161 38.2389C24.6449 38.2389 23.989 38.4404 23.4321 38.8176C22.8751 39.1949 22.4425 39.7307 22.1895 40.3567C21.9366 40.9827 21.8746 41.6705 22.0117 42.3321C22.1488 42.9937 22.4787 43.5992 22.9592 44.0711C22.386 44.4597 21.9165 44.9842 21.5917 45.5983C21.267 46.2125 21.097 46.8975 21.0967 47.5933ZM23.6284 41.645C23.6284 41.3089 23.7273 40.9803 23.9128 40.7009C24.0983 40.4214 24.3619 40.2035 24.6703 40.0749C24.9787 39.9463 25.318 39.9126 25.6454 39.9782C25.9728 40.0438 26.2736 40.2056 26.5096 40.4433C26.7456 40.681 26.9064 40.9838 26.9715 41.3135C27.0366 41.6432 27.0032 41.9849 26.8755 42.2954C26.7477 42.606 26.5314 42.8714 26.2538 43.0581C25.9763 43.2449 25.65 43.3446 25.3161 43.3446C24.8685 43.3446 24.4392 43.1655 24.1227 42.8468C23.8062 42.5281 23.6284 42.0958 23.6284 41.645ZM22.7845 47.5933C22.7845 46.9172 23.0512 46.2688 23.526 45.7907C24.0008 45.3126 24.6447 45.0441 25.3161 45.0441C25.9876 45.0441 26.6315 45.3126 27.1063 45.7907C27.5811 46.2688 27.8478 46.9172 27.8478 47.5933V49.2928H22.7845V47.5933Z" fill="white"/>
<path d="M21.0967 9.35442V11.9037C21.0967 12.129 21.1856 12.3452 21.3438 12.5045C21.5021 12.6639 21.7168 12.7534 21.9406 12.7534H28.6917C28.9155 12.7534 29.1302 12.6639 29.2884 12.5045C29.4467 12.3452 29.5356 12.129 29.5356 11.9037V9.35442C29.5353 8.65864 29.3653 7.97359 29.0406 7.35944C28.7158 6.7453 28.2463 6.22086 27.6731 5.8322C28.1536 5.36028 28.4835 4.75483 28.6206 4.09321C28.7577 3.4316 28.6957 2.74385 28.4428 2.11783C28.1898 1.49182 27.7572 0.955963 27.2002 0.578726C26.6433 0.201489 25.9874 0 25.3161 0C24.6449 0 23.989 0.201489 23.4321 0.578726C22.8751 0.955963 22.4425 1.49182 22.1895 2.11783C21.9366 2.74385 21.8746 3.4316 22.0117 4.09321C22.1488 4.75483 22.4787 5.36028 22.9592 5.8322C22.386 6.22086 21.9165 6.7453 21.5917 7.35944C21.267 7.97359 21.097 8.65864 21.0967 9.35442ZM23.6284 3.40616C23.6284 3.07003 23.7273 2.74145 23.9128 2.46196C24.0983 2.18248 24.3619 1.96465 24.6703 1.83602C24.9787 1.70739 25.318 1.67373 25.6454 1.73931C25.9728 1.80489 26.2736 1.96675 26.5096 2.20443C26.7456 2.44211 26.9064 2.74493 26.9715 3.0746C27.0366 3.40427 27.0032 3.74599 26.8755 4.05653C26.7477 4.36707 26.5314 4.6325 26.2538 4.81924C25.9763 5.00599 25.65 5.10566 25.3161 5.10566C24.8685 5.10566 24.4392 4.92661 24.1227 4.60789C23.8062 4.28917 23.6284 3.85689 23.6284 3.40616ZM22.7845 9.35442C22.7845 8.67831 23.0512 8.0299 23.526 7.55182C24.0008 7.07374 24.6447 6.80516 25.3161 6.80516C25.9876 6.80516 26.6315 7.07374 27.1063 7.55182C27.5811 8.0299 27.8478 8.67831 27.8478 9.35442V11.0539H22.7845V9.35442Z" fill="white"/>
<path d="M48.7718 35.5735C49.2523 35.1016 49.5822 34.4962 49.7192 33.8345C49.8563 33.1729 49.7944 32.4852 49.5414 31.8592C49.2884 31.2332 48.8558 30.6973 48.2989 30.3201C47.742 29.9428 47.086 29.7413 46.4148 29.7413C45.7436 29.7413 45.0876 29.9428 44.5307 30.3201C43.9738 30.6973 43.5412 31.2332 43.2882 31.8592C43.0352 32.4852 42.9733 33.1729 43.1104 33.8345C43.2475 34.4962 43.5773 35.1016 44.0578 35.5735C43.4847 35.9622 43.0151 36.4866 42.6904 37.1008C42.3656 37.7149 42.1956 38.4 42.1953 39.0958V41.645C42.1953 41.8704 42.2842 42.0865 42.4425 42.2459C42.6007 42.4052 42.8154 42.4948 43.0392 42.4948H49.7904C50.0142 42.4948 50.2289 42.4052 50.3871 42.2459C50.5454 42.0865 50.6343 41.8704 50.6343 41.645V39.0958C50.634 38.4 50.464 37.7149 50.1393 37.1008C49.8145 36.4866 49.3449 35.9622 48.7718 35.5735ZM44.727 33.1475C44.727 32.8114 44.826 32.4828 45.0115 32.2033C45.1969 31.9238 45.4605 31.706 45.7689 31.5774C46.0773 31.4487 46.4167 31.4151 46.7441 31.4806C47.0715 31.5462 47.3722 31.7081 47.6083 31.9458C47.8443 32.1834 48.0051 32.4863 48.0702 32.8159C48.1353 33.1456 48.1019 33.4873 47.9741 33.7979C47.8464 34.1084 47.6301 34.3738 47.3525 34.5606C47.0749 34.7473 46.7486 34.847 46.4148 34.847C45.9672 34.847 45.5379 34.6679 45.2214 34.3492C44.9048 34.0305 44.727 33.5982 44.727 33.1475ZM48.9465 40.7953H43.8831V39.0958C43.8831 38.4196 44.1498 37.7712 44.6246 37.2932C45.0994 36.8151 45.7434 36.5465 46.4148 36.5465C47.0863 36.5465 47.7302 36.8151 48.205 37.2932C48.6798 37.7712 48.9465 38.4196 48.9465 39.0958V40.7953Z" fill="white"/>
<path d="M48.7718 14.3297C49.2523 13.8578 49.5822 13.2523 49.7192 12.5907C49.8563 11.9291 49.7944 11.2413 49.5414 10.6153C49.2884 9.98927 48.8558 9.45341 48.2989 9.07617C47.742 8.69893 47.086 8.49744 46.4148 8.49744C45.7436 8.49744 45.0876 8.69893 44.5307 9.07617C43.9738 9.45341 43.5412 9.98927 43.2882 10.6153C43.0352 11.2413 42.9733 11.9291 43.1104 12.5907C43.2475 13.2523 43.5773 13.8578 44.0578 14.3297C43.4847 14.7183 43.0151 15.2428 42.6904 15.8569C42.3656 16.4711 42.1956 17.1562 42.1953 17.8519V20.4012C42.1953 20.6266 42.2842 20.8427 42.4425 21.0021C42.6007 21.1614 42.8154 21.251 43.0392 21.251H49.7904C50.0142 21.251 50.2289 21.1614 50.3871 21.0021C50.5454 20.8427 50.6343 20.6266 50.6343 20.4012V17.8519C50.634 17.1562 50.464 16.4711 50.1393 15.8569C49.8145 15.2428 49.3449 14.7183 48.7718 14.3297ZM44.727 11.9036C44.727 11.5675 44.826 11.2389 45.0115 10.9594C45.1969 10.6799 45.4605 10.4621 45.7689 10.3335C46.0773 10.2048 46.4167 10.1712 46.7441 10.2368C47.0715 10.3023 47.3722 10.4642 47.6083 10.7019C47.8443 10.9396 48.0051 11.2424 48.0702 11.5721C48.1353 11.9017 48.1019 12.2435 47.9741 12.554C47.8464 12.8645 47.6301 13.13 47.3525 13.3167C47.0749 13.5035 46.7486 13.6031 46.4148 13.6031C45.9672 13.6031 45.5379 13.4241 45.2214 13.1054C44.9048 12.7866 44.727 12.3544 44.727 11.9036ZM48.9465 19.5515H43.8831V17.8519C43.8831 17.1758 44.1498 16.5274 44.6246 16.0493C45.0994 15.5712 45.7434 15.3027 46.4148 15.3027C47.0863 15.3027 47.7302 15.5712 48.205 16.0493C48.6798 16.5274 48.9465 17.1758 48.9465 17.8519V19.5515Z" fill="white"/>
<path d="M0.843896 42.4948H7.59506C7.81888 42.4948 8.03353 42.4052 8.19179 42.2459C8.35005 42.0865 8.43896 41.8704 8.43896 41.645V39.0958C8.43866 38.4 8.26867 37.7149 7.94392 37.1008C7.61917 36.4866 7.14961 35.9622 6.57648 35.5735C7.05697 35.1016 7.38683 34.4962 7.52391 33.8345C7.661 33.1729 7.59909 32.4852 7.34609 31.8592C7.0931 31.2332 6.6605 30.6973 6.10358 30.3201C5.54666 29.9428 4.89069 29.7413 4.21948 29.7413C3.54827 29.7413 2.89231 29.9428 2.33538 30.3201C1.77846 30.6973 1.34586 31.2332 1.09287 31.8592C0.839872 32.4852 0.777963 33.1729 0.915049 33.8345C1.05214 34.4962 1.38199 35.1016 1.86248 35.5735C1.28935 35.9622 0.819789 36.4866 0.495042 37.1008C0.170295 37.7149 0.000302129 38.4 0 39.0958V41.645C0 41.8704 0.0889102 42.0865 0.247171 42.2459C0.405433 42.4052 0.620081 42.4948 0.843896 42.4948ZM2.53169 33.1475C2.53169 32.8114 2.63068 32.4828 2.81613 32.2033C3.00159 31.9238 3.26519 31.706 3.57359 31.5774C3.88199 31.4487 4.22135 31.4151 4.54875 31.4806C4.87615 31.5462 5.17689 31.7081 5.41293 31.9458C5.64897 32.1834 5.80972 32.4863 5.87484 32.8159C5.93997 33.1456 5.90654 33.4873 5.7788 33.7979C5.65105 34.1084 5.43472 34.3738 5.15717 34.5606C4.87961 34.7473 4.55329 34.847 4.21948 34.847C3.77185 34.847 3.34255 34.6679 3.02603 34.3492C2.70951 34.0305 2.53169 33.5982 2.53169 33.1475ZM1.68779 39.0958C1.68779 38.4196 1.95452 37.7712 2.42931 37.2932C2.90409 36.8151 3.54803 36.5465 4.21948 36.5465C4.89093 36.5465 5.53487 36.8151 6.00965 37.2932C6.48444 37.7712 6.75117 38.4196 6.75117 39.0958V40.7953H1.68779V39.0958Z" fill="white"/>
<path d="M0.843896 21.2511H7.59506C7.81888 21.2511 8.03353 21.1616 8.19179 21.0022C8.35005 20.8428 8.43896 20.6267 8.43896 20.4013V17.8521C8.43866 17.1563 8.26867 16.4712 7.94392 15.8571C7.61917 15.2429 7.14961 14.7185 6.57648 14.3298C7.05697 13.8579 7.38683 13.2524 7.52391 12.5908C7.661 11.9292 7.59909 11.2414 7.34609 10.6154C7.0931 9.98939 6.6605 9.45353 6.10358 9.07629C5.54666 8.69905 4.89069 8.49756 4.21948 8.49756C3.54827 8.49756 2.89231 8.69905 2.33538 9.07629C1.77846 9.45353 1.34586 9.98939 1.09287 10.6154C0.839872 11.2414 0.777963 11.9292 0.915049 12.5908C1.05214 13.2524 1.38199 13.8579 1.86248 14.3298C1.28935 14.7185 0.819789 15.2429 0.495042 15.8571C0.170295 16.4712 0.000302129 17.1563 0 17.8521V20.4013C0 20.6267 0.0889102 20.8428 0.247171 21.0022C0.405433 21.1616 0.620081 21.2511 0.843896 21.2511ZM2.53169 11.9037C2.53169 11.5676 2.63068 11.239 2.81613 10.9595C3.00159 10.6801 3.26519 10.4622 3.57359 10.3336C3.88199 10.205 4.22135 10.1713 4.54875 10.2369C4.87615 10.3025 5.17689 10.4643 5.41293 10.702C5.64897 10.9397 5.80972 11.2425 5.87484 11.5722C5.93997 11.9019 5.90654 12.2436 5.7788 12.5541C5.65105 12.8647 5.43472 13.1301 5.15717 13.3168C4.87961 13.5036 4.55329 13.6033 4.21948 13.6033C3.77185 13.6033 3.34255 13.4242 3.02603 13.1055C2.70951 12.7868 2.53169 12.3545 2.53169 11.9037ZM1.68779 17.8521C1.68779 17.1759 1.95452 16.5275 2.42931 16.0494C2.90409 15.5714 3.54803 15.3028 4.21948 15.3028C4.89093 15.3028 5.53487 15.5714 6.00965 16.0494C6.48444 16.5275 6.75117 17.1759 6.75117 17.8521V19.5516H1.68779V17.8521Z" fill="white"/>
</svg>
