<svg width="42" height="38" viewBox="0 0 42 38" fill="none" xmlns="http://www.w3.org/2000/svg">
<path d="M41.3298 0.0106201H0.670213C0.300077 0.0106201 0 0.310607 0 0.680833V37.3191C0 37.6894 0.300077 37.9893 0.670213 37.9893H41.3298C41.6999 37.9893 42 37.6894 42 37.3191V30.1702C42 29.8 41.6999 29.5 41.3298 29.5C40.9597 29.5 40.6596 29.8 40.6596 30.1702V36.6489H1.34043V6.71275H40.6596V27.4893C40.6596 27.8596 40.9597 28.1596 41.3298 28.1596C41.6999 28.1596 42 27.8596 42 27.4893V0.680833C42 0.310607 41.6999 0.0106201 41.3298 0.0106201ZM1.34043 1.35105H26.1383V5.37232H1.34043V1.35105ZM27.4787 5.37232V1.35105H40.6596V5.37232H27.4787Z" fill="#5F4A4A"/>
<path d="M34.0915 2.64679C33.6973 2.64679 33.3766 2.96751 33.3766 3.36168C33.3766 3.75586 33.6973 4.07658 34.0915 4.07658C34.4857 4.07658 34.8064 3.75586 34.8064 3.36168C34.8064 2.96751 34.4857 2.64679 34.0915 2.64679Z" fill="#5F4A4A"/>
<path d="M30.4277 2.64679C30.0335 2.64679 29.7128 2.96751 29.7128 3.36168C29.7128 3.75586 30.0335 4.07658 30.4277 4.07658C30.8218 4.07658 31.1426 3.75586 31.1426 3.36168C31.1426 2.96751 30.8218 2.64679 30.4277 2.64679Z" fill="#5F4A4A"/>
<path d="M37.7553 2.64679C37.3612 2.64679 37.0404 2.96751 37.0404 3.36168C37.0404 3.75586 37.3612 4.07658 37.7553 4.07658C38.1495 4.07658 38.4702 3.75586 38.4702 3.36168C38.4702 2.96751 38.1495 2.64679 37.7553 2.64679Z" fill="#5F4A4A"/>
<path d="M13.2894 18.1947C13.5529 18.1618 13.7721 17.9764 13.8482 17.722L15.39 12.5753C15.4962 12.2207 15.2949 11.8472 14.9403 11.7409C14.5859 11.6348 14.2122 11.836 14.106 12.1906L13.0002 15.8818L11.9343 14.1028C11.8132 13.9006 11.595 13.777 11.3593 13.777C11.1237 13.777 10.9055 13.9006 10.7844 14.1028L9.71848 15.8818L8.61289 12.1913C8.50673 11.8367 8.13311 11.6354 7.77852 11.7416C7.42394 11.8478 7.2226 12.2214 7.32886 12.576L8.87043 17.722C8.94666 17.9764 9.16586 18.1618 9.4293 18.1947C9.45718 18.1982 9.48497 18.1999 9.51259 18.1999C9.746 18.1999 9.96529 18.0778 10.0874 17.8741L11.3592 15.7512L12.6311 17.8741C12.7679 18.1019 13.0261 18.2279 13.2894 18.1947Z" fill="#5F4A4A"/>
<path d="M18.4404 18.1941C18.4683 18.1976 18.4961 18.1993 18.5237 18.1993C18.7571 18.1993 18.9764 18.0772 19.0985 17.8735L20.3704 15.7506L21.6422 17.8735C21.7787 18.1012 22.0369 18.2271 22.3003 18.1941C22.5638 18.1611 22.783 17.9758 22.8592 17.7214L24.4009 12.5747C24.5071 12.2201 24.3058 11.8466 23.9513 11.7403C23.5967 11.634 23.2231 11.8353 23.1169 12.19L22.0111 15.8812L20.9452 14.1022C20.8241 13.9001 20.6059 13.7764 20.3703 13.7764C20.1346 13.7764 19.9164 13.9001 19.7953 14.1022L18.7296 15.8812L17.624 12.1907C17.5178 11.8361 17.1444 11.6347 16.7896 11.741C16.435 11.8472 16.2337 12.2208 16.34 12.5754L17.8815 17.7215C17.9578 17.9758 18.177 18.1611 18.4404 18.1941Z" fill="#5F4A4A"/>
<path d="M32.9623 11.7398C32.6078 11.6336 32.2342 11.8349 32.128 12.1894L31.0222 15.8805L29.9563 14.1015C29.8352 13.8994 29.617 13.7757 29.3813 13.7757C29.1457 13.7757 28.9275 13.8994 28.8064 14.1015L27.7405 15.8805L26.6349 12.1901C26.5286 11.8356 26.1553 11.6342 25.8005 11.7404C25.4459 11.8466 25.2446 12.2202 25.3509 12.5748L26.8924 17.7207C26.9687 17.9752 27.1879 18.1605 27.4513 18.1935C27.7148 18.2264 27.9728 18.1007 28.1094 17.8728L29.3812 15.75L30.6531 17.8728C30.7752 18.0765 30.9944 18.1987 31.2279 18.1987C31.2555 18.1987 31.2834 18.197 31.3112 18.1935C31.5747 18.1605 31.7939 17.9752 31.8701 17.7207L33.4118 12.5741C33.5182 12.2196 33.3169 11.8459 32.9623 11.7398Z" fill="#5F4A4A"/>
<path d="M12.2157 21.9978C12.2157 21.6276 11.9156 21.3276 11.5455 21.3276H7.97099C7.60086 21.3276 7.30078 21.6276 7.30078 21.9978V25.5723C7.30078 25.9425 7.60086 26.2425 7.97099 26.2425H11.5455C11.9156 26.2425 12.2157 25.9425 12.2157 25.5723V21.9978ZM10.8752 24.902H8.64121V22.668H10.8752V24.902Z" fill="#5F4A4A"/>
<path d="M11.5455 27.5829H7.97099C7.60086 27.5829 7.30078 27.8829 7.30078 28.2531V31.8276C7.30078 32.1978 7.60086 32.4978 7.97099 32.4978H11.5455C11.9156 32.4978 12.2157 32.1978 12.2157 31.8276V28.2531C12.2157 27.8829 11.9156 27.5829 11.5455 27.5829ZM10.8752 31.1574H8.64121V28.9233H10.8752V31.1574Z" fill="#5F4A4A"/>
<path d="M32.77 23.1148H30.0892C29.7191 23.1148 29.419 23.4148 29.419 23.785C29.419 24.1552 29.7191 24.4552 30.0892 24.4552H32.77C33.1402 24.4552 33.4403 24.1552 33.4403 23.785C33.4403 23.4148 33.1402 23.1148 32.77 23.1148Z" fill="#5F4A4A"/>
<path d="M27.4082 23.1148H14.2263C13.8562 23.1148 13.5561 23.4148 13.5561 23.785C13.5561 24.1552 13.8562 24.4552 14.2263 24.4552H27.4083C27.7784 24.4552 28.0785 24.1552 28.0785 23.785C28.0785 23.4148 27.7784 23.1148 27.4082 23.1148Z" fill="#5F4A4A"/>
<path d="M32.77 29.3701H30.0892C29.7191 29.3701 29.419 29.6701 29.419 30.0403C29.419 30.4106 29.7191 30.7105 30.0892 30.7105H32.77C33.1402 30.7105 33.4403 30.4106 33.4403 30.0403C33.4403 29.6701 33.1402 29.3701 32.77 29.3701Z" fill="#5F4A4A"/>
<path d="M27.4082 29.3701H14.2263C13.8562 29.3701 13.5561 29.6701 13.5561 30.0403C13.5561 30.4106 13.8562 30.7105 14.2263 30.7105H27.4083C27.7784 30.7105 28.0785 30.4106 28.0785 30.0403C28.0785 29.6701 27.7784 29.3701 27.4082 29.3701Z" fill="#5F4A4A"/>
</svg>
