<svg width="48" height="49" viewBox="0 0 48 49" fill="none" xmlns="http://www.w3.org/2000/svg">
<path d="M47.0827 42.7048L35.3927 31.0149L44.6115 27.9418C45.2504 27.7288 45.6815 27.1307 45.6815 26.457C45.6815 25.7833 45.2504 25.1852 44.6115 24.9723L18.0497 16.118C17.4883 15.9295 16.8676 16.0752 16.4478 16.4961C16.028 16.9154 15.8822 17.5355 16.0697 18.0975L24.924 44.6603C25.137 45.2998 25.7352 45.7308 26.4088 45.7308C27.0825 45.7308 27.6807 45.2998 27.8936 44.6603L30.9662 35.4415L42.6562 47.1315C43.2674 47.7428 44.0684 48.0486 44.8694 48.0486C45.6704 48.0486 46.4713 47.7429 47.0827 47.1315C48.3055 45.9091 48.3055 43.9271 47.0827 42.7048Z" fill="#E58221"/>
<path d="M6.26074 6.30945V15.7007H13.2684C13.4992 15.1832 13.8173 14.699 14.2357 14.2812C15.1192 13.3962 16.2982 12.9065 17.5536 12.9065C18.0621 12.9065 18.5645 12.9886 19.0464 13.1506L26.6966 15.7007H41.739V6.30945H6.26074Z" fill="#E58221"/>
<path d="M43.3043 0.048584H4.69565C2.10637 0.048584 0 2.15496 0 4.74423V17.2659C0 19.8552 2.10637 21.9616 4.69565 21.9616H14.0585L13.1005 19.0874C13.0722 19.0026 13.0578 18.9165 13.0342 18.8311H4.69565C3.83259 18.8311 3.1304 18.1289 3.1304 17.2658V4.74423C3.1304 3.88117 3.83259 3.17898 4.69565 3.17898H43.3043C44.1673 3.17898 44.8695 3.88117 44.8695 4.74423V17.2659C44.8695 18.129 44.1673 18.8312 43.3043 18.8312H36.0878L44.737 21.7144C46.623 21.1045 47.9999 19.3525 47.9999 17.266V4.74423C47.9999 2.15496 45.8935 0.048584 43.3043 0.048584Z" fill="#E58221"/>
</svg>
