<svg width="39" height="39" viewBox="0 0 39 39" fill="none" xmlns="http://www.w3.org/2000/svg">
<path d="M3.38169 5.64936C3.38169 2.81563 5.68062 0.515869 8.51518 0.515869C11.3489 0.515869 13.6478 2.81481 13.6478 5.64936C13.6478 8.48557 11.3489 10.7845 8.51518 10.7845C5.68062 10.7837 3.38169 8.48557 3.38169 5.64936ZM26.6583 5.64936C26.6583 2.81563 28.9597 0.515869 31.7935 0.515869C34.6272 0.515869 36.927 2.81481 36.927 5.64936C36.927 8.48557 34.628 10.7845 31.7935 10.7845C28.9606 10.7837 26.6583 8.48557 26.6583 5.64936ZM38.7954 26.6751C35.614 34.0322 28.1634 38.7857 19.8137 38.7857C11.286 38.7857 3.79147 34.0082 0.720152 26.6138C0.19364 25.3472 0.793831 23.8935 2.06127 23.367C2.37254 23.2387 2.6954 23.1774 3.01329 23.1774C3.98684 23.1774 4.91072 23.7536 5.30726 24.7098C7.6062 30.2439 13.3001 33.8194 19.8137 33.8194C26.1798 33.8194 31.8407 30.2414 34.2356 24.7031C34.7803 23.444 36.2423 22.8637 37.4998 23.41C38.7606 23.9539 39.3401 25.4159 38.7954 26.6751Z" fill="white"/>
</svg>
