<svg width="25" height="16" viewBox="0 0 25 16" fill="none" xmlns="http://www.w3.org/2000/svg">
<mask id="mask0" mask-type="alpha" maskUnits="userSpaceOnUse" x="0" y="0" width="25" height="16">
<path fill-rule="evenodd" clip-rule="evenodd" d="M12.2283 0.301514C6.66996 0.301514 1.92317 3.50196 0 8.01963C1.92317 12.5373 6.66996 15.7378 12.2283 15.7378C17.7866 15.7378 22.5334 12.5373 24.4565 8.01963C22.5334 3.50196 17.7866 0.301514 12.2283 0.301514ZM12.2282 13.165C9.16004 13.165 6.66992 10.8599 6.66992 8.01959C6.66992 5.17933 9.16004 2.87418 12.2282 2.87418C15.2964 2.87418 17.7865 5.17933 17.7865 8.01959C17.7865 10.8599 15.2964 13.165 12.2282 13.165ZM12.2295 4.93232C10.3842 4.93232 8.89453 6.31129 8.89453 8.01957C8.89453 9.72785 10.3842 11.1068 12.2295 11.1068C14.0749 11.1068 15.5645 9.72785 15.5645 8.01957C15.5645 6.31129 14.0749 4.93232 12.2295 4.93232Z" fill="white"/>
</mask>
<g mask="url(#mask0)">
<rect x="-2.22266" y="-5.35852" width="28.9032" height="26.7562" fill="#4D4D4D"/>
</g>
</svg>
