<svg width="42" height="43" viewBox="0 0 42 43" fill="none" xmlns="http://www.w3.org/2000/svg">
<path d="M0.388672 11.952L3.34567 14.909L8.64695 9.60777V25.4405H12.8294V9.60777L18.1307 14.909L21.0877 11.952L10.7382 1.60254L0.388672 11.952Z" fill="white"/>
<path d="M12.8289 29.6228H8.64648V33.8053H12.8289V29.6228Z" fill="white"/>
<path d="M12.8289 37.9878H8.64648V42.1703H12.8289V37.9878Z" fill="white"/>
<path d="M39.0428 27.6529L33.7415 32.9542V17.1235H29.5591V32.9542L24.2578 27.6529L21.3008 30.6099L31.6503 40.9594L41.9998 30.6099L39.0428 27.6529Z" fill="white"/>
<path d="M33.742 8.76282H29.5596V12.9453H33.742V8.76282Z" fill="white"/>
<path d="M33.742 0.397949H29.5596V4.58041H33.742V0.397949Z" fill="white"/>
</svg>
