<?xml version="1.0" encoding="utf-8"?>
<!-- Generator: Adobe Illustrator 22.0.0, SVG Export Plug-In . SVG Version: 6.00 Build 0)  -->
<svg version="1.1" id="Capa_1" xmlns="http://www.w3.org/2000/svg" xmlns:xlink="http://www.w3.org/1999/xlink" x="0px" y="0px"
	 viewBox="0 0 512 512" style="enable-background:new 0 0 512 512;" xml:space="preserve">
<style type="text/css">
	.st0{fill:#FFFFFF;}
</style>
<path class="st0" d="M477.2,286.2c10.1-15.2,15.1-31.9,15.1-50.2c0-21.1-7.8-39.5-23.4-55.1c-15.6-15.6-34.1-23.4-55.4-23.4h-54.2
	c9.8-20.3,14.8-40,14.8-59.1c0-24-3.6-43.1-10.8-57.2C356.2,27.1,345.7,16.7,332,10c-13.7-6.7-29.2-10-46.5-10
	c-10.5,0-19.7,3.8-27.7,11.4c-8.8,8.6-15.2,19.7-19.1,33.2c-3.9,13.5-7,26.5-9.4,38.9c-2.4,12.4-6,21.2-10.9,26.3
	c-10.1,10.9-21,24-32.9,39.4c-20.7,26.9-34.8,42.8-42.2,47.7H59.1c-10.9,0-20.2,3.9-27.8,11.5c-7.7,7.7-11.5,17-11.5,27.8v196.9
	c0,10.9,3.8,20.2,11.5,27.8c7.7,7.7,17,11.5,27.8,11.5h88.6c4.5,0,18.7,4.1,42.5,12.3c25.2,8.8,47.4,15.5,66.6,20.2
	c19.2,4.6,38.6,6.9,58.3,6.9h28.6h11.1c28.9,0,52.2-8.3,69.8-24.8c17.6-16.5,26.4-39,26.2-67.5c12.3-15.8,18.5-34.1,18.5-54.8
	c0-4.5-0.3-8.9-0.9-13.2c7.8-13.7,11.7-28.5,11.7-44.3C480,300,479.1,292.9,477.2,286.2z M92.6,427.4c-3.9,3.9-8.5,5.8-13.8,5.8
	c-5.3,0-10-2-13.8-5.8c-3.9-3.9-5.8-8.5-5.8-13.8c0-5.3,1.9-9.9,5.8-13.8c3.9-3.9,8.5-5.8,13.8-5.8c5.3,0,9.9,1.9,13.8,5.8
	c3.9,3.9,5.8,8.5,5.8,13.8C98.5,418.9,96.5,423.5,92.6,427.4z M455.4,265.5c-3.3,7.1-7.1,11.8-11,14.8c1,2.1,1.8,4.4,2.6,6.9
	c2.4,7.2,3.6,14,3.6,20.2c0,14.5-4.8,27.5-14.3,38.6c2.4,6.1,3.6,12.6,3.6,19.3c0,9.1-2.1,18.1-6.4,26.9
	c-3.3,6.9-7.6,12.5-12.8,16.6c0.5,4.3,0.8,8.5,0.8,12.4c0,20.1-6.1,35.6-18.2,46.1c-11.7,10.2-28.8,15.3-50.9,15.3h-37.2
	c-27.9,0-64.4-7.7-108.5-23c-0.1,0-0.3-0.1-0.4-0.2c-0.7-0.3-3.4-1.3-8.6-3.1c-4.9-1.7-8.5-3-10.9-3.8c-2.3-0.8-5.8-2-10.5-3.5
	c-4.6-1.5-8.3-2.5-11-3.2c-2.7-0.7-5.9-1.3-9.4-1.9c-3.2-0.5-6-0.8-8.1-0.8h-9.8c-5.5,0-10-4.5-10-10V236.3c0-5.5,4.5-10,10-10h9.8
	c1.8,0,4.1-0.6,6.7-1.9c3.1-1.4,6.4-3.7,9.9-6.7c4-3.6,7.9-7.1,11.5-10.6c3.4-3.3,7.3-7.6,11.6-12.8c4.4-5.4,8-9.7,10.4-12.8
	c2.5-3.2,5.6-7.3,9.6-12.5c3.9-5.1,6.3-8.3,7.2-9.4c11.6-14.3,19.5-23.7,24.3-28.7c7.2-7.6,12.6-17.5,15.9-29.5
	c3.7-13.4,6.8-26.1,9.2-37.9c2.9-14.2,7.6-24.4,14.4-31.2c1.9-1.9,4.4-2.9,7.1-2.9c23.1,0,39.1,6.3,47.6,18.8
	c7.8,11.4,11.6,27.9,11.6,50.2c0,13.7-5.1,31.3-15.7,53.7c-6.5,13.8-10.8,25.5-12.7,34.8h97.2c12.9,0,24.5,5,34.4,14.7
	c9.9,9.8,15,21.5,15,34.7C462.9,245.1,460.5,254.6,455.4,265.5z"/>
</svg>
