<svg width="50" height="45" viewBox="0 0 50 45" fill="none" xmlns="http://www.w3.org/2000/svg">
<path d="M39.6997 0.048584H1.98498C0.888626 0.048584 0 0.937317 0 2.03356V33.0933C0 34.1897 0.888626 35.0783 1.98498 35.0783H30.1676L27.9867 32.5492H22.7777V29.3729H25.5068L25.4871 29.3489C24.7908 28.5542 24.33 27.7329 24.1084 26.9424H4.76395V8.18431H36.9206V26.9424H32.6059C33.2608 27.6382 33.9461 28.3429 34.5215 28.9132C34.9248 28.5354 35.4003 28.1175 35.9334 27.6992C37.7493 26.2735 39.5158 25.4016 41.1836 25.1079C41.3512 25.0785 41.5184 25.0565 41.6849 25.0385V2.03356C41.6846 0.937317 40.796 0.048584 39.6997 0.048584ZM13.8453 29.3729H18.907V32.549H13.8453V29.3729ZM4.91277 29.3729H9.97457V32.549H4.91277V29.3729ZM9.97457 5.75363H4.91277V2.57766H9.97457V5.75363ZM18.907 5.75363H13.8453V2.57766H18.907V5.75363ZM27.8394 5.75363H22.7777V2.57766H27.8394V5.75363ZM36.7718 5.75363H31.7101V2.57766H36.7718V5.75363Z" fill="#E58221"/>
<path d="M49.8563 35.2391C49.3633 32.5818 47.6721 30.1251 46.7078 28.8968C45.3998 27.2305 43.7394 26.5613 41.7733 26.9078C40.3692 27.1551 38.8434 27.9194 37.2378 29.18C36.1035 30.0708 35.2466 30.9623 34.8678 31.3773C33.9157 30.5571 31.2572 27.8177 29.952 26.2731C29.2965 25.4975 27.6059 23.8478 26.3445 24.9865C24.9868 26.3064 26.9757 28.4625 27.0272 28.525L35.0059 38.2915C34.9736 38.3347 34.9376 38.3722 34.8964 38.4047C34.131 39.0057 31.8982 37.9015 30.9968 37.3055C30.1728 36.7609 28.7855 36.765 28.0851 37.3147C27.8048 37.535 27.6495 37.8343 27.6479 38.1574C27.6456 38.6229 27.9499 39.1038 28.5515 39.5859C28.5583 39.5913 28.5705 39.6019 28.5879 39.6169C29.477 40.3787 31.8888 42.2759 35.0734 43.4439C37.1149 44.1927 39.1039 44.5012 40.9859 44.3614C43.32 44.1875 45.4948 43.3214 47.45 41.7863C49.5472 40.1389 50.3569 37.9361 49.8563 35.2391Z" fill="#E58221"/>
<path d="M18.8818 10.8933C18.5766 10.6372 18.1506 10.5816 17.7892 10.7501C17.4282 10.9185 17.1973 11.281 17.1973 11.6795V22.4985C17.1973 22.8971 17.4281 23.2594 17.7892 23.4278C17.9277 23.4926 18.0758 23.524 18.2229 23.524C18.4594 23.524 18.6935 23.4422 18.8818 23.2844L25.3371 17.875C25.5697 17.68 25.704 17.392 25.704 17.0887C25.704 16.7854 25.5697 16.4974 25.3371 16.3026L18.8818 10.8933Z" fill="#E58221"/>
</svg>
