<svg width="64" height="41" viewBox="0 0 64 41" fill="none" xmlns="http://www.w3.org/2000/svg">
<path d="M11.7729 3.55542H52.4775V33.0505H56.0469V0.048584H8.20361V33.0505H11.7729V3.55542Z" fill="#E58221"/>
<path d="M48.7202 33.0507V7.31287H15.5303V33.0507H48.7202ZM23.48 25.7631L28.3628 20.8802L33.4131 23.3436L37.2612 18.9603H34.1919V15.203H43.585V24.5966H39.8276V21.7318L34.3442 27.9784L29.1245 25.4325L25.2402 29.3168L19.9775 30.0277L19.4746 26.3046L23.48 25.7631Z" fill="#E58221"/>
<path d="M0 36.8079V38.6868C0 39.7224 0.842774 40.5652 1.87891 40.5652H62.1211C63.1572 40.5652 64 39.7224 64 38.6868V36.8079H0Z" fill="#E58221"/>
</svg>
