<svg width="52" height="34" viewBox="0 0 52 34" fill="none" xmlns="http://www.w3.org/2000/svg">
<mask id="path-1-inside-1" fill="white">
<path d="M51.3868 9.14847C51.3856 8.3777 51.1589 7.59597 50.6576 6.95155L46.6347 1.80424C45.9608 0.94866 44.9356 0.513083 43.911 0.511353C43.3012 0.511353 42.6804 0.667699 42.1318 1.00981L38.2093 3.4502C37.7968 3.71328 37.0895 3.89385 36.4064 3.88924C35.8756 3.89155 35.3627 3.78539 35.0241 3.61808L31.1829 1.75751C30.5633 1.45924 29.8727 1.33693 29.1781 1.33578C28.1806 1.34039 27.1704 1.58558 26.3587 2.14808L25.9104 2.46251C25.5522 2.28366 25.0047 2.01135 24.3845 1.7027C23.6408 1.33808 22.7662 1.19097 21.8829 1.18808C21.085 1.19039 20.2872 1.31328 19.5868 1.60924L16.9704 2.72558C16.5447 2.9102 15.8674 3.03078 15.1947 3.02789C14.522 3.03078 13.8458 2.9102 13.42 2.72558L10.8014 1.60866C10.3237 1.40501 9.81312 1.31789 9.30716 1.31731C8.72447 1.31789 8.14524 1.4327 7.60697 1.65078C7.06928 1.87001 6.57024 2.19366 6.17274 2.63789L1.40505 7.97732C0.876584 8.56751 0.614084 9.31058 0.615238 10.0421C0.614084 10.9144 0.987354 11.7896 1.70735 12.4029L6.15485 16.1973L4.04505 18.3983C3.46351 19.0052 3.17389 19.7921 3.17389 20.5704C3.17274 21.3983 3.50158 22.2342 4.15293 22.8498L4.58101 23.2566C4.98428 23.6391 5.46889 23.8825 5.97601 24.0123C5.72158 24.4802 5.58255 24.9931 5.5837 25.5071C5.58255 26.3356 5.91139 27.171 6.56158 27.7871L6.56043 27.7866L6.98966 28.195C7.60062 28.7742 8.39274 29.0627 9.17332 29.0621C9.59274 29.0627 10.0127 28.9785 10.4074 28.8135C10.5458 29.3754 10.832 29.9096 11.282 30.3365L11.7112 30.745C12.3222 31.3242 13.1131 31.6127 13.8949 31.6121C14.5058 31.6127 15.1197 31.4327 15.6481 31.0831C15.8027 31.5804 16.0675 32.0517 16.4708 32.4348L16.9 32.8433C17.5099 33.4225 18.302 33.711 19.0825 33.7104C19.9139 33.711 20.7533 33.3844 21.3735 32.7371L23.2381 30.79L25.7714 33.1346C26.3777 33.6971 27.156 33.9769 27.9245 33.9752C28.7685 33.9769 29.6201 33.6389 30.2414 32.9737L30.6458 32.5404C30.9949 32.1654 31.2227 31.7217 31.3549 31.2585L32.3362 32.1642C32.9437 32.7244 33.7208 33.0031 34.4881 33.0025C35.3333 33.0031 36.1872 32.665 36.8091 31.9992L37.2112 31.5665C37.6756 31.0704 37.937 30.456 38.0177 29.8283C38.2768 29.8946 38.5393 29.9396 38.8041 29.9396C39.6493 29.9396 40.5008 29.6021 41.1233 28.9369L41.5266 28.5042C42.0902 27.9002 42.3706 27.1254 42.3695 26.3615C42.3695 26.1244 42.3354 25.8885 42.2829 25.6554C42.9839 25.5625 43.6635 25.2498 44.1804 24.6948L44.5849 24.2615C45.1485 23.6575 45.4277 22.8827 45.4277 22.1183C45.4289 21.2771 45.0897 20.4285 44.4204 19.81L43.6641 19.1114L50.4902 11.564C51.1029 10.8844 51.3856 10.0098 51.3868 9.14847ZM5.34428 21.6071C5.04774 21.3267 4.9012 20.9535 4.90005 20.5704C4.9012 20.211 5.02985 19.8602 5.29466 19.5839L9.61582 15.0746C9.89735 14.781 10.2729 14.6339 10.6583 14.6333C11.0189 14.6339 11.3714 14.7637 11.65 15.0262L12.077 15.4335C12.077 15.4335 12.5189 16.0871 12.52 16.4708C12.5189 16.7581 12.4324 17.0379 12.2645 17.2802C12.25 17.2946 7.60062 22.1402 7.60062 22.1402C7.3537 22.315 7.06178 22.405 6.76466 22.4062C6.40293 22.405 6.04928 22.2758 5.77293 22.0139L5.34428 21.6071ZM9.17447 27.344C8.81274 27.3435 8.46024 27.2137 8.18274 26.9517L7.75351 26.5439L7.75235 26.5433C7.45812 26.264 7.31043 25.8896 7.31043 25.5065C7.31043 25.1471 7.44024 24.7964 7.70389 24.52C7.70389 24.52 13.4639 18.524 13.5124 18.4664C13.7875 18.2015 14.1424 18.0648 14.5087 18.0642C14.8704 18.0648 15.2229 18.194 15.5004 18.4565L15.9297 18.865C16.225 19.1442 16.3716 19.5181 16.3727 19.9017C16.3716 20.2612 16.2418 20.6125 15.9781 20.8889L10.2158 26.9039C9.93485 27.1964 9.55985 27.3429 9.17447 27.344ZM13.896 29.8941C13.5343 29.8935 13.1818 29.7637 12.9043 29.5012L12.4739 29.0933C12.1785 28.8135 12.0308 28.4396 12.0308 28.0565C12.0308 27.7358 12.1399 27.4248 12.3487 27.1658L16.36 22.979C16.6306 22.735 16.9699 22.6064 17.3212 22.6064C17.6829 22.6069 18.0354 22.7362 18.3129 22.9987L18.7433 23.4071C19.0375 23.6864 19.1852 24.0602 19.1864 24.4433C19.1852 24.8033 19.0543 25.1546 18.7918 25.4304L14.9368 29.4533C14.6564 29.7464 14.2814 29.8929 13.896 29.8941ZM20.1245 31.5516C19.8441 31.8446 19.4685 31.9912 19.0831 31.9923C18.7214 31.9917 18.3689 31.8619 18.0914 31.5994L17.6622 31.1916C17.3679 30.9123 17.2202 30.5379 17.2191 30.1548C17.2202 29.7948 17.35 29.4435 17.6137 29.1683L20.0466 26.6281C20.3281 26.335 20.7037 26.1879 21.0891 26.1873C21.4497 26.1879 21.8033 26.3171 22.0808 26.5802L22.5112 26.9881C22.8054 27.2673 22.952 27.6412 22.9531 28.0242C22.952 28.3842 22.8222 28.7356 22.5585 29.0114L20.1245 31.5516ZM43.3208 23.0933L42.9175 23.526C42.636 23.8271 42.2541 23.9794 41.8629 23.98C41.5081 23.9794 41.1608 23.8548 40.8851 23.5998L34.0889 17.3148L32.9137 18.5731L40.1881 25.3121C40.491 25.5925 40.6433 25.9733 40.6456 26.3621C40.6433 26.7164 40.5181 27.0614 40.2626 27.336L39.8604 27.7687C39.5789 28.0698 39.197 28.2215 38.8058 28.2227C38.451 28.2215 38.1026 28.0964 37.8291 27.8431L31.0312 21.5581L29.8572 22.8164L35.89 28.3952C36.1808 28.6739 36.3297 29.0448 36.3297 29.4256C36.3297 29.7787 36.2045 30.1242 35.9489 30.3983L35.5456 30.831C35.2652 31.1321 34.8822 31.2844 34.4899 31.2856C34.1339 31.2844 33.7866 31.1592 33.512 30.906L27.4912 25.3473H27.49L27.4889 25.3462L26.3172 26.6067L26.3183 26.6079L26.3408 26.6292L29.3564 29.4123C29.6235 29.6869 29.762 30.0389 29.7631 30.4029C29.762 30.7542 29.6379 31.0981 29.3824 31.3721L28.9791 31.8054C28.6975 32.1065 28.3168 32.2577 27.9268 32.2589C27.572 32.2577 27.2247 32.1331 26.95 31.8787L24.3245 29.4475C24.5529 28.9992 24.6804 28.5129 24.6804 28.0248C24.6816 27.1969 24.3527 26.3621 23.7025 25.7454L23.2722 25.3369C22.6624 24.7583 21.8714 24.4692 21.0908 24.4704C21.0302 24.4704 20.9691 24.4842 20.9097 24.4877C20.9097 24.4733 20.9131 24.4583 20.9131 24.4439C20.9143 23.616 19.9352 22.1633 19.9352 22.1633L19.506 21.756C19.0497 21.3233 18.4929 21.0533 17.9137 20.9448C18.0331 20.6067 18.1006 20.2548 18.1006 19.9023C18.1006 19.0744 17.7729 18.239 17.1227 17.6229L16.6935 17.2144C16.0825 16.6352 15.2916 16.3462 14.511 16.3467C14.4199 16.3467 14.3299 16.3652 14.2393 16.3733C14.2145 15.5783 13.8943 14.7839 13.2712 14.1919V14.1914L12.8431 13.7846C12.2322 13.2048 11.4412 12.9158 10.6606 12.9164C9.82812 12.9158 8.98985 13.2423 8.36966 13.8896L7.34966 14.954L2.8312 11.1002C2.50639 10.8221 2.34428 10.4379 2.34312 10.0433C2.34428 9.7127 2.45678 9.38905 2.69678 9.1202L7.46447 3.78078C7.6537 3.56847 7.93351 3.37635 8.2612 3.24308C8.58889 3.10981 8.96101 3.03655 9.30889 3.03712C9.61178 3.03712 9.8962 3.09193 10.1235 3.19001L12.741 4.30693C13.4789 4.61789 14.3356 4.74539 15.1964 4.74828C16.0583 4.74539 16.9139 4.61789 17.6518 4.30693L20.2681 3.19058C20.6714 3.01462 21.28 2.90558 21.8852 2.90789C22.5545 2.90385 23.2249 3.04231 23.6137 3.24078C23.8606 3.36366 24.0949 3.4802 24.3124 3.58924L21.6441 5.46482C20.7868 6.0677 20.3247 7.02655 20.3258 7.99405C20.3247 8.63443 20.5277 9.28636 20.9408 9.83962L20.9397 9.83847L21.2922 10.3121C21.9614 11.2017 23.005 11.6592 24.0481 11.6615C24.6372 11.6615 25.2372 11.5127 25.772 11.1919L27.3677 10.2337C27.6931 10.0346 28.1847 9.90886 28.6929 9.91116C29.29 9.9077 29.8918 10.0842 30.2535 10.3502L34.6681 13.5152C35.6506 14.219 37.251 15.5246 38.1377 16.3462L43.2476 21.0706C43.5504 21.3515 43.7027 21.7306 43.7039 22.12C43.7033 22.4731 43.577 22.8187 43.3208 23.0933ZM49.2089 10.4154L42.4018 17.9425L39.3112 15.0856C38.3431 14.1919 36.7468 12.8887 35.676 12.1196L31.2626 8.95462C30.5143 8.42443 29.5981 8.19539 28.6924 8.19193C27.9216 8.19424 27.1451 8.36212 26.4747 8.76135L24.88 9.71962C24.6354 9.86674 24.347 9.94174 24.0476 9.94232C23.5122 9.94405 22.9762 9.69424 22.6774 9.28751L22.326 8.81443L22.3249 8.81328C22.1379 8.56116 22.0508 8.27847 22.0497 7.99232C22.052 7.55962 22.2516 7.13962 22.6381 6.86674L27.3562 3.55174C27.7641 3.25635 28.4899 3.04924 29.1793 3.05443C29.6581 3.05212 30.1156 3.14847 30.4289 3.30308L34.2701 5.16366C34.9249 5.47808 35.6639 5.60674 36.4076 5.60847C37.3629 5.60385 38.3287 5.39616 39.1243 4.90751L43.0479 2.46655C43.2983 2.3102 43.5989 2.22943 43.9122 2.22943C44.4418 2.22828 44.9725 2.46828 45.2731 2.86001L49.296 8.00731C49.5279 8.30212 49.6624 8.71808 49.6624 9.14905C49.6629 9.63135 49.4927 10.1056 49.2089 10.4154Z"/>
</mask>
<path d="M51.3868 9.14847C51.3856 8.3777 51.1589 7.59597 50.6576 6.95155L46.6347 1.80424C45.9608 0.94866 44.9356 0.513083 43.911 0.511353C43.3012 0.511353 42.6804 0.667699 42.1318 1.00981L38.2093 3.4502C37.7968 3.71328 37.0895 3.89385 36.4064 3.88924C35.8756 3.89155 35.3627 3.78539 35.0241 3.61808L31.1829 1.75751C30.5633 1.45924 29.8727 1.33693 29.1781 1.33578C28.1806 1.34039 27.1704 1.58558 26.3587 2.14808L25.9104 2.46251C25.5522 2.28366 25.0047 2.01135 24.3845 1.7027C23.6408 1.33808 22.7662 1.19097 21.8829 1.18808C21.085 1.19039 20.2872 1.31328 19.5868 1.60924L16.9704 2.72558C16.5447 2.9102 15.8674 3.03078 15.1947 3.02789C14.522 3.03078 13.8458 2.9102 13.42 2.72558L10.8014 1.60866C10.3237 1.40501 9.81312 1.31789 9.30716 1.31731C8.72447 1.31789 8.14524 1.4327 7.60697 1.65078C7.06928 1.87001 6.57024 2.19366 6.17274 2.63789L1.40505 7.97732C0.876584 8.56751 0.614084 9.31058 0.615238 10.0421C0.614084 10.9144 0.987354 11.7896 1.70735 12.4029L6.15485 16.1973L4.04505 18.3983C3.46351 19.0052 3.17389 19.7921 3.17389 20.5704C3.17274 21.3983 3.50158 22.2342 4.15293 22.8498L4.58101 23.2566C4.98428 23.6391 5.46889 23.8825 5.97601 24.0123C5.72158 24.4802 5.58255 24.9931 5.5837 25.5071C5.58255 26.3356 5.91139 27.171 6.56158 27.7871L6.56043 27.7866L6.98966 28.195C7.60062 28.7742 8.39274 29.0627 9.17332 29.0621C9.59274 29.0627 10.0127 28.9785 10.4074 28.8135C10.5458 29.3754 10.832 29.9096 11.282 30.3365L11.7112 30.745C12.3222 31.3242 13.1131 31.6127 13.8949 31.6121C14.5058 31.6127 15.1197 31.4327 15.6481 31.0831C15.8027 31.5804 16.0675 32.0517 16.4708 32.4348L16.9 32.8433C17.5099 33.4225 18.302 33.711 19.0825 33.7104C19.9139 33.711 20.7533 33.3844 21.3735 32.7371L23.2381 30.79L25.7714 33.1346C26.3777 33.6971 27.156 33.9769 27.9245 33.9752C28.7685 33.9769 29.6201 33.6389 30.2414 32.9737L30.6458 32.5404C30.9949 32.1654 31.2227 31.7217 31.3549 31.2585L32.3362 32.1642C32.9437 32.7244 33.7208 33.0031 34.4881 33.0025C35.3333 33.0031 36.1872 32.665 36.8091 31.9992L37.2112 31.5665C37.6756 31.0704 37.937 30.456 38.0177 29.8283C38.2768 29.8946 38.5393 29.9396 38.8041 29.9396C39.6493 29.9396 40.5008 29.6021 41.1233 28.9369L41.5266 28.5042C42.0902 27.9002 42.3706 27.1254 42.3695 26.3615C42.3695 26.1244 42.3354 25.8885 42.2829 25.6554C42.9839 25.5625 43.6635 25.2498 44.1804 24.6948L44.5849 24.2615C45.1485 23.6575 45.4277 22.8827 45.4277 22.1183C45.4289 21.2771 45.0897 20.4285 44.4204 19.81L43.6641 19.1114L50.4902 11.564C51.1029 10.8844 51.3856 10.0098 51.3868 9.14847ZM5.34428 21.6071C5.04774 21.3267 4.9012 20.9535 4.90005 20.5704C4.9012 20.211 5.02985 19.8602 5.29466 19.5839L9.61582 15.0746C9.89735 14.781 10.2729 14.6339 10.6583 14.6333C11.0189 14.6339 11.3714 14.7637 11.65 15.0262L12.077 15.4335C12.077 15.4335 12.5189 16.0871 12.52 16.4708C12.5189 16.7581 12.4324 17.0379 12.2645 17.2802C12.25 17.2946 7.60062 22.1402 7.60062 22.1402C7.3537 22.315 7.06178 22.405 6.76466 22.4062C6.40293 22.405 6.04928 22.2758 5.77293 22.0139L5.34428 21.6071ZM9.17447 27.344C8.81274 27.3435 8.46024 27.2137 8.18274 26.9517L7.75351 26.5439L7.75235 26.5433C7.45812 26.264 7.31043 25.8896 7.31043 25.5065C7.31043 25.1471 7.44024 24.7964 7.70389 24.52C7.70389 24.52 13.4639 18.524 13.5124 18.4664C13.7875 18.2015 14.1424 18.0648 14.5087 18.0642C14.8704 18.0648 15.2229 18.194 15.5004 18.4565L15.9297 18.865C16.225 19.1442 16.3716 19.5181 16.3727 19.9017C16.3716 20.2612 16.2418 20.6125 15.9781 20.8889L10.2158 26.9039C9.93485 27.1964 9.55985 27.3429 9.17447 27.344ZM13.896 29.8941C13.5343 29.8935 13.1818 29.7637 12.9043 29.5012L12.4739 29.0933C12.1785 28.8135 12.0308 28.4396 12.0308 28.0565C12.0308 27.7358 12.1399 27.4248 12.3487 27.1658L16.36 22.979C16.6306 22.735 16.9699 22.6064 17.3212 22.6064C17.6829 22.6069 18.0354 22.7362 18.3129 22.9987L18.7433 23.4071C19.0375 23.6864 19.1852 24.0602 19.1864 24.4433C19.1852 24.8033 19.0543 25.1546 18.7918 25.4304L14.9368 29.4533C14.6564 29.7464 14.2814 29.8929 13.896 29.8941ZM20.1245 31.5516C19.8441 31.8446 19.4685 31.9912 19.0831 31.9923C18.7214 31.9917 18.3689 31.8619 18.0914 31.5994L17.6622 31.1916C17.3679 30.9123 17.2202 30.5379 17.2191 30.1548C17.2202 29.7948 17.35 29.4435 17.6137 29.1683L20.0466 26.6281C20.3281 26.335 20.7037 26.1879 21.0891 26.1873C21.4497 26.1879 21.8033 26.3171 22.0808 26.5802L22.5112 26.9881C22.8054 27.2673 22.952 27.6412 22.9531 28.0242C22.952 28.3842 22.8222 28.7356 22.5585 29.0114L20.1245 31.5516ZM43.3208 23.0933L42.9175 23.526C42.636 23.8271 42.2541 23.9794 41.8629 23.98C41.5081 23.9794 41.1608 23.8548 40.8851 23.5998L34.0889 17.3148L32.9137 18.5731L40.1881 25.3121C40.491 25.5925 40.6433 25.9733 40.6456 26.3621C40.6433 26.7164 40.5181 27.0614 40.2626 27.336L39.8604 27.7687C39.5789 28.0698 39.197 28.2215 38.8058 28.2227C38.451 28.2215 38.1026 28.0964 37.8291 27.8431L31.0312 21.5581L29.8572 22.8164L35.89 28.3952C36.1808 28.6739 36.3297 29.0448 36.3297 29.4256C36.3297 29.7787 36.2045 30.1242 35.9489 30.3983L35.5456 30.831C35.2652 31.1321 34.8822 31.2844 34.4899 31.2856C34.1339 31.2844 33.7866 31.1592 33.512 30.906L27.4912 25.3473H27.49L27.4889 25.3462L26.3172 26.6067L26.3183 26.6079L26.3408 26.6292L29.3564 29.4123C29.6235 29.6869 29.762 30.0389 29.7631 30.4029C29.762 30.7542 29.6379 31.0981 29.3824 31.3721L28.9791 31.8054C28.6975 32.1065 28.3168 32.2577 27.9268 32.2589C27.572 32.2577 27.2247 32.1331 26.95 31.8787L24.3245 29.4475C24.5529 28.9992 24.6804 28.5129 24.6804 28.0248C24.6816 27.1969 24.3527 26.3621 23.7025 25.7454L23.2722 25.3369C22.6624 24.7583 21.8714 24.4692 21.0908 24.4704C21.0302 24.4704 20.9691 24.4842 20.9097 24.4877C20.9097 24.4733 20.9131 24.4583 20.9131 24.4439C20.9143 23.616 19.9352 22.1633 19.9352 22.1633L19.506 21.756C19.0497 21.3233 18.4929 21.0533 17.9137 20.9448C18.0331 20.6067 18.1006 20.2548 18.1006 19.9023C18.1006 19.0744 17.7729 18.239 17.1227 17.6229L16.6935 17.2144C16.0825 16.6352 15.2916 16.3462 14.511 16.3467C14.4199 16.3467 14.3299 16.3652 14.2393 16.3733C14.2145 15.5783 13.8943 14.7839 13.2712 14.1919V14.1914L12.8431 13.7846C12.2322 13.2048 11.4412 12.9158 10.6606 12.9164C9.82812 12.9158 8.98985 13.2423 8.36966 13.8896L7.34966 14.954L2.8312 11.1002C2.50639 10.8221 2.34428 10.4379 2.34312 10.0433C2.34428 9.7127 2.45678 9.38905 2.69678 9.1202L7.46447 3.78078C7.6537 3.56847 7.93351 3.37635 8.2612 3.24308C8.58889 3.10981 8.96101 3.03655 9.30889 3.03712C9.61178 3.03712 9.8962 3.09193 10.1235 3.19001L12.741 4.30693C13.4789 4.61789 14.3356 4.74539 15.1964 4.74828C16.0583 4.74539 16.9139 4.61789 17.6518 4.30693L20.2681 3.19058C20.6714 3.01462 21.28 2.90558 21.8852 2.90789C22.5545 2.90385 23.2249 3.04231 23.6137 3.24078C23.8606 3.36366 24.0949 3.4802 24.3124 3.58924L21.6441 5.46482C20.7868 6.0677 20.3247 7.02655 20.3258 7.99405C20.3247 8.63443 20.5277 9.28636 20.9408 9.83962L20.9397 9.83847L21.2922 10.3121C21.9614 11.2017 23.005 11.6592 24.0481 11.6615C24.6372 11.6615 25.2372 11.5127 25.772 11.1919L27.3677 10.2337C27.6931 10.0346 28.1847 9.90886 28.6929 9.91116C29.29 9.9077 29.8918 10.0842 30.2535 10.3502L34.6681 13.5152C35.6506 14.219 37.251 15.5246 38.1377 16.3462L43.2476 21.0706C43.5504 21.3515 43.7027 21.7306 43.7039 22.12C43.7033 22.4731 43.577 22.8187 43.3208 23.0933ZM49.2089 10.4154L42.4018 17.9425L39.3112 15.0856C38.3431 14.1919 36.7468 12.8887 35.676 12.1196L31.2626 8.95462C30.5143 8.42443 29.5981 8.19539 28.6924 8.19193C27.9216 8.19424 27.1451 8.36212 26.4747 8.76135L24.88 9.71962C24.6354 9.86674 24.347 9.94174 24.0476 9.94232C23.5122 9.94405 22.9762 9.69424 22.6774 9.28751L22.326 8.81443L22.3249 8.81328C22.1379 8.56116 22.0508 8.27847 22.0497 7.99232C22.052 7.55962 22.2516 7.13962 22.6381 6.86674L27.3562 3.55174C27.7641 3.25635 28.4899 3.04924 29.1793 3.05443C29.6581 3.05212 30.1156 3.14847 30.4289 3.30308L34.2701 5.16366C34.9249 5.47808 35.6639 5.60674 36.4076 5.60847C37.3629 5.60385 38.3287 5.39616 39.1243 4.90751L43.0479 2.46655C43.2983 2.3102 43.5989 2.22943 43.9122 2.22943C44.4418 2.22828 44.9725 2.46828 45.2731 2.86001L49.296 8.00731C49.5279 8.30212 49.6624 8.71808 49.6624 9.14905C49.6629 9.63135 49.4927 10.1056 49.2089 10.4154Z" stroke="#0A63AF" stroke-width="2" mask="url(#path-1-inside-1)"/>
</svg>
