<svg width="18" height="19" viewBox="0 0 18 19" fill="none" xmlns="http://www.w3.org/2000/svg">
<mask id="mask0" mask-type="alpha" maskUnits="userSpaceOnUse" x="0" y="0" width="18" height="19">
<path fill-rule="evenodd" clip-rule="evenodd" d="M15.6045 1.86667H14.6292V0H12.6787V1.86667H4.8764V0H2.92584V1.86667H1.95056C0.868 1.86667 0.00975281 2.70667 0.00975281 3.73333L0 16.8C0 17.8267 0.868 18.6667 1.95056 18.6667H15.6045C16.6773 18.6667 17.5551 17.8267 17.5551 16.8V3.73333C17.5551 2.70667 16.6773 1.86667 15.6045 1.86667ZM15.6041 16.8H1.9502V6.53333H15.6041V16.8ZM3.9013 8.40002H8.77771V13.0667H3.9013V8.40002Z" fill="white"/>
</mask>
<g mask="url(#mask0)">
<rect x="-3.90039" y="-2.80005" width="25.3573" height="24.2667" fill="white"/>
</g>
</svg>
