<svg width="40" height="30" viewBox="0 0 40 30" fill="none" xmlns="http://www.w3.org/2000/svg">
<path d="M0.870629 29.6475C1.21347 29.8786 2.53585 30.5238 3.65253 29.1371L11.2146 18.2744L19.2175 25.8629C19.6387 26.2577 20.2166 26.4696 20.8043 26.4022C21.3823 26.3444 21.9112 26.0458 22.2541 25.574L35.5269 6.86286L36.0069 13.1224C36.1244 14.7113 37.6427 14.9713 38.1521 14.9328C39.2491 14.8461 40.0818 13.912 39.9936 12.8238L39.1512 1.81674C39.0728 0.738177 38.1129 -0.0803738 37.006 0.00629632L25.8098 0.834477C24.7127 0.911517 23.8801 1.85526 23.9683 2.94345C24.0466 4.02201 24.9968 4.83093 26.1135 4.75389L32.4805 4.28202L20.3146 21.4234L12.2921 13.8157C11.8709 13.4113 11.2832 13.209 10.7052 13.2765C10.1175 13.3342 9.58857 13.6424 9.25552 14.1239L0.351472 26.9125C-0.275436 27.8081 -0.0403463 29.0312 0.870629 29.6475Z" fill="white"/>
</svg>
