<svg width="23" height="23" viewBox="0 0 23 23" fill="none" xmlns="http://www.w3.org/2000/svg">
<path fill-rule="evenodd" clip-rule="evenodd" d="M20.1751 17.397C20.1751 15.9048 18.5848 14.6088 16.2207 13.8792C15.2093 15.1697 13.6522 16.0153 11.885 16.0153C10.1178 16.0153 8.56069 15.1697 7.5493 13.8792C5.18525 14.6088 3.59494 15.9048 3.59494 17.397V20.1603H4.97661H5.74621H16.0301H17.4117H18.0238H20.1751V17.397ZM14.6484 6.34358C14.6484 4.81682 13.4118 3.58022 11.885 3.58022C10.3583 3.58022 9.12165 4.81682 9.12165 6.34358V10.4886C9.12165 12.0154 10.3583 13.252 11.885 13.252C13.4118 13.252 14.6484 12.0154 14.6484 10.4886V6.34358ZM21.5562 22.9237H18.4558H5.31322H2.21273C1.45005 22.9237 0.831055 22.3047 0.831055 21.542V17.397C0.831055 14.8215 3.10806 12.5998 6.45173 11.4129C6.39922 11.1117 6.35777 10.805 6.35777 10.4886V6.34355C6.35777 3.29142 8.83236 0.816833 11.8845 0.816833C14.9366 0.816833 17.4112 3.29142 17.4112 6.34355V10.4886C17.4112 10.805 17.3698 11.1117 17.3173 11.4129C20.6609 12.5998 22.9379 14.8215 22.9379 17.397V21.542C22.9379 22.3047 22.3189 22.9237 21.5562 22.9237Z" fill="#CED0DA"/>
</svg>
