<svg width="23" height="20" viewBox="0 0 23 20" fill="none" xmlns="http://www.w3.org/2000/svg">
<path d="M13.8795 3.32213C14.943 3.98891 15.6887 5.11724 15.8244 6.42697C16.2582 6.62961 16.7395 6.74615 17.2499 6.74615C19.113 6.74615 20.6231 5.23607 20.6231 3.37322C20.6231 1.51008 19.113 0 17.2499 0C15.4045 0.000574067 13.9076 1.48368 13.8795 3.32213ZM11.6696 10.2287C13.5328 10.2287 15.0429 8.71836 15.0429 6.85551C15.0429 4.99266 13.5325 3.48258 11.6696 3.48258C9.80679 3.48258 8.29585 4.99295 8.29585 6.8558C8.29585 8.71865 9.80679 10.2287 11.6696 10.2287ZM13.1005 10.4586H10.2382C7.85668 10.4586 5.91921 12.3964 5.91921 14.7779V18.2783L5.9281 18.3331L6.16921 18.4086C8.44195 19.1187 10.4164 19.3555 12.0416 19.3555C15.2159 19.3555 17.0558 18.4505 17.1692 18.3928L17.3945 18.2789H17.4186V14.7779C17.4195 12.3964 15.482 10.4586 13.1005 10.4586ZM18.6813 6.97635H15.8411C15.8104 8.11272 15.3253 9.13599 14.5581 9.87195C16.6749 10.5014 18.2238 12.4644 18.2238 14.7831V15.8618C21.0281 15.759 22.6441 14.9642 22.7506 14.9108L22.9759 14.7966H23V11.2951C23 8.91383 21.0625 6.97635 18.6813 6.97635ZM5.75072 6.74672C6.41061 6.74672 7.02457 6.55412 7.54468 6.22605C7.71001 5.14766 8.2881 4.20533 9.11389 3.56352C9.11734 3.50037 9.12336 3.4378 9.12336 3.37408C9.12336 1.51095 7.61299 0.000861038 5.75072 0.000861038C3.8873 0.000861038 2.3775 1.51095 2.3775 3.37408C2.3775 5.23635 3.8873 6.74672 5.75072 6.74672ZM8.78007 9.87195C8.01656 9.13972 7.5332 8.1219 7.49789 6.99243C7.39255 6.98468 7.28836 6.97635 7.18101 6.97635H4.31899C1.93748 6.97635 0 8.91383 0 11.2951V14.796L0.00889804 14.85L0.250006 14.926C2.07324 15.4952 3.70044 15.7576 5.11379 15.8402V14.7831C5.11436 12.4644 6.66262 10.502 8.78007 9.87195Z" fill="#0A63AF"/>
</svg>
