<svg width="50" height="49" viewBox="0 0 50 49" fill="none" xmlns="http://www.w3.org/2000/svg">
<path d="M24.9998 0.811711L25.0001 0.811711C29.3853 0.811282 33.6857 2.01969 37.4288 4.30414C41.172 6.58859 44.2129 9.86067 46.2175 13.7608C48.2222 17.661 49.1129 22.0382 48.7918 26.4116C48.4707 30.785 46.9502 34.9853 44.3975 38.5509C41.8448 42.1164 38.3585 44.9093 34.3219 46.6226C30.2853 48.3358 25.8545 48.9032 21.5164 48.2623C17.1783 47.6215 13.1008 45.7971 9.73202 42.9898C6.36412 40.1833 3.83483 36.5029 2.4219 32.3529C2.41893 32.3438 2.41581 32.3353 2.41269 32.3275L2.41137 32.3218L2.4054 32.3042C1.18944 28.7157 0.846255 24.8891 1.40428 21.1416C1.96231 17.394 3.40549 13.8334 5.61419 10.7549C7.82289 7.67635 10.7335 5.16857 14.1048 3.43939C17.4761 1.71021 21.211 0.809432 24.9998 0.811711ZM2.42499 32.4521L2.42501 32.4518L2.42499 32.4521ZM24.8298 36.6966L24.8298 36.6967L24.8342 36.69C25.118 36.2594 25.2549 35.7487 25.2248 35.2339C25.1946 34.7196 24.9991 34.2287 24.6675 33.8344C24.4053 33.5209 24.0669 33.2801 23.6848 33.1351L23.6828 33.1344L16.8472 30.583C16.8469 30.5829 16.8466 30.5828 16.8464 30.5827C15.368 30.026 13.7552 29.9326 12.2225 30.3152L12.2223 30.3152L3.7547 32.4324L3.34309 32.5353L3.49579 32.9311C4.65238 35.9295 6.4218 38.6536 8.69096 40.9293L8.76705 41.0056L8.87205 41.0299L19.8563 43.5689L19.857 43.5691C21.1287 43.8604 22.4476 43.8789 23.7269 43.6234C25.0062 43.3678 26.2167 42.8439 27.2788 42.0864L27.2789 42.0863L43.2646 30.6744C43.2646 30.6743 43.2647 30.6743 43.2647 30.6743C43.5101 30.4992 43.7144 30.2727 43.8634 30.0107C44.0124 29.7485 44.1024 29.4571 44.1273 29.1566C44.1522 28.8561 44.1113 28.5539 44.0074 28.2708C43.9036 27.9878 43.7393 27.7307 43.526 27.5177L43.5253 27.517C43.2629 27.2562 42.9358 27.0699 42.5777 26.9772C42.2196 26.8844 41.8432 26.8886 41.4872 26.9893L41.4643 26.9958L41.4425 27.0051L25.9605 33.5912L25.6091 33.7407L25.765 34.0894C25.9818 34.5743 26.0733 35.1059 26.0313 35.6354C25.9893 36.1649 25.8151 36.6754 25.5245 37.12C25.234 37.5647 24.8365 37.9293 24.3684 38.1804C23.9004 38.4316 23.3768 38.5612 22.8456 38.5574L22.8436 38.5574C22.5041 38.5567 22.1668 38.5027 21.8441 38.3974C21.8436 38.3972 21.8432 38.3971 21.8427 38.3969L14.4758 35.9417C14.4757 35.9417 14.4757 35.9417 14.4757 35.9416C14.4251 35.9247 14.3782 35.898 14.3379 35.8631C14.2976 35.8281 14.2645 35.7854 14.2406 35.7377C14.2168 35.6899 14.2025 35.6379 14.1987 35.5846C14.195 35.5313 14.2017 35.4778 14.2186 35.4272C14.2355 35.3765 14.2622 35.3297 14.2972 35.2893L14.014 35.0436L14.2972 35.2893C14.3322 35.249 14.3748 35.2159 14.4226 35.192C14.4704 35.1682 14.5224 35.1539 14.5757 35.1501C14.629 35.1464 14.6824 35.1531 14.7331 35.17L14.7332 35.17L22.0961 37.6241L22.1 37.6254C22.5944 37.7843 23.1268 37.7798 23.6185 37.6125C24.1101 37.4452 24.5349 37.1241 24.8298 36.6966ZM11.569 42.4877L11.2602 43.1536L25.0001 47.335L25.0001 47.71C25.0002 47.71 25.0003 47.71 25.0005 47.71C29.8501 47.7099 34.5762 46.1796 38.5055 43.3372C42.435 40.4946 45.3674 36.4848 46.8851 31.8785C48.4029 27.2723 48.4286 22.3047 46.9586 17.683C45.4886 13.0614 42.5978 9.02134 38.698 6.1383C34.7982 3.25525 30.0881 1.67619 25.2385 1.62597C20.389 1.57576 15.6472 3.05696 11.6885 5.85863C7.72981 8.66031 4.75602 12.6396 3.19064 17.2298C1.62525 21.8201 1.54809 26.7872 2.97013 31.4238L3.07445 31.764L3.4196 31.6777L12.0274 29.5257C12.0275 29.5257 12.0275 29.5257 12.0276 29.5257C13.7195 29.1035 15.4998 29.2066 17.1316 29.8212L17.1327 29.8216L23.9744 32.3753C24.313 32.5083 24.6273 32.6961 24.9047 32.9314L25.0812 33.0811L25.2941 32.9905L41.1664 26.2385C41.1667 26.2384 41.1669 26.2383 41.1672 26.2382C41.1748 26.235 41.1825 26.232 41.1903 26.2293C41.196 26.2273 41.2019 26.2255 41.2078 26.2238L41.2112 26.2227C41.713 26.0699 42.2469 26.0561 42.7559 26.183C43.2648 26.3098 43.7297 26.5723 44.1011 26.9425C44.3979 27.2391 44.6265 27.5968 44.771 27.9907C44.9155 28.3846 44.9724 28.8053 44.9378 29.2234C44.9033 29.6416 44.778 30.0472 44.5708 30.412C44.3636 30.7768 44.0794 31.0921 43.738 31.336L27.7515 42.7483L27.7515 42.7483C26.5958 43.5735 25.2782 44.1439 23.8857 44.422C22.4932 44.7 21.0576 44.6793 19.6737 44.3612L11.569 42.4877Z" stroke="#0A63AF" stroke-width="0.75"/>
<path d="M13.6883 10.5968L13.6883 10.5971L13.6883 10.5974C13.6898 11.5259 14.0594 12.416 14.7162 13.0723C15.3731 13.7286 16.2634 14.0976 17.1919 14.0984H17.1922C17.8853 14.0983 18.5627 13.8928 19.1389 13.5076C19.7151 13.1225 20.1642 12.5752 20.4292 11.9348C20.6943 11.2945 20.7635 10.5899 20.6281 9.91021C20.4927 9.23051 20.1588 8.60624 19.6686 8.11636C19.1783 7.62648 18.5538 7.293 17.874 7.15809C17.1942 7.02319 16.4897 7.09292 15.8495 7.35847C15.2094 7.62402 14.6624 8.07346 14.2777 8.64994C13.893 9.22635 13.6879 9.90388 13.6883 10.5968ZM13.6883 10.5968L13.6883 10.5968H14.0633L13.6883 10.5968ZM19.7409 14.0707L19.2406 14.4367L19.7971 14.7099C20.7813 15.1931 21.6101 15.9429 22.1893 16.8738C22.7685 17.8048 23.0748 18.8796 23.0734 19.976V19.9765V25.4479C23.0733 25.5558 23.0305 25.6592 22.9542 25.7355C22.878 25.8117 22.7745 25.8546 22.6667 25.8546H11.7177C11.6098 25.8546 11.5064 25.8117 11.4301 25.7355L11.1654 26.0002L11.4301 25.7355C11.3539 25.6592 11.311 25.5558 11.311 25.448V19.9768C11.3128 18.8808 11.6209 17.8072 12.2005 16.8771C12.7802 15.9469 13.6084 15.1972 14.5915 14.7127L15.1474 14.4388L14.6469 14.0735C13.9113 13.5366 13.3644 12.7809 13.0843 11.9144C12.8042 11.0479 12.8053 10.115 13.0874 9.24919C13.3696 8.38336 13.9183 7.62892 14.655 7.09376C15.3918 6.55861 16.279 6.27016 17.1896 6.26965C18.1002 6.26915 18.9877 6.55663 19.7251 7.09097C20.4625 7.62531 21.012 8.37915 21.2951 9.24467C21.5781 10.1102 21.5802 11.043 21.3011 11.9098C21.022 12.7766 20.4759 13.533 19.7409 14.0707ZM21.8851 25.0413H22.2601V24.6663V19.9765V19.976C22.2583 18.6331 21.7236 17.3457 20.7734 16.3967C19.8232 15.4477 18.5351 14.9147 17.1922 14.9147C15.8492 14.9147 14.5612 15.4477 13.611 16.3967C12.6607 17.3457 12.126 18.6331 12.1243 19.976V19.9765V24.6663V25.0413H12.4993H21.8851Z" stroke="#0A63AF" stroke-width="0.75"/>
<path d="M33.8183 14.0707L33.3182 14.4367L33.8744 14.71C34.8584 15.1934 35.6871 15.9432 36.2662 16.8741C36.8453 17.805 37.1517 18.8798 37.1505 19.9761V19.9765V25.448C37.1505 25.5558 37.1076 25.6593 37.0314 25.7355C36.9551 25.8118 36.8517 25.8546 36.7439 25.8546H25.7948C25.687 25.8546 25.5836 25.8118 25.5073 25.7355C25.431 25.6593 25.3882 25.5558 25.3882 25.448V19.9768C25.39 18.8809 25.6981 17.8073 26.2777 16.8771C26.8574 15.9469 27.6855 15.1972 28.6687 14.7128L29.2245 14.4389L28.724 14.0735C27.9885 13.5366 27.4416 12.7808 27.1615 11.9143C26.8814 11.0478 26.8825 10.1149 27.1646 9.24905C27.4468 8.3832 27.9955 7.62874 28.7323 7.09358C29.4691 6.55842 30.3563 6.26996 31.267 6.26947C32.1776 6.26898 33.0651 6.55647 33.8025 7.09083C34.5399 7.6252 35.0894 8.37906 35.3725 9.2446C35.6556 10.1101 35.6577 11.043 35.3786 11.9099C35.0994 12.7767 34.5533 13.533 33.8183 14.0707ZM27.7655 10.5971L27.7655 10.5974C27.7669 11.526 28.1366 12.416 28.7934 13.0723C29.4502 13.7287 30.3405 14.0977 31.269 14.0984H31.2693C31.9624 14.0984 32.64 13.8929 33.2162 13.5077C33.7925 13.1226 34.2416 12.5752 34.5067 11.9348C34.7718 11.2945 34.8411 10.5898 34.7057 9.91007C34.5703 9.23032 34.2363 8.606 33.746 8.11608C33.2557 7.62616 32.6312 7.29266 31.9513 7.15775C31.2715 7.02284 30.5669 7.0926 29.9267 7.35819C29.2865 7.62378 28.7395 8.07327 28.3548 8.64982C27.9701 9.22636 27.765 9.90404 27.7655 10.5971ZM35.9622 25.0414H36.3372V24.6664V19.9765V19.976C36.3355 18.6331 35.8008 17.3457 34.8506 16.3967C33.9003 15.4477 32.6123 14.9147 31.2693 14.9147C29.9264 14.9147 28.6383 15.4477 27.6881 16.3967C26.7379 17.3457 26.2032 18.6331 26.2015 19.976V19.9765V24.6664V25.0414H26.5765H35.9622Z" stroke="#0A63AF" stroke-width="0.75"/>
</svg>
