<svg width="80" height="77" viewBox="0 0 80 77" fill="none" xmlns="http://www.w3.org/2000/svg">
<path d="M70.9152 4.82081H62.6652V1.66881C62.6652 0.747686 61.9175 0 60.9964 0C60.0752 0 59.3275 0.747686 59.3275 1.66881V4.82081H31.1469V1.66881C31.1469 0.747686 30.3992 0 29.4781 0C28.557 0 27.8093 0.747686 27.8093 1.66881V4.82081H19.003C13.9879 4.82661 9.92401 8.88986 9.91821 13.905V41.7155C9.91821 42.6367 10.6659 43.3838 11.587 43.3838C12.5081 43.3838 13.2552 42.6367 13.2552 41.7155V30.7769H76.663V67.6717C76.6589 70.8446 74.0881 73.4153 70.9152 73.4188H19.003C15.8301 73.4153 13.2593 70.8446 13.2552 67.6717V58.0306C13.2552 57.1095 12.5081 56.3618 11.587 56.3618C10.6659 56.3618 9.91821 57.1095 9.91821 58.0306V67.6717C9.92401 72.6868 13.9879 76.7506 19.003 76.7564H70.9152C75.9304 76.7506 79.9942 72.6868 80 67.6717V13.905C79.9942 8.88986 75.9304 4.82661 70.9152 4.82081ZM13.2552 27.4393V13.905C13.2593 10.7321 15.8301 8.16132 19.003 8.15784H27.8093V12.6886C25.2965 13.5088 23.753 16.0338 24.1683 18.6446C24.5836 21.2548 26.8348 23.1759 29.4781 23.1759C32.1214 23.1759 34.3726 21.2548 34.7879 18.6446C35.2032 16.0338 33.6597 13.5088 31.1469 12.6886V8.15784H59.3275V12.6886C56.8148 13.5088 55.2713 16.0338 55.6866 18.6446C56.1019 21.2548 58.3531 23.1759 60.9964 23.1759C63.6397 23.1759 65.8908 21.2548 66.3061 18.6446C66.7215 16.0338 65.1779 13.5088 62.6652 12.6886V8.15784H70.9152C74.0881 8.16132 76.6589 10.7321 76.663 13.905V27.4393H13.2552ZM29.4781 15.7594C30.6046 15.7594 31.5176 16.6724 31.5176 17.7989C31.5176 18.9247 30.6046 19.8383 29.4781 19.8383C28.3522 19.8383 27.4387 18.9247 27.4387 17.7989C27.4404 16.673 28.3528 15.7606 29.4781 15.7594ZM60.9964 15.7594C62.1228 15.7594 63.0358 16.6724 63.0358 17.7989C63.0358 18.9247 62.1228 19.8383 60.9964 19.8383C59.8705 19.8383 58.9569 18.9247 58.9569 17.7989C58.9586 16.673 59.8711 15.7606 60.9964 15.7594Z" fill="#217DDA"/>
<path d="M28.6696 57.4073C28.0182 58.0593 28.0182 59.115 28.6696 59.767C29.3216 60.419 30.3773 60.419 31.0293 59.767L39.7434 51.0529C40.3948 50.4015 40.3948 49.3452 39.7434 48.6938L31.0293 39.9797C30.3773 39.3277 29.3216 39.3277 28.6696 39.9797C28.0182 40.6317 28.0182 41.6874 28.6696 42.3394L34.5351 48.2048H1.66881C0.747686 48.2048 0 48.9519 0 49.8731C0 50.7948 0.747686 51.5419 1.66881 51.5419H34.5351L28.6696 57.4073Z" fill="#217DDA"/>
</svg>
