<svg width="42" height="27" viewBox="0 0 42 27" fill="none" xmlns="http://www.w3.org/2000/svg">
<path d="M7.72617 2.30387H34.4386V21.6811H36.7809V0H5.38379V21.6811H7.72617V2.30387Z" fill="#1D70B7"/>
<path d="M31.9723 21.6811V4.77222H10.1914V21.6811H31.9723ZM15.4084 16.8934L18.6127 13.6855L21.927 15.3039L24.4523 12.4242H22.4381V9.95577H28.6023V16.127H26.1366V14.245L22.5381 18.3488L19.1126 16.6762L16.5636 19.228L13.1099 19.6951L12.7799 17.2491L15.4084 16.8934Z" fill="#1D70B7"/>
<path d="M0 24.1494V25.3838C0 26.0642 0.55307 26.6178 1.23303 26.6178H40.767C41.4469 26.6178 42 26.0642 42 25.3838V24.1494H0Z" fill="#1D70B7"/>
</svg>
