<svg width="23" height="16" viewBox="0 0 23 16" fill="none" xmlns="http://www.w3.org/2000/svg">
<path d="M21.8488 1.37349C21.0282 0.397935 19.513 0 16.6193 0H6.11542C3.15554 0 1.6147 0.423604 0.797118 1.46223C0 2.47489 0 3.96696 0 6.03203V9.96804C0 13.9687 0.945775 16 6.11542 16H16.6194C19.1288 16 20.5193 15.6489 21.4188 14.7879C22.3414 13.9051 22.735 12.4636 22.735 9.96804V6.03203C22.735 3.85424 22.6733 2.35336 21.8488 1.37349ZM14.5959 8.54344L9.82613 11.0363C9.7195 11.092 9.60289 11.1197 9.48643 11.1197C9.35456 11.1197 9.22299 11.0842 9.10646 11.0136C8.88703 10.8807 8.75304 10.6428 8.75304 10.3863V5.41657C8.75304 5.16047 8.88666 4.92286 9.10565 4.78982C9.32471 4.65678 9.59717 4.64769 9.82444 4.76577L14.5942 7.24256C14.8369 7.36855 14.9893 7.61908 14.9897 7.89241C14.99 8.16597 14.8382 8.41686 14.5959 8.54344Z" fill="white"/>
</svg>
