<svg width="52" height="51" viewBox="0 0 52 51" fill="none" xmlns="http://www.w3.org/2000/svg">
<path d="M12.808 22.1085V28.9065C12.8098 30.4835 13.4327 31.9954 14.5402 33.1106C15.6476 34.2257 17.1491 34.8529 18.7153 34.8547H33.9054C35.4715 34.8529 36.973 34.2257 38.0805 33.1106C39.1879 31.9954 39.8108 30.4835 39.8126 28.9065V22.1085C39.8108 20.5315 39.1879 19.0195 38.0805 17.9044C36.973 16.7893 35.4715 16.162 33.9054 16.1602H18.7153C17.1491 16.162 15.6476 16.7893 14.5402 17.9044C13.4327 19.0195 12.8098 20.5315 12.808 22.1085ZM38.1248 22.1085V28.9065C38.1235 30.0329 37.6785 31.1128 36.8875 31.9093C36.0965 32.7058 35.024 33.1539 33.9054 33.1552H18.7153C17.5966 33.1539 16.5241 32.7058 15.7331 31.9093C14.9421 31.1128 14.4971 30.0329 14.4958 28.9065V22.1085C14.4971 20.9821 14.9421 19.9021 15.7331 19.1056C16.5241 18.3091 17.5966 17.8611 18.7153 17.8597H33.9054C35.024 17.8611 36.0965 18.3091 36.8875 19.1056C37.6785 19.9021 38.1235 20.9821 38.1248 22.1085Z" fill="#5F4A4A"/>
<path d="M22.5186 31.3452C22.6486 31.4194 22.7959 31.4575 22.9454 31.4555C23.0948 31.4536 23.2411 31.4117 23.3692 31.3342L31.8082 26.2356C31.9329 26.1601 32.0362 26.0533 32.1079 25.9257C32.1795 25.7981 32.2172 25.654 32.2172 25.5074C32.2172 25.3608 32.1795 25.2167 32.1079 25.0891C32.0362 24.9615 31.9329 24.8547 31.8082 24.7792L23.3692 19.6806C23.2412 19.6032 23.095 19.5613 22.9457 19.5593C22.7963 19.5574 22.6491 19.5953 22.5191 19.6694C22.3891 19.7435 22.2809 19.8509 22.2057 19.9808C22.1304 20.1108 22.0907 20.2585 22.0907 20.4089V30.606C22.0907 30.7563 22.1303 30.9039 22.2055 31.0338C22.2806 31.1637 22.3887 31.2711 22.5186 31.3452ZM23.7785 21.9095L29.733 25.5074L23.7785 29.1053V21.9095Z" fill="#5F4A4A"/>
<path d="M22.0907 47.601V50.1503C22.0907 50.3756 22.1796 50.5918 22.3379 50.7511C22.4961 50.9105 22.7108 51 22.9346 51H29.6857C29.9096 51 30.1242 50.9105 30.2825 50.7511C30.4407 50.5918 30.5296 50.3756 30.5296 50.1503V47.601C30.5293 46.9052 30.3593 46.2202 30.0346 45.606C29.7099 44.9919 29.2403 44.4674 28.6672 44.0788C29.1477 43.6069 29.4775 43.0014 29.6146 42.3398C29.7517 41.6782 29.6898 40.9904 29.4368 40.3644C29.1838 39.7384 28.7512 39.2025 28.1943 38.8253C27.6373 38.4481 26.9814 38.2466 26.3102 38.2466C25.639 38.2466 24.983 38.4481 24.4261 38.8253C23.8692 39.2025 23.4366 39.7384 23.1836 40.3644C22.9306 40.9904 22.8687 41.6782 23.0058 42.3398C23.1428 43.0014 23.4727 43.6069 23.9532 44.0788C23.3801 44.4674 22.9105 44.9919 22.5857 45.606C22.261 46.2202 22.091 46.9052 22.0907 47.601ZM24.6224 41.6527C24.6224 41.3166 24.7214 40.988 24.9068 40.7085C25.0923 40.4291 25.3559 40.2112 25.6643 40.0826C25.9727 39.954 26.312 39.9203 26.6394 39.9859C26.9668 40.0515 27.2676 40.2133 27.5036 40.451C27.7397 40.6887 27.9004 40.9915 27.9655 41.3212C28.0307 41.6509 27.9972 41.9926 27.8695 42.3031C27.7417 42.6137 27.5254 42.8791 27.2479 43.0658C26.9703 43.2526 26.644 43.3522 26.3102 43.3522C25.8625 43.3522 25.4332 43.1732 25.1167 42.8545C24.8002 42.5358 24.6224 42.1035 24.6224 41.6527ZM23.7785 47.601C23.7785 46.9249 24.0452 46.2765 24.52 45.7984C24.9948 45.3203 25.6387 45.0517 26.3102 45.0517C26.9816 45.0517 27.6256 45.3203 28.1003 45.7984C28.5751 46.2765 28.8419 46.9249 28.8419 47.601V49.3005H23.7785V47.601Z" fill="#5F4A4A"/>
<path d="M22.0907 9.36211V11.9114C22.0907 12.1367 22.1796 12.3529 22.3379 12.5122C22.4961 12.6716 22.7108 12.7611 22.9346 12.7611H29.6857C29.9096 12.7611 30.1242 12.6716 30.2825 12.5122C30.4407 12.3529 30.5296 12.1367 30.5296 11.9114V9.36211C30.5293 8.66633 30.3593 7.98128 30.0346 7.36714C29.7099 6.75299 29.2403 6.22855 28.6672 5.83989C29.1477 5.36797 29.4775 4.76252 29.6146 4.1009C29.7517 3.43929 29.6898 2.75154 29.4368 2.12552C29.1838 1.49951 28.7512 0.963654 28.1943 0.586417C27.6373 0.20918 26.9814 0.00769043 26.3102 0.00769043C25.639 0.00769043 24.983 0.20918 24.4261 0.586417C23.8692 0.963654 23.4366 1.49951 23.1836 2.12552C22.9306 2.75154 22.8687 3.43929 23.0058 4.1009C23.1428 4.76252 23.4727 5.36797 23.9532 5.83989C23.3801 6.22855 22.9105 6.75299 22.5857 7.36714C22.261 7.98128 22.091 8.66633 22.0907 9.36211ZM24.6224 3.41385C24.6224 3.07772 24.7214 2.74914 24.9068 2.46965C25.0923 2.19017 25.3559 1.97234 25.6643 1.84371C25.9727 1.71508 26.312 1.68142 26.6394 1.747C26.9668 1.81258 27.2676 1.97444 27.5036 2.21212C27.7397 2.4498 27.9004 2.75262 27.9655 3.08229C28.0307 3.41196 27.9972 3.75368 27.8695 4.06422C27.7417 4.37476 27.5254 4.64019 27.2479 4.82693C26.9703 5.01368 26.644 5.11335 26.3102 5.11335C25.8625 5.11335 25.4332 4.9343 25.1167 4.61558C24.8002 4.29686 24.6224 3.86458 24.6224 3.41385ZM23.7785 9.36211C23.7785 8.686 24.0452 8.03759 24.52 7.55951C24.9948 7.08144 25.6387 6.81285 26.3102 6.81285C26.9816 6.81285 27.6256 7.08144 28.1003 7.55951C28.5751 8.03759 28.8419 8.686 28.8419 9.36211V11.0616H23.7785V9.36211Z" fill="#5F4A4A"/>
<path d="M49.7656 35.5813C50.2461 35.1094 50.5759 34.5039 50.713 33.8423C50.8501 33.1807 50.7882 32.4929 50.5352 31.8669C50.2822 31.2409 49.8496 30.705 49.2927 30.3278C48.7358 29.9506 48.0798 29.7491 47.4086 29.7491C46.7374 29.7491 46.0814 29.9506 45.5245 30.3278C44.9675 30.705 44.535 31.2409 44.282 31.8669C44.029 32.4929 43.9671 33.1807 44.1041 33.8423C44.2412 34.5039 44.5711 35.1094 45.0516 35.5813C44.4784 35.9699 44.0089 36.4944 43.6841 37.1085C43.3594 37.7227 43.1894 38.4077 43.1891 39.1035V41.6528C43.1891 41.8781 43.278 42.0943 43.4363 42.2536C43.5945 42.413 43.8092 42.5025 44.033 42.5025H50.7842C51.008 42.5025 51.2226 42.413 51.3809 42.2536C51.5392 42.0943 51.6281 41.8781 51.6281 41.6528V39.1035C51.6278 38.4077 51.4578 37.7227 51.133 37.1085C50.8083 36.4944 50.3387 35.9699 49.7656 35.5813ZM45.7208 33.1552C45.7208 32.8191 45.8198 32.4905 46.0052 32.211C46.1907 31.9316 46.4543 31.7137 46.7627 31.5851C47.0711 31.4565 47.4105 31.4228 47.7379 31.4884C48.0653 31.554 48.366 31.7158 48.602 31.9535C48.8381 32.1912 48.9988 32.494 49.0639 32.8237C49.1291 33.1534 49.0956 33.4951 48.9679 33.8056C48.8402 34.1162 48.6238 34.3816 48.3463 34.5683C48.0687 34.7551 47.7424 34.8547 47.4086 34.8547C46.9609 34.8547 46.5317 34.6757 46.2151 34.357C45.8986 34.0383 45.7208 33.606 45.7208 33.1552ZM49.9403 40.803H44.8769V39.1035C44.8769 38.4274 45.1436 37.779 45.6184 37.3009C46.0932 36.8228 46.7371 36.5542 47.4086 36.5542C48.08 36.5542 48.724 36.8228 49.1988 37.3009C49.6735 37.779 49.9403 38.4274 49.9403 39.1035V40.803Z" fill="#5F4A4A"/>
<path d="M49.7656 14.3374C50.2461 13.8655 50.5759 13.2601 50.713 12.5984C50.8501 11.9368 50.7882 11.2491 50.5352 10.623C50.2822 9.99702 49.8496 9.46116 49.2927 9.08392C48.7358 8.70668 48.0798 8.50519 47.4086 8.50519C46.7374 8.50519 46.0814 8.70668 45.5245 9.08392C44.9675 9.46116 44.535 9.99702 44.282 10.623C44.029 11.2491 43.9671 11.9368 44.1041 12.5984C44.2412 13.2601 44.5711 13.8655 45.0516 14.3374C44.4784 14.7261 44.0089 15.2505 43.6841 15.8647C43.3594 16.4788 43.1894 17.1639 43.1891 17.8597V20.409C43.1891 20.6343 43.278 20.8505 43.4363 21.0098C43.5945 21.1692 43.8092 21.2587 44.033 21.2587H50.7842C51.008 21.2587 51.2226 21.1692 51.3809 21.0098C51.5392 20.8505 51.6281 20.6343 51.6281 20.409V17.8597C51.6278 17.1639 51.4578 16.4788 51.133 15.8647C50.8083 15.2505 50.3387 14.7261 49.7656 14.3374ZM45.7208 11.9114C45.7208 11.5752 45.8198 11.2467 46.0052 10.9672C46.1907 10.6877 46.4543 10.4699 46.7627 10.3412C47.0711 10.2126 47.4105 10.1789 47.7379 10.2445C48.0653 10.3101 48.366 10.472 48.602 10.7096C48.8381 10.9473 48.9988 11.2501 49.0639 11.5798C49.1291 11.9095 49.0956 12.2512 48.9679 12.5618C48.8402 12.8723 48.6238 13.1377 48.3463 13.3245C48.0687 13.5112 47.7424 13.6109 47.4086 13.6109C46.9609 13.6109 46.5317 13.4318 46.2151 13.1131C45.8986 12.7944 45.7208 12.3621 45.7208 11.9114ZM49.9403 19.5592H44.8769V17.8597C44.8769 17.1836 45.1436 16.5352 45.6184 16.0571C46.0932 15.579 46.7371 15.3104 47.4086 15.3104C48.08 15.3104 48.724 15.579 49.1988 16.0571C49.6735 16.5352 49.9403 17.1836 49.9403 17.8597V19.5592Z" fill="#5F4A4A"/>
<path d="M1.83804 42.5024H8.58921C8.81302 42.5024 9.02767 42.4129 9.18593 42.2536C9.34419 42.0942 9.4331 41.8781 9.4331 41.6527V39.1034C9.4328 38.4077 9.26281 37.7226 8.93806 37.1085C8.61331 36.4943 8.14375 35.9699 7.57062 35.5812C8.05111 35.1093 8.38097 34.5039 8.51805 33.8422C8.65514 33.1806 8.59323 32.4929 8.34023 31.8669C8.08724 31.2408 7.65465 30.705 7.09772 30.3277C6.5408 29.9505 5.88483 29.749 5.21362 29.749C4.54241 29.749 3.88645 29.9505 3.32952 30.3277C2.7726 30.705 2.34 31.2408 2.08701 31.8669C1.83401 32.4929 1.7721 33.1806 1.90919 33.8422C2.04628 34.5039 2.37613 35.1093 2.85662 35.5812C2.28349 35.9699 1.81393 36.4943 1.48918 37.1085C1.16444 37.7226 0.994443 38.4077 0.994141 39.1034V41.6527C0.994141 41.8781 1.08305 42.0942 1.24131 42.2536C1.39957 42.4129 1.61422 42.5024 1.83804 42.5024ZM3.52583 33.1552C3.52583 32.8191 3.62482 32.4905 3.81027 32.211C3.99573 31.9315 4.25933 31.7137 4.56773 31.585C4.87613 31.4564 5.21549 31.4228 5.54289 31.4883C5.87029 31.5539 6.17103 31.7158 6.40707 31.9534C6.64311 32.1911 6.80386 32.494 6.86898 32.8236C6.93411 33.1533 6.90068 33.495 6.77294 33.8056C6.64519 34.1161 6.42886 34.3815 6.15131 34.5683C5.87375 34.755 5.54743 34.8547 5.21362 34.8547C4.76599 34.8547 4.33669 34.6756 4.02017 34.3569C3.70365 34.0382 3.52583 33.6059 3.52583 33.1552ZM2.68193 39.1034C2.68193 38.4273 2.94866 37.7789 3.42345 37.3008C3.89823 36.8228 4.54218 36.5542 5.21362 36.5542C5.88507 36.5542 6.52901 36.8228 7.0038 37.3008C7.47858 37.7789 7.74531 38.4273 7.74531 39.1034V40.8029H2.68193V39.1034Z" fill="#5F4A4A"/>
<path d="M1.83804 21.2588H8.58921C8.81302 21.2588 9.02767 21.1693 9.18593 21.0099C9.34419 20.8505 9.4331 20.6344 9.4331 20.409V17.8597C9.4328 17.164 9.26281 16.4789 8.93806 15.8648C8.61331 15.2506 8.14375 14.7262 7.57062 14.3375C8.05111 13.8656 8.38097 13.2601 8.51805 12.5985C8.65514 11.9369 8.59323 11.2491 8.34023 10.6231C8.08724 9.99708 7.65465 9.46122 7.09772 9.08398C6.5408 8.70674 5.88483 8.50525 5.21362 8.50525C4.54241 8.50525 3.88645 8.70674 3.32952 9.08398C2.7726 9.46122 2.34 9.99708 2.08701 10.6231C1.83401 11.2491 1.7721 11.9369 1.90919 12.5985C2.04628 13.2601 2.37613 13.8656 2.85662 14.3375C2.28349 14.7262 1.81393 15.2506 1.48918 15.8648C1.16444 16.4789 0.994443 17.164 0.994141 17.8597V20.409C0.994141 20.6344 1.08305 20.8505 1.24131 21.0099C1.39957 21.1693 1.61422 21.2588 1.83804 21.2588ZM3.52583 11.9114C3.52583 11.5753 3.62482 11.2467 3.81027 10.9672C3.99573 10.6878 4.25933 10.4699 4.56773 10.3413C4.87613 10.2127 5.21549 10.179 5.54289 10.2446C5.87029 10.3102 6.17103 10.472 6.40707 10.7097C6.64311 10.9474 6.80386 11.2502 6.86898 11.5799C6.93411 11.9096 6.90068 12.2513 6.77294 12.5618C6.64519 12.8724 6.42886 13.1378 6.15131 13.3245C5.87375 13.5113 5.54743 13.611 5.21362 13.611C4.76599 13.611 4.33669 13.4319 4.02017 13.1132C3.70365 12.7945 3.52583 12.3622 3.52583 11.9114ZM2.68193 17.8597C2.68193 17.1836 2.94866 16.5352 3.42345 16.0571C3.89823 15.5791 4.54218 15.3105 5.21362 15.3105C5.88507 15.3105 6.52901 15.5791 7.0038 16.0571C7.47858 16.5352 7.74531 17.1836 7.74531 17.8597V19.5593H2.68193V17.8597Z" fill="#5F4A4A"/>
</svg>
