<svg width="45" height="43" viewBox="0 0 45 43" fill="none" xmlns="http://www.w3.org/2000/svg">
<path d="M25.6073 36.2356L25.6072 36.2356L25.61 36.2399C26.1933 37.1414 26.8893 38.0008 27.8055 38.5943C29.0894 39.5031 30.5892 40.0387 32.3024 40.0387C35.9436 40.0387 38.9415 37.576 39.8527 34.2583C40.0688 33.6085 40.1215 32.9616 40.1215 32.2195V32.2106C40.1215 31.9579 40.1215 31.7366 40.0676 31.5143C39.7958 28.1982 37.388 25.3641 34.1753 24.6144L34.1753 24.6143L34.1692 24.6132C34.0507 24.5916 33.9287 24.5675 33.8038 24.5429C33.3295 24.4493 32.8148 24.3476 32.3024 24.3476H32.2996C32.0399 24.3476 31.7708 24.3476 31.4489 24.4003C31.3979 24.4004 31.3306 24.4007 31.2623 24.4075C31.1968 24.4141 31.1213 24.4273 31.0532 24.4574C27.3664 25.0539 24.4305 28.3152 24.4305 32.2195C24.4305 33.6167 24.9134 35.0613 25.6073 36.2356ZM22.8713 36.4551L23.0624 36.4517L22.9828 36.278C22.4106 35.0297 22.0982 33.6246 22.0982 32.1668C22.0982 27.5372 25.2179 23.6848 29.3822 22.3805C29.4158 22.3738 29.4508 22.367 29.4867 22.3601C29.7233 22.3141 30.0022 22.26 30.2408 22.1645L30.3796 22.109L30.3004 21.9822C29.2402 20.2858 28.0178 18.955 26.6841 18.0474C25.9901 17.5139 25.2953 17.1399 24.6004 16.8726L24.5994 16.8722C23.7519 16.5544 22.9972 16.3373 22.184 16.3373C21.539 16.3373 20.7856 16.4446 20.0839 16.7145C19.3974 16.9785 18.6471 17.2993 17.9481 17.8361C14.6446 20.0227 11.6245 24.7525 11.6245 31.2182C11.6245 31.8099 11.7315 32.3554 11.9515 32.7977C12.1717 33.3454 12.501 33.7275 12.8732 34.0997L12.8787 34.1052L12.8848 34.11C13.3598 34.4794 13.9506 34.9101 14.6525 35.1807C16.7851 36.1393 19.8617 36.5079 22.8713 36.4551ZM42.5431 32.2892L42.527 32.3053H42.4585L42.4539 32.4255C42.2456 37.8934 37.8199 42.2655 32.3024 42.2655C29.2308 42.2655 26.5241 40.9122 24.7023 38.83L24.6602 38.7819L24.5965 38.7879C22.0781 39.024 19.3897 38.9058 17.0118 38.4145C14.6311 37.9226 12.5769 37.06 11.3105 35.8197C11.0528 35.5619 10.8461 35.3038 10.635 35.0399L10.6005 34.9967L10.5453 34.9932C7.23393 34.783 4.11027 33.8899 2.4566 32.2885C1.31939 31.1509 0.702148 29.7595 0.702148 28.1616C0.702148 24.7082 1.85419 20.8851 3.79073 17.9541L3.79158 17.9528C4.73218 16.4896 5.82852 15.3415 7.02811 14.4548L7.03561 14.4493L7.0422 14.4427C7.26394 14.2209 7.33081 13.9469 7.37962 13.7469C7.3836 13.7306 7.38746 13.7148 7.39128 13.6995L7.39193 13.6997L7.39375 13.6869C7.45083 13.2874 7.3387 12.7764 7.04984 12.4298L7.04995 12.4297L7.04596 12.4253C5.90551 11.1812 5.12892 9.47156 5.12892 7.55603C5.12892 3.56719 8.34034 0.355774 12.3292 0.355774C14.1422 0.355774 15.7985 1.02901 17.0404 2.16741L17.12 2.24042L17.2038 2.17217C18.6045 1.03087 20.3157 0.408474 22.184 0.408474C24.2064 0.408474 26.0228 1.18617 27.4256 2.38122L27.5135 2.45605L27.5951 2.37445C28.8362 1.13332 30.6488 0.355774 32.5659 0.355774C36.5547 0.355774 39.7661 3.56719 39.7661 7.55603C39.7661 9.36868 39.0932 11.0776 37.8494 12.425L37.8441 12.4308L37.8395 12.4372C37.5537 12.8373 37.5 13.2902 37.5 13.6692V13.6816L37.5025 13.6937L37.5062 13.7126C37.5559 13.9614 37.6169 14.2673 37.8662 14.4543L37.8669 14.4548C39.0665 15.3415 40.1629 16.4896 41.1035 17.9528L41.1034 17.9528L41.106 17.9566C43.1463 20.8861 44.2983 24.7608 44.2983 28.1616C44.2983 29.8111 43.6291 31.2032 42.5431 32.2892ZM41.8804 28.9385L42.0286 29.3893L42.1217 28.9239C42.1768 28.6483 42.1768 28.4272 42.1768 28.217L42.1768 28.2151C42.1768 28.2149 42.1768 28.2147 42.1768 28.2145C42.2032 24.0492 40.8233 20.688 38.9408 18.3664C37.0616 16.0489 34.6709 14.7563 32.6713 14.7563C31.4262 14.7563 29.9794 15.2961 28.5977 16.1996L28.4507 16.2957L28.5897 16.4031C29.7368 17.2896 30.8338 18.4905 31.7223 19.9017L31.7219 19.9019L31.7281 19.9101C32.1963 20.5344 32.5596 21.1572 32.8714 21.9368L32.9004 22.0092L32.9781 22.015C37.1433 22.3274 40.6312 25.139 41.8804 28.9385ZM36.7764 10.5295L36.7765 10.5296L36.7794 10.5253C37.3731 9.66189 37.6973 8.68872 37.6973 7.55603C37.6973 4.74661 35.3753 2.42456 32.5659 2.42456C31.107 2.42456 29.8638 3.01954 28.9466 3.93676L28.8763 4.00708L28.929 4.0914C29.7082 5.33815 30.1748 6.79103 30.1748 8.34653C30.1748 9.48576 29.9162 10.4719 29.5494 11.5199L29.5192 11.6063L29.5924 11.6612C30.4589 12.3111 31.487 12.6348 32.6186 12.6348C34.0758 12.6348 35.3728 12.041 36.2919 11.0686L36.2924 11.068C36.4497 10.9108 36.613 10.7474 36.7764 10.5295ZM15.6999 3.88464L15.7619 3.79353L15.6793 3.72062C14.76 2.9095 13.6237 2.47726 12.3292 2.47726C9.51976 2.47726 7.19771 4.79931 7.19771 7.60873C7.19771 8.74175 7.52225 9.71681 8.1713 10.5822L8.17663 10.5893L8.18292 10.5956C8.35051 10.7632 8.44706 10.8938 8.56639 11.0553C8.5915 11.0893 8.61761 11.1246 8.6456 11.1619L8.64986 11.1676L8.65473 11.1727C9.57384 12.1459 10.8713 12.7402 12.3292 12.7402C13.301 12.7402 14.2229 12.4701 14.9841 11.9264L15.071 11.8643L15.0233 11.7688C14.507 10.7362 14.2987 9.59696 14.2987 8.39923C14.2987 6.68695 14.8171 5.1829 15.6999 3.88464ZM12.8016 19.9052L12.8017 19.9052L12.8043 19.901C13.7441 18.3869 14.8927 17.1859 16.1992 16.1929L16.336 16.0889L16.1949 15.9908C14.9641 15.1345 13.5693 14.7036 12.3819 14.7036C10.3823 14.7036 7.99169 15.9962 6.106 18.3068C4.21688 20.6216 2.82364 23.9697 2.82364 28.1089C2.82364 29.1956 3.15281 30.0198 3.97004 30.7826L3.97171 30.7841C4.5166 31.2745 5.31194 31.6766 6.24895 31.9889C7.18761 32.3018 8.27665 32.5273 9.41626 32.6599L9.59085 32.6802L9.55272 32.5086C9.45075 32.0497 9.4503 31.6415 9.4503 31.1128H9.45035L9.45025 31.1093C9.34562 27.3949 10.6023 23.1518 12.8016 19.9052ZM27.7371 8.18843C27.7371 5.1163 25.2577 2.58266 22.1313 2.58266C19.0057 2.58266 16.5256 5.06281 16.5256 8.18843C16.5256 11.314 19.0057 13.7942 22.1313 13.7942C25.2569 13.7942 27.7371 11.314 27.7371 8.18843Z" fill="#3175BE" stroke="#0A63AF" stroke-width="0.25"/>
<path d="M30.5985 35.8728L30.5985 35.8727L30.5963 35.8707L28.3302 33.71L28.3304 33.7099L28.3253 33.7056C28.0004 33.4271 27.9052 33.0127 28.0947 32.5864L28.0954 32.5849C28.2357 32.2575 28.5426 32.0305 28.8783 31.9526C29.2135 31.8748 29.5587 31.9491 29.7852 32.1982L29.7847 32.1986L29.7946 32.2075C30.2657 32.6263 30.6848 33.0453 31.1595 33.52L31.253 33.6135L31.3411 33.5148C31.7641 33.0411 32.1876 32.5722 32.6096 32.105C33.4995 31.1198 34.3828 30.1418 35.2412 29.1405C35.7545 28.5825 36.6513 28.7608 36.9857 29.4296C37.169 29.7962 37.0832 30.2169 36.7923 30.5566C35.6854 31.8216 34.5806 33.0842 33.4236 34.2938L33.4236 34.2937L33.4207 34.2969L32.1032 35.7725L32.1031 35.7724L32.0989 35.7777C31.9198 36.0015 31.6464 36.0997 31.3006 36.0997H31.2882L31.2761 36.1021C31.0585 36.1456 30.7835 36.0578 30.5985 35.8728Z" fill="#3175BE" stroke="#0A63AF" stroke-width="0.25"/>
</svg>
