<svg width="75" height="71" viewBox="0 0 75 71" fill="none" xmlns="http://www.w3.org/2000/svg">
<g filter="url(#filter0_d)">
<path d="M52.7419 16H41.9818C41.0049 16 40.212 16.7929 40.212 17.7698V28.5299C40.212 29.5069 41.0049 30.2997 41.9818 30.2997C44.806 30.2997 47.2687 32.7292 46.1563 35.3251C45.8843 35.9598 45.5558 36.5405 45.1709 37.0672C44.194 38.4052 42.7145 39.5131 40.7359 40.3873C39.8262 40.7873 39.4333 41.8633 39.8581 42.7624L41.1323 45.4524C41.5429 46.316 42.5587 46.6948 43.4365 46.316C45.7797 45.3037 47.7583 44.0224 49.3723 42.465C51.3403 40.5643 52.6888 38.4193 53.418 36.0266C54.1472 33.6339 54.5117 30.3705 54.5117 26.2292V17.7698C54.5117 16.7929 53.7188 16 52.7419 16Z" fill="#217DDA"/>
<path d="M23.7532 46.3089C26.0681 45.3002 28.036 44.0189 29.6607 42.465C31.6463 40.5643 33.002 38.4264 33.7311 36.0514C34.4603 33.6764 34.8248 30.4023 34.8248 26.2292V17.7698C34.8248 16.7929 34.032 16 33.055 16H22.2949C21.318 16 20.5251 16.7929 20.5251 17.7698V28.5299C20.5251 29.5069 21.318 30.2997 22.2949 30.2997C25.1191 30.2997 27.5818 32.7292 26.4694 35.3251C26.1974 35.9598 25.8689 36.5405 25.484 37.0672C24.5071 38.4052 23.0276 39.5131 21.049 40.3873C20.1393 40.7873 19.7464 41.8633 20.1712 42.7624L21.4419 45.4453C21.8525 46.3089 22.8754 46.6912 23.7532 46.3089Z" fill="#217DDA"/>
</g>
<defs>
<filter id="filter0_d" x="0" y="0" width="74.5117" height="70.4626" filterUnits="userSpaceOnUse" color-interpolation-filters="sRGB">
<feFlood flood-opacity="0" result="BackgroundImageFix"/>
<feColorMatrix in="SourceAlpha" type="matrix" values="0 0 0 0 0 0 0 0 0 0 0 0 0 0 0 0 0 0 127 0"/>
<feOffset dy="4"/>
<feGaussianBlur stdDeviation="10"/>
<feColorMatrix type="matrix" values="0 0 0 0 0.0256336 0 0 0 0 0.297219 0 0 0 0 0.529135 0 0 0 0.75 0"/>
<feBlend mode="normal" in2="BackgroundImageFix" result="effect1_dropShadow"/>
<feBlend mode="normal" in="SourceGraphic" in2="effect1_dropShadow" result="shape"/>
</filter>
</defs>
</svg>
