<svg width="27" height="27" viewBox="0 0 27 27" fill="none" xmlns="http://www.w3.org/2000/svg">
<path d="M24.9017 12.2333L19.8332 17.3002C17.0357 20.0993 12.4976 20.0993 9.6997 17.3002C9.25898 16.8607 8.91421 16.3655 8.61143 15.8549L10.9665 13.5C11.0784 13.3871 11.2167 13.3224 11.3488 13.2462C11.5116 13.8025 11.7958 14.3291 12.2333 14.7666C13.6303 16.1648 15.9036 16.1628 17.2999 14.7666L22.3668 9.69988C23.7649 8.30188 23.7649 6.02912 22.3668 4.63219C20.9705 3.23525 18.6978 3.23525 17.2999 4.63219L15.4981 6.43593C14.0359 5.8666 12.4606 5.71353 10.9271 5.93826L14.7666 2.0989C17.5657 -0.699635 22.1026 -0.699635 24.9017 2.0989C27.6994 4.89733 27.6994 9.43497 24.9017 12.2333ZM11.5027 20.565L9.69964 22.3687C8.3027 23.7649 6.02928 23.7649 4.6321 22.3687C3.23504 20.9705 3.23504 18.6978 4.6321 17.3002L9.69964 12.2333C11.0977 10.8355 13.3696 10.8355 14.7665 12.2333C15.203 12.6699 15.4875 13.1964 15.6519 13.752C15.7847 13.6748 15.9212 13.612 16.0331 13.4999L18.388 11.146C18.0872 10.6334 17.7407 10.1399 17.2998 9.69999C14.5026 6.90145 9.96401 6.90145 7.16546 9.69999L2.09869 14.7669C-0.699564 17.5663 -0.699564 22.1026 2.09869 24.9018C4.89724 27.6994 9.43474 27.6994 12.2332 24.9018L16.0737 21.0616C14.5394 21.2876 12.9637 21.1332 11.5027 20.565Z" fill="#5F4A4A"/>
</svg>
