<svg width="64" height="35" viewBox="0 0 64 35" fill="none" xmlns="http://www.w3.org/2000/svg">
<path d="M40.5968 27.3666L40.5978 27.3655C40.7963 27.1645 41.065 27.0515 41.3449 27.0501H57.6091C58.9861 27.0501 60.3059 26.4993 61.2785 25.52C62.2509 24.5408 62.7966 23.2134 62.7966 21.8301V6.29337C62.7966 4.91004 62.2509 3.58268 61.2785 2.60348C60.3059 1.62415 58.9861 1.07334 57.6091 1.07334H6.24997C4.87305 1.07334 3.55322 1.62415 2.58065 2.60348C1.6082 3.58268 1.06249 4.91004 1.06249 6.29337V21.8301C1.06249 23.2134 1.6082 24.5408 2.58065 25.52C3.55322 26.4993 4.87305 27.0501 6.24997 27.0501H22.5064C22.7863 27.0515 23.055 27.1645 23.2535 27.3655L23.2545 27.3666L28.2543 32.4011C28.2544 32.4012 28.2544 32.4012 28.2545 32.4013C28.7361 32.8867 29.3081 33.272 29.938 33.5349C30.568 33.7979 31.2434 33.9333 31.9256 33.9333C32.6078 33.9333 33.2833 33.7979 33.9133 33.5349C34.5432 33.272 35.1152 32.8867 35.5968 32.4013C35.5969 32.4012 35.5969 32.4012 35.597 32.4011L40.5968 27.3666ZM22.8625 27.7712L22.7158 27.6235H22.5077H6.24997C4.7261 27.6235 3.26395 27.014 2.18535 25.9279C1.10663 24.8417 0.5 23.3677 0.5 21.8301V6.29337C0.5 4.75576 1.10663 3.28182 2.18535 2.19561C3.26395 1.10952 4.72611 0.5 6.24997 0.5H57.6091C59.133 0.5 60.5952 1.10952 61.6738 2.19561C62.7525 3.28182 63.3591 4.75576 63.3591 6.29337V21.8301C63.3591 23.3677 62.7525 24.8417 61.6738 25.9279C60.5952 27.014 59.133 27.6235 57.6091 27.6235H41.3436H41.1355L40.9888 27.7712L35.9889 32.8057C35.9889 32.8058 35.9889 32.8058 35.9888 32.8058C34.9103 33.891 33.4488 34.5 31.9256 34.5C30.4025 34.5 28.9409 33.891 27.8625 32.8058C27.8624 32.8058 27.8624 32.8058 27.8624 32.8057L22.8625 27.7712Z" fill="#5F4A4A" stroke="#5F4A4A"/>
<path d="M53.3505 16.2649L54.5603 16.2649C54.5605 16.2649 54.5606 16.2649 54.5607 16.2649C55.3921 16.2668 56.1897 16.6002 56.7786 17.1932C57.3677 17.7864 57.7001 18.5911 57.702 19.4314C57.702 19.4315 57.702 19.4317 57.702 19.4318L57.702 19.6668C57.702 19.9525 57.5892 20.2259 57.3896 20.427C57.1901 20.6279 56.9202 20.7401 56.6395 20.7401H44.0224C43.7417 20.7401 43.4718 20.6279 43.2723 20.427L42.9175 20.7793L43.2723 20.427C43.0726 20.2259 42.9599 19.9525 42.9599 19.6668V19.4313C42.9618 18.591 43.2942 17.7864 43.8832 17.1932C44.4722 16.6002 45.2697 16.2668 46.1011 16.2649C46.1013 16.2649 46.1014 16.2649 46.1016 16.2649L47.3114 16.2649H48.2376L47.7294 15.4905C46.905 14.2343 46.4138 12.786 46.3029 11.2839C46.2814 10.7388 46.3691 10.1949 46.5607 9.68472C46.7532 9.17212 47.0466 8.70425 47.423 8.30913C47.7995 7.91403 48.2511 7.59984 48.7508 7.38528C49.2505 7.17073 49.788 7.06018 50.3309 7.06018C50.8739 7.06018 51.4114 7.17073 51.911 7.38528L52.1083 6.92585L51.911 7.38528C52.4107 7.59984 52.8624 7.91403 53.2388 8.30913C53.6152 8.70425 53.9086 9.17212 54.1011 9.68472C54.2927 10.1949 54.3805 10.7388 54.359 11.2839C54.2481 12.786 53.7568 14.2343 52.9324 15.4905L52.4243 16.2649H53.3505ZM46.3432 11.281L46.3427 11.2927V11.3044C46.3427 12.4736 46.8894 14.006 47.5988 15.2274C47.9573 15.8446 48.3742 16.4121 48.8144 16.8324C49.2389 17.2375 49.7616 17.5786 50.327 17.5786C50.8922 17.5786 51.4154 17.2377 51.8405 16.8327C52.2815 16.4125 52.6993 15.8452 53.0589 15.2279C53.7702 14.0067 54.3192 12.474 54.3192 11.3044V11.2927L54.3186 11.281C54.2702 10.2508 53.8297 9.2783 53.0875 8.56549C52.3452 7.85257 51.3581 7.45428 50.3309 7.45428C49.3037 7.45428 48.3166 7.85257 47.5743 8.56549C46.8321 9.2783 46.3916 10.2508 46.3432 11.281ZM57.3644 20.3918C57.5537 20.2012 57.6604 19.9442 57.6629 19.6764L57.6705 19.4473L57.6708 19.439V19.4308C57.6708 18.6045 57.3448 17.8114 56.7635 17.2261C56.1822 16.6407 55.3929 16.3111 54.5692 16.3111H52.7723H52.537L52.387 16.4925C51.9506 17.0202 51.364 17.3987 50.7078 17.5777H50.6731L50.6293 17.5855C50.4294 17.6214 50.2247 17.6214 50.0247 17.5855L49.9809 17.5777H49.9463C49.2901 17.3987 48.7034 17.0202 48.267 16.4925L48.1171 16.3111H47.8817H46.1005C45.2768 16.3111 44.4875 16.6407 43.9061 17.2261C43.3249 17.8114 42.9989 18.6045 42.9989 19.4308V19.6668C42.9989 19.938 43.1059 20.1989 43.2975 20.3918C43.4891 20.5848 43.7498 20.6938 44.0224 20.6938H56.6395C56.9121 20.6938 57.1727 20.5848 57.3644 20.3918Z" fill="#5F4A4A" stroke="#5F4A4A"/>
<path d="M14.1625 20.9764L14.1547 20.9761L14.1469 20.9761C14.1116 20.9762 14.0768 20.9656 14.047 20.9453L14.0437 20.943C13.9251 20.8634 12.3818 19.8069 10.7457 18.3671C9.92775 17.6472 9.09501 16.8389 8.40741 16.0153C7.7144 15.1852 7.1962 14.3717 6.96902 13.6418C6.48784 12.0957 6.57675 10.7145 7.10268 9.61678C7.62513 8.52631 8.60265 7.665 10.0008 7.19012C10.6008 7.03857 11.2259 7.01628 11.8352 7.12476C12.4482 7.2339 13.0313 7.47294 13.546 7.82619C13.6366 7.89262 13.723 7.96461 13.8048 8.04175L14.1459 8.36326L14.4888 8.04368C14.5814 7.95729 14.6801 7.87777 14.7841 7.80573L14.7847 7.80531C15.2948 7.45086 15.8754 7.21316 16.4859 7.10867C17.09 7.00529 17.709 7.03477 18.3006 7.19502C19.6556 7.69185 20.5574 8.56027 21.0133 9.68838C21.4758 10.8328 21.5017 12.3015 20.9818 14.0149L20.9816 14.0157C20.7612 14.746 20.2654 15.5395 19.6054 16.337C18.9499 17.1291 18.157 17.896 17.3782 18.5737C16.6006 19.2504 15.8448 19.8314 15.2682 20.2521C14.9801 20.4623 14.7376 20.6318 14.5605 20.7526C14.472 20.813 14.4002 20.861 14.3476 20.8955C14.3213 20.9127 14.3003 20.9263 14.2848 20.9362C14.2777 20.9407 14.2725 20.944 14.269 20.9462C14.2638 20.9494 14.2619 20.9505 14.2626 20.9501L14.2613 20.9509C14.2311 20.9687 14.1969 20.9774 14.1625 20.9764ZM10.1563 7.51493L10.1563 7.51479L10.145 7.51859C8.86058 7.9497 7.92638 8.75133 7.43348 9.82782C6.94365 10.8976 6.91626 12.1798 7.32544 13.5337C7.51571 14.1652 7.92286 14.8234 8.42058 15.4584C8.9232 16.0997 9.54269 16.748 10.1912 17.3605C11.4883 18.5856 12.9317 19.6958 13.8666 20.358L14.1524 20.5604L14.4402 20.3611C15.3294 19.7455 16.6884 18.7171 17.9117 17.5634C18.5236 16.9864 19.1089 16.3712 19.5861 15.7547C20.0592 15.1433 20.447 14.5042 20.6344 13.8795C21.0841 12.3929 21.1216 11.0407 20.7005 9.92527C20.2734 8.79387 19.3974 7.96829 18.1551 7.51502L18.1256 7.50423L18.0949 7.49723C17.5674 7.37701 17.0211 7.36609 16.4892 7.46515C15.9574 7.56421 15.4514 7.77113 15.0018 8.07317L15.0017 8.0731L14.9941 8.07844C14.8238 8.19755 14.6703 8.33467 14.5541 8.48382C14.4527 8.614 14.3408 8.80356 14.3286 9.02984C14.3212 9.07309 14.2996 9.11214 14.268 9.14081C14.2334 9.1721 14.1892 9.18892 14.1439 9.18892C14.0987 9.18892 14.0545 9.1721 14.0199 9.14081C13.9882 9.11214 13.9666 9.07308 13.9592 9.02983C13.9476 8.81435 13.8455 8.63157 13.749 8.5029C13.639 8.35615 13.4927 8.22126 13.3281 8.10426L13.3197 8.09824L13.311 8.09258C12.6194 7.64306 11.8142 7.40201 10.9905 7.39822C10.708 7.39199 10.4264 7.4314 10.1563 7.51493Z" fill="#5F4A4A" stroke="#5F4A4A"/>
<path d="M35.8028 20.8683C35.8028 20.8683 35.8028 20.8683 35.8028 20.8683L36.2488 20.6422L35.8028 20.8683ZM35.8028 20.8683C35.8177 20.8978 35.825 20.9309 35.8238 20.9643C35.8225 20.9977 35.8128 21.0301 35.7957 21.0583C35.7787 21.0864 35.755 21.1093 35.7273 21.1251L35.7368 21.1417L35.7273 21.1251C35.715 21.132 35.7021 21.1375 35.6888 21.1415L35.8028 20.8683ZM31.1253 17.3547L31.1253 17.3546C28.0477 16.9765 25.5223 14.9015 25.5223 12.3193C25.5223 10.8585 26.3206 9.57185 27.5295 8.66792C28.7388 7.76373 30.3852 7.21725 32.1785 7.21725C33.9719 7.21725 35.6164 7.76379 36.8247 8.66804C38.0327 9.57207 38.8302 10.8581 38.8347 12.3177L38.8347 12.3193C38.8347 14.4556 37.1735 16.2201 34.8231 17.0016M31.1253 17.3547L34.6629 16.5279M31.1253 17.3547L31.1328 17.3555M31.1253 17.3547L31.1328 17.3555M34.8231 17.0016C34.8222 17.0019 34.8213 17.0022 34.8204 17.0025L34.6629 16.5279M34.8231 17.0016C34.8236 17.0014 34.8241 17.0013 34.8245 17.0011L34.6629 16.5279M34.8231 17.0016C34.793 17.0121 34.7657 17.0305 34.7441 17.0553L34.3673 16.7265C34.4469 16.6354 34.5488 16.5669 34.6629 16.5279M34.2957 19.1869C34.1058 19.0541 33.9068 18.9114 33.7025 18.7609C33.7297 18.9442 33.7656 19.1265 33.8103 19.3071L34.2957 19.1869ZM34.2957 19.1869L34.5822 18.7771C34.4491 18.6841 34.3116 18.5861 34.171 18.484C34.1967 18.7203 34.2383 18.9552 34.2957 19.1869ZM31.1328 17.3555C31.1679 17.3593 31.2015 17.3736 31.2291 17.3972L31.1328 17.3555ZM34.7014 17.1389C34.702 17.1353 34.7026 17.1317 34.7031 17.128L34.2097 17.0472L34.7001 17.145C34.7005 17.143 34.7009 17.1409 34.7014 17.1389Z" fill="#5F4A4A" stroke="#5F4A4A"/>
</svg>
