<svg width="209" height="84" viewBox="0 0 209 84" fill="none" xmlns="http://www.w3.org/2000/svg">
<path d="M34.3545 1.12793H37.2165V40.5304C37.2165 50.4217 29.1835 58.5451 18.6028 58.5451C8.0222 58.5451 0 50.4217 0 40.5304V1.12793H2.86197V40.5304C2.86197 48.8165 9.62664 55.6493 18.6137 55.6493C27.6007 55.6493 34.3654 48.8165 34.3654 40.5304V1.12793H34.3545Z" fill="#BFBFBF"/>
<path d="M114.599 55.1722L112.766 57.4281L75.0729 26.1382V57.4172H72.2109V19.9453L114.599 55.1722ZM74.8344 3.37309L76.6665 1.11719L114.36 32.3962V1.12803H117.222V38.5999L74.8344 3.37309Z" fill="#BFBFBF"/>
<path d="M209 29.2726C209 45.5194 196.75 58.5451 179.816 58.5451C162.872 58.5451 150.633 45.5194 150.633 29.2726C150.633 13.0257 162.883 0 179.816 0C196.75 0 209 13.0257 209 29.2726ZM206.138 29.2726C206.138 14.7176 195.167 2.73312 179.816 2.73312C164.466 2.73312 153.495 14.7176 153.495 29.2726C153.495 43.8275 164.466 55.812 179.816 55.812C195.167 55.812 206.138 43.8275 206.138 29.2726Z" fill="#BFBFBF"/>
<path d="M9.42041 83.8481L8.50979 81.2234H4.91064L4.00001 83.8481H2.81836L6.14649 74.6943H7.26309L10.6021 83.8481H9.42041ZM6.68853 76.0826L5.2467 80.2582H8.18456L6.73189 76.0826H6.68853Z" fill="#BFBFBF"/>
<path d="M23.8281 74.6943H26.9286C28.2729 74.6943 29.3136 75.0956 30.0724 75.8982C30.8204 76.7008 31.1999 77.8287 31.1999 79.2604C31.1999 80.7029 30.8204 81.8308 30.0724 82.6334C29.3244 83.436 28.2729 83.8373 26.9286 83.8373H23.8281V74.6943ZM24.9556 75.7138V82.8069H26.8527C27.8717 82.8069 28.6631 82.5032 29.216 81.885C29.7689 81.2777 30.0399 80.3992 30.0399 79.2604C30.0399 78.1107 29.7689 77.2322 29.216 76.6249C28.6631 76.0175 27.8826 75.703 26.8527 75.703H24.9556V75.7138Z" fill="#BFBFBF"/>
<path d="M48.1977 83.8481H47.0811L43.7529 74.6943H44.9346L47.6231 82.4599H47.6556L50.3441 74.6943H51.5258L48.1977 83.8481Z" fill="#BFBFBF"/>
<path d="M70.3567 82.8178V83.8481H64.752V74.6943H70.3567V75.7247H65.8794V78.6639H70.1182V79.6834H65.8794V82.8286H70.3567V82.8178Z" fill="#BFBFBF"/>
<path d="M85.1655 80.2256V83.8481H84.0381V74.6943H87.4963C88.3744 74.6943 89.0682 74.9438 89.5886 75.4427C90.1089 75.9416 90.38 76.6032 90.38 77.4275C90.38 78.0673 90.2173 78.6205 89.8921 79.0868C89.5669 79.5532 89.1224 79.8786 88.5587 80.063L90.651 83.859H89.3284L87.3879 80.2365H85.1655V80.2256ZM85.1655 75.703V79.2061H87.3879C87.9733 79.2061 88.4178 79.0543 88.7322 78.7506C89.0465 78.4469 89.2092 78.0131 89.2092 77.4491C89.2092 76.896 89.0465 76.473 88.7105 76.1585C88.3853 75.8548 87.9191 75.6921 87.3337 75.6921H85.1655V75.703Z" fill="#BFBFBF"/>
<path d="M107.454 83.8481H106.326V75.7247H103.41V74.6943H110.37V75.7247H107.454V83.8481Z" fill="#BFBFBF"/>
<path d="M124.875 83.8481H123.748V74.6943H124.875V83.8481Z" fill="#BFBFBF"/>
<path d="M138.383 81.3209H139.521C139.575 81.8198 139.814 82.2103 140.237 82.5139C140.659 82.8176 141.201 82.9694 141.841 82.9694C142.448 82.9694 142.958 82.8176 143.359 82.5248C143.76 82.2319 143.955 81.8632 143.955 81.4077C143.955 81.0281 143.814 80.7027 143.543 80.4532C143.261 80.2038 142.817 79.9977 142.21 79.835L141.05 79.5314C140.215 79.3144 139.608 79.0108 139.218 78.6312C138.827 78.2516 138.643 77.7418 138.643 77.1236C138.643 76.3644 138.936 75.7354 139.532 75.2582C140.128 74.7809 140.898 74.5315 141.83 74.5315C142.73 74.5315 143.467 74.7809 144.063 75.269C144.66 75.7571 144.963 76.3861 144.985 77.1453H143.857C143.803 76.6572 143.597 76.2668 143.229 75.9848C142.86 75.7028 142.383 75.5618 141.798 75.5618C141.212 75.5618 140.735 75.7028 140.367 75.9848C139.998 76.2668 139.814 76.6247 139.814 77.0802C139.814 77.4273 139.944 77.7093 140.215 77.937C140.486 78.1648 140.93 78.3492 141.537 78.5119L142.481 78.7613C143.413 78.9999 144.085 79.3144 144.497 79.7049C144.909 80.0953 145.115 80.6268 145.115 81.2775C145.115 82.1126 144.811 82.7742 144.204 83.2623C143.597 83.7503 142.773 83.9998 141.733 83.9998C140.768 83.9998 139.987 83.7612 139.38 83.2731C138.773 82.7851 138.448 82.1343 138.383 81.3209Z" fill="#BFBFBF"/>
<path d="M159.761 83.8481H158.634V74.6943H159.761V83.8481Z" fill="#BFBFBF"/>
<path d="M174.819 83.8481H173.702V74.6943H174.797L179.751 81.885H179.806V74.6943H180.922V83.8481H179.827L174.873 76.6899H174.819V83.8481Z" fill="#BFBFBF"/>
<path d="M202.495 80.0521C202.495 81.2885 202.159 82.2537 201.487 82.9479C200.815 83.642 199.872 83.9891 198.669 83.9891C197.411 83.9891 196.403 83.5552 195.655 82.6876C194.907 81.8199 194.527 80.6594 194.527 79.2061C194.527 77.7745 194.907 76.6357 195.644 75.7897C196.392 74.9437 197.4 74.5208 198.669 74.5208C199.644 74.5208 200.479 74.7919 201.162 75.3342C201.845 75.8765 202.279 76.6031 202.441 77.5142H201.259C201.075 76.896 200.75 76.4188 200.295 76.0825C199.839 75.7463 199.297 75.5728 198.658 75.5728C197.725 75.5728 196.999 75.8982 196.468 76.5381C195.937 77.178 195.676 78.0673 195.676 79.1953C195.676 80.3449 195.947 81.2559 196.479 81.9175C197.01 82.5791 197.736 82.9153 198.658 82.9153C199.46 82.9153 200.11 82.6767 200.609 82.1995C201.108 81.7223 201.357 81.0933 201.357 80.3341V80.1714H198.809V79.1736H202.484V80.0521H202.495Z" fill="#BFBFBF"/>
</svg>
