<svg width="41" height="56" viewBox="0 0 41 56" fill="none" xmlns="http://www.w3.org/2000/svg">
<path d="M36.2985 23.2977C34.9685 23.1711 33.6422 23.6105 32.6596 24.5038C32.5382 24.6143 32.4231 24.7306 32.3147 24.8518C31.5786 23.4775 30.2238 22.4915 28.6426 22.3406C27.3125 22.214 25.9862 22.6535 25.0036 23.5468C24.8822 23.6572 24.7671 23.7735 24.6587 23.8948C24.0161 22.6952 22.9019 21.7915 21.5773 21.4808C23.8732 19.1985 25.2508 16.0504 25.2508 12.6888C25.2507 5.86184 19.6965 0.307617 12.8694 0.307617C6.0424 0.307617 0.488281 5.86184 0.488281 12.6889C0.488281 17.6977 3.5447 22.2348 8.14427 24.1358V29.4532L4.69679 31.9158C2.65419 33.3749 1.81518 35.9552 2.60898 38.3364L6.00908 48.5371C7.43625 52.818 11.4268 55.6943 15.9393 55.6943H30.0955C35.8671 55.6943 40.5627 50.9988 40.5627 45.2271V28.1655C40.5627 25.6638 38.6897 23.5258 36.2985 23.2977ZM2.28261 12.6889C2.28261 6.85133 7.03189 2.10205 12.8694 2.10205C18.707 2.10205 23.4562 6.85133 23.4562 12.6889C23.4562 16.7182 21.1432 20.3901 17.5946 22.1645V19.8186C19.9682 18.2415 21.4226 15.5564 21.4226 12.6889C21.4226 7.97269 17.5856 4.13567 12.8694 4.13567C8.15325 4.13567 4.31622 7.97269 4.31622 12.6889C4.31622 15.5562 5.77076 18.2414 8.14427 19.8186V22.1645C4.59586 20.3901 2.28261 16.7181 2.28261 12.6889ZM13.3305 7.98578C12.0003 7.859 10.6741 8.29841 9.69163 9.19184C8.7083 10.0859 8.14427 11.3606 8.14427 12.6889V17.5183C6.86357 16.2606 6.11066 14.5219 6.11066 12.6889C6.11066 8.96208 9.14263 5.9301 12.8694 5.9301C16.5962 5.9301 19.6282 8.96208 19.6282 12.6889C19.6282 14.5221 18.8753 16.2608 17.5946 17.5184V12.8535C17.5947 10.3518 15.7217 8.2136 13.3305 7.98578ZM30.0955 53.8998H15.9392C12.2001 53.8998 8.89372 51.5166 7.71135 47.9696L4.31124 37.769C3.76798 36.1397 4.34208 34.3743 5.73972 33.376L8.14427 31.6584V39.4852C8.14427 39.9807 8.54582 40.3824 9.04149 40.3824C9.53704 40.3824 9.9387 39.9808 9.9387 39.4852V12.6889C9.9387 11.8649 10.2887 11.0741 10.8987 10.5196C11.517 9.95741 12.3208 9.69184 13.1602 9.7721C14.6407 9.91317 15.8004 11.2667 15.8004 12.8534V31.829C15.8004 32.3245 16.2019 32.7262 16.6976 32.7262C17.1931 32.7262 17.5948 32.3246 17.5948 31.829V26.087C17.5948 25.263 17.9448 24.4722 18.5548 23.9177C19.173 23.3556 19.9759 23.0894 20.8163 23.1702C22.2967 23.3114 23.4564 24.6649 23.4564 26.2516V27.044V32.786C23.4564 33.2815 23.8579 33.6833 24.3536 33.6833C24.8492 33.6833 25.2508 33.2816 25.2508 32.786V27.044C25.2508 26.22 25.6007 25.4293 26.2108 24.8748C26.829 24.3127 27.6319 24.0464 28.4723 24.1273C29.9527 24.2684 31.1123 25.6219 31.1123 27.2087V28.0008V33.7429C31.1123 34.2383 31.5139 34.6401 32.0096 34.6401C32.5052 34.6401 32.9068 34.2384 32.9068 33.7429V28.0008C32.9068 27.1769 33.2566 26.3861 33.8667 25.8316C34.485 25.2695 35.2879 25.0033 36.1283 25.0841C37.6087 25.2253 38.7683 26.5788 38.7683 28.1655V45.2269H38.7687C38.7683 50.0092 34.8778 53.8998 30.0955 53.8998Z" fill="#A38A64"/>
</svg>
