<svg width="18" height="18" viewBox="0 0 18 18" fill="none" xmlns="http://www.w3.org/2000/svg">
<path d="M10.6876 14.772C10.2751 14.3596 9.60635 14.3596 9.19382 14.772C9.60628 14.3596 9.60628 13.6908 9.19382 13.2783C8.7813 12.8658 8.11258 12.8658 7.70002 13.2783C8.11255 12.8658 8.11255 12.197 7.70002 11.7845C7.28757 11.372 6.61882 11.372 6.20626 11.7845C6.61878 11.372 6.61878 10.7033 6.20626 10.2907C5.79373 9.87819 5.12502 9.87819 4.71246 10.2907L3.96559 11.0376C3.55314 11.4501 3.55314 12.1188 3.96559 12.5314C4.37812 12.9438 5.04683 12.9438 5.45939 12.5314C5.04687 12.9438 5.04687 13.6126 5.45939 14.0251C5.87188 14.4377 6.54067 14.4377 6.95316 14.0251C6.5407 14.4377 6.5407 15.1064 6.95316 15.5189C7.36568 15.9314 8.0344 15.9314 8.44696 15.5189C8.03443 15.9314 8.03443 16.6002 8.44696 17.0127C8.85941 17.4252 9.52816 17.4252 9.94072 17.0127L10.6876 16.2658C11.1001 15.8533 11.1001 15.1846 10.6876 14.772Z" fill="#BFBFBF"/>
<path d="M16.3257 1.70157C14.057 -0.567189 10.343 -0.567189 8.07427 1.70157L5.08674 4.6891C4.67421 5.10155 4.67421 5.77026 5.08674 6.18283C5.49927 6.59535 6.16798 6.59535 6.58054 6.18283L11.4353 2.8219L17.2517 8.63833C18.4869 6.42681 18.2055 3.58135 16.3257 1.70157Z" fill="#BFBFBF"/>
<path d="M16.476 9.35716C16.2632 9.14436 11.4887 4.36986 11.311 4.19207L7.24617 7.00607C6.41791 7.75255 5.13646 7.72702 4.33921 6.92982C3.51536 6.10603 3.51536 4.76611 4.33921 3.94229L7.32674 0.954757C7.42873 0.852768 7.53758 0.762064 7.64424 0.66788C5.62949 0.00795684 3.28009 0.404768 1.67836 2.00643C-0.590361 4.27518 -0.543638 8.02206 1.72508 10.2907L2.67972 11.2453C2.77166 10.8961 2.94557 10.564 3.21888 10.2908L3.96575 9.54391C4.7896 8.72006 6.12945 8.72006 6.95328 9.54391C7.22655 9.81718 7.4005 10.1493 7.49244 10.4985C7.84168 10.5904 8.1738 10.7643 8.44708 11.0376C8.72035 11.3109 8.89423 11.643 8.98624 11.9923C9.33548 12.0842 9.66757 12.2581 9.94081 12.5314C10.214 12.8047 10.388 13.1368 10.48 13.486C10.8292 13.5779 11.1613 13.7519 11.4346 14.0252L11.6213 14.2119C11.9306 14.5213 12.4323 14.5213 12.7417 14.2119C13.051 13.9026 13.051 13.4009 12.7417 13.0916L9.19394 9.54391L9.94081 8.79698L13.4885 12.3447C13.7978 12.6541 14.2995 12.6541 14.6089 12.3447C14.9182 12.0354 14.9182 11.5337 14.6089 11.2244L11.0611 7.67672L11.808 6.92978L15.3557 10.4775C15.665 10.7869 16.1667 10.7869 16.476 10.4775C16.7854 10.1682 16.7854 9.66654 16.476 9.35716Z" fill="#BFBFBF"/>
</svg>
