<svg width="12" height="12" viewBox="0 0 12 12" fill="none" xmlns="http://www.w3.org/2000/svg">
<path fill-rule="evenodd" clip-rule="evenodd" d="M11.564 11.5582C10.9841 12.1378 10.0417 12.1378 9.46185 11.5582L6.00375 8.10184L2.53814 11.5642C1.9583 12.1453 1.01586 12.1453 0.436009 11.5642C-0.145336 10.9847 -0.145336 10.0442 0.436009 9.46312L3.90011 5.99925L0.436009 2.53688C-0.145336 1.95582 -0.145336 1.01535 0.436009 0.435792C1.01586 -0.145264 1.9583 -0.145264 2.53814 0.435792L6.00375 3.89817L9.46185 0.441782C10.0417 -0.139274 10.9826 -0.139274 11.564 0.441782C12.1438 1.02284 12.1438 1.96331 11.564 2.54287L8.10588 6.00075L11.564 9.45713C12.1453 10.0367 12.1453 10.9787 11.564 11.5582Z" fill="#484848"/>
</svg>
