<svg width="46" height="46" viewBox="0 0 46 46" fill="none" xmlns="http://www.w3.org/2000/svg">
<path d="M43.5004 33.6H43.2004C43.9004 32.7 44.4004 31.5 44.4004 30.3C44.4004 27.4 42.0004 25 39.1004 25C36.2004 25 33.8004 27.4 33.8004 30.3C33.8004 31.5 34.2004 32.7 35.0004 33.6H34.7004C33.4004 33.6 32.4004 34.6 32.4004 35.9V42.5C32.4004 44.2 33.7004 45.5 35.4004 45.5H42.8004C44.4004 45.5 45.8004 44.2 45.8004 42.5V35.9C45.8004 34.6 44.8004 33.6 43.5004 33.6ZM35.8004 30.3C35.8004 28.5 37.3004 27 39.1004 27C40.9004 27 42.4004 28.5 42.4004 30.3C42.4004 32.1 40.9004 33.6 39.1004 33.6C37.3004 33.6 35.8004 32.1 35.8004 30.3ZM43.8004 42.4C43.8004 43 43.3004 43.4 42.8004 43.4H35.4004C34.8004 43.4 34.4004 43 34.4004 42.4V35.8C34.4004 35.7 34.5004 35.5 34.7004 35.5H43.5004C43.7004 35.5 43.8004 35.6 43.8004 35.8V42.4Z" fill="#DADADA"/>
<path d="M11.1 33.6H10.8C11.5 32.7 12 31.5 12 30.3C12 27.4 9.6 25 6.7 25C3.8 25 1.4 27.4 1.4 30.3C1.4 31.5 1.8 32.7 2.6 33.6H2.3C1 33.6 0 34.6 0 35.9V42.5C0 44.2 1.3 45.5 3 45.5H10.4C12.1 45.5 13.4 44.2 13.4 42.5V35.9C13.4 34.6 12.4 33.6 11.1 33.6ZM3.4 30.3C3.4 28.5 4.9 27 6.7 27C8.5 27 10 28.5 10 30.3C10 32.1 8.5 33.6 6.7 33.6C4.9 33.6 3.4 32.1 3.4 30.3ZM11.4 42.4C11.4 43 10.9 43.4 10.4 43.4H3C2.4 43.4 2 43 2 42.4V35.8C2 35.7 2.1 35.5 2.3 35.5H11.2C11.4 35.5 11.5 35.6 11.5 35.8V42.4H11.4Z" fill="#DADADA"/>
<path d="M38.4004 0H7.40039C5.80039 0 4.40039 1.4 4.40039 3V19.9C4.40039 21.5 5.80039 22.9 7.40039 22.9H38.4004C40.1004 22.9 41.4004 21.5 41.4004 19.9V3C41.4004 1.4 40.0004 0 38.4004 0ZM26.8004 21H18.8004V13.5C18.8004 13.4 18.9004 13.4 18.9004 13.4H26.7004C26.8004 13.4 26.8004 13.5 26.8004 13.5V21ZM20.1004 8.6C20.1004 7.1 21.3004 5.8 22.9004 5.8C24.4004 5.8 25.7004 7 25.7004 8.6C25.7004 10.2 24.5004 11.4 22.9004 11.4C21.3004 11.4 20.1004 10.1 20.1004 8.6ZM39.4004 20C39.4004 20.5 38.9004 21 38.4004 21H28.8004V13.5C28.8004 12.3 27.8004 11.4 26.7004 11.4C27.2004 10.6 27.6004 9.7 27.6004 8.6C27.6004 6 25.5004 3.9 22.8004 3.9C20.2004 3.9 18.0004 6 18.0004 8.6C18.0004 9.6 18.3004 10.6 18.9004 11.4C17.7004 11.4 16.8004 12.3 16.8004 13.5V21H7.40039C6.90039 21 6.40039 20.5 6.40039 20V3C6.40039 2.5 6.90039 2 7.40039 2H38.4004C38.9004 2 39.4004 2.5 39.4004 3V20Z" fill="#DADADA"/>
<path d="M27.2996 33.6H26.9996C27.6996 32.7 28.1996 31.5 28.1996 30.3C28.1996 27.4 25.7996 25 22.8996 25C19.9996 25 17.4996 27.4 17.4996 30.3C17.4996 31.5 17.8996 32.7 18.6996 33.6H18.3996C17.0996 33.6 16.0996 34.6 16.0996 35.9V42.5C16.0996 44.2 17.3996 45.5 19.0996 45.5H26.4996C28.0996 45.5 29.4996 44.2 29.4996 42.5V35.9C29.4996 34.6 28.4996 33.6 27.2996 33.6ZM19.4996 30.3C19.4996 28.5 20.9996 27 22.7996 27C24.5996 27 26.0996 28.5 26.0996 30.3C26.0996 32.1 24.5996 33.6 22.7996 33.6C20.9996 33.6 19.4996 32.1 19.4996 30.3ZM27.4996 42.4C27.4996 43 26.9996 43.4 26.4996 43.4H19.0996C18.4996 43.4 18.0996 43 18.0996 42.4V35.8C18.0996 35.7 18.1996 35.5 18.3996 35.5H27.2996C27.4996 35.5 27.5996 35.6 27.5996 35.8V42.4H27.4996Z" fill="#DADADA"/>
</svg>
