<svg width="59" height="51" viewBox="0 0 59 51" fill="none" xmlns="http://www.w3.org/2000/svg">
<path d="M44.4729 42.7841C38.7781 42.7841 34.3297 36.7825 34.143 36.5267C33.9133 36.2119 33.9133 35.7844 34.143 35.4696C34.3297 35.2138 38.7781 29.2122 44.4729 29.2122C50.1682 29.2122 54.6161 35.2138 54.8028 35.4696C55.0331 35.7844 55.0331 36.2119 54.8028 36.5267C54.6161 36.7825 50.1682 42.7841 44.4729 42.7841ZM36.0151 35.9981C37.1779 37.3802 40.5886 40.9911 44.4729 40.9911C48.3567 40.9911 51.7675 37.3807 52.9308 35.9981C51.7675 34.6156 48.3572 31.0051 44.4729 31.0051C40.5891 31.0051 37.1784 34.6161 36.0151 35.9981Z" fill="#ECF0F1"/>
<path d="M44.4707 40.4813C41.999 40.4813 39.9883 38.47 39.9883 35.9983C39.9883 33.5266 41.999 31.5159 44.4707 31.5159C46.9424 31.5159 48.9537 33.5266 48.9537 35.9983C48.9537 38.47 46.9424 40.4813 44.4707 40.4813ZM44.4707 33.3088C42.9876 33.3088 41.7813 34.5152 41.7813 35.9983C41.7813 37.4815 42.9876 38.6878 44.4707 38.6878C45.9539 38.6878 47.1607 37.4815 47.1607 35.9983C47.1607 34.5152 45.9539 33.3088 44.4707 33.3088Z" fill="#ECF0F1"/>
<path d="M44.4737 50.343C36.564 50.343 30.1289 43.9079 30.1289 35.9982C30.1289 28.0884 36.564 21.6533 44.4737 21.6533C52.3835 21.6533 58.8186 28.0884 58.8186 35.9982C58.8186 43.9079 52.3835 50.343 44.4737 50.343ZM44.4737 23.4463C37.5531 23.4463 31.9224 29.077 31.9224 35.9982C31.9224 42.9188 37.5531 48.5495 44.4737 48.5495C51.3949 48.5495 57.0256 42.9188 57.0256 35.9982C57.0256 29.077 51.3949 23.4463 44.4737 23.4463Z" fill="#ECF0F1"/>
<path d="M31.3937 40.0382H6.01965C2.70048 40.0382 0 37.3377 0 34.0186V6.01965C0 2.70048 2.70048 0 6.01965 0H39.3199C42.6391 0 45.3396 2.70048 45.3396 6.01965V22.5499C45.3396 23.0454 44.9381 23.4469 44.4431 23.4469C43.948 23.4469 43.5466 23.0454 43.5466 22.5499V6.01965C43.5466 3.68907 41.6505 1.79298 39.3199 1.79298H6.01965C3.68907 1.79298 1.79298 3.68907 1.79298 6.01965V34.0186C1.79298 36.3491 3.68907 38.2452 6.01965 38.2452H31.3937C31.8887 38.2452 32.2901 38.6467 32.2901 39.1417C32.2901 39.6368 31.8887 40.0382 31.3937 40.0382Z" fill="#ECF0F1"/>
<path d="M44.4431 12.2115H0.89649C0.401443 12.2115 0 11.8101 0 11.315C0 10.82 0.401443 10.4185 0.89649 10.4185H44.4431C44.9381 10.4185 45.3396 10.82 45.3396 11.315C45.3396 11.8101 44.9381 12.2115 44.4431 12.2115Z" fill="#ECF0F1"/>
<path d="M12.8573 8.65356C11.4758 8.65356 10.3516 7.52932 10.3516 6.1478C10.3516 4.76627 11.4758 3.64203 12.8573 3.64203C14.2389 3.64203 15.3631 4.76627 15.3631 6.1478C15.3631 7.52932 14.2389 8.65356 12.8573 8.65356ZM12.8573 5.43501C12.4644 5.43501 12.1445 5.75486 12.1445 6.1478C12.1445 6.54073 12.4644 6.86058 12.8573 6.86058C13.2503 6.86058 13.5701 6.54073 13.5701 6.1478C13.5701 5.75486 13.2503 5.43501 12.8573 5.43501Z" fill="#ECF0F1"/>
<path d="M5.62686 8.63104C4.24533 8.63104 3.12109 7.5068 3.12109 6.12527C3.12109 4.74325 4.24533 3.61951 5.62686 3.61951C7.00838 3.61951 8.13262 4.74325 8.13262 6.12527C8.13262 7.5068 7.00838 8.63104 5.62686 8.63104ZM5.62686 5.41249C5.23392 5.41249 4.91407 5.73234 4.91407 6.12527C4.91407 6.51821 5.23392 6.83806 5.62686 6.83806C6.01979 6.83806 6.33964 6.51821 6.33964 6.12527C6.33964 5.73234 6.01979 5.41249 5.62686 5.41249Z" fill="#ECF0F1"/>
<path d="M20.0859 8.67602C18.7043 8.67602 17.5801 7.55228 17.5801 6.17025C17.5801 4.78873 18.7043 3.66449 20.0859 3.66449C21.4679 3.66449 22.5916 4.78873 22.5916 6.17025C22.5916 7.55228 21.4679 8.67602 20.0859 8.67602ZM20.0859 5.45747C19.6929 5.45747 19.3731 5.77732 19.3731 6.17025C19.3731 6.56319 19.6929 6.88304 20.0859 6.88304C20.4793 6.88304 20.7986 6.56319 20.7986 6.17025C20.7986 5.77732 20.4793 5.45747 20.0859 5.45747Z" fill="#ECF0F1"/>
</svg>
