<svg width="49" height="49" viewBox="0 0 49 49" fill="none" xmlns="http://www.w3.org/2000/svg">
<mask id="path-1-inside-1" fill="white">
<path d="M44.0983 32.4944L47.4221 29.1703C49.5264 27.0663 49.5267 23.6425 47.4224 21.5374C46.7767 20.8921 46.0013 20.4388 45.1728 20.1875C45.8504 19.2671 46.217 18.1591 46.217 16.9949C46.217 15.5533 45.6554 14.1978 44.6357 13.1785C43.6168 12.1591 42.2612 11.5976 40.8193 11.5976C40.7589 11.5976 40.6985 11.5987 40.6381 11.6005C40.6851 10.1597 40.1603 8.703 39.0627 7.60507C37.9652 6.50789 36.5066 5.98228 35.068 6.0301C35.0699 5.97005 35.071 5.90926 35.071 5.84884C35.071 4.40694 34.5094 3.05177 33.4901 2.03243C31.3862 -0.0714918 27.9623 -0.0718625 25.8573 2.03243L24.7082 3.1815L23.5595 2.0328C22.5401 1.01309 21.1846 0.451523 19.7427 0.451523C18.3012 0.451523 16.946 1.01309 15.9266 2.03206C14.8287 3.12998 14.305 4.58708 14.3528 6.02899C14.292 6.02676 14.2312 6.02454 14.1704 6.02454C12.7289 6.02454 11.3733 6.58573 10.3533 7.60507C9.2557 8.70337 8.73195 10.1605 8.77976 11.602C8.7186 11.5998 8.65781 11.5976 8.59665 11.5976C7.15512 11.5976 5.79958 12.1591 4.78098 13.1781C3.76127 14.1974 3.19971 15.553 3.19971 16.9949C3.19971 18.1588 3.56593 19.2667 4.24388 20.1867C3.4032 20.4402 2.63258 20.8991 1.99392 21.5374C-0.105184 23.6373 -0.110003 27.0504 1.97983 29.1554C1.98502 29.161 1.99021 29.1662 1.9954 29.1717L5.32401 32.4996C5.32846 32.5044 5.33328 32.5092 5.3381 32.5141C5.53789 32.7142 5.75139 32.8955 5.97528 33.0597L4.99078 34.0442C4.03334 35.0016 3.54554 36.306 3.61782 37.7172C3.68676 39.0719 4.26983 40.3626 5.25877 41.3516L10.8889 46.982C11.9334 48.0262 13.3049 48.5485 14.6767 48.5485C16.0486 48.5485 17.4204 48.0262 18.4646 46.982L21.0815 44.3647C22.2755 44.6209 23.4916 44.751 24.7089 44.751C25.9251 44.751 27.1416 44.6216 28.3352 44.3655L30.9514 46.982C31.9959 48.0262 33.3674 48.5485 34.7392 48.5485C36.1107 48.5481 37.4829 48.0262 38.5271 46.982L44.1576 41.3516C46.2459 39.2632 46.4832 36.1021 44.6861 34.3048L43.487 33.1057L44.0786 32.5137C44.0853 32.5074 44.0916 32.5011 44.0983 32.4944ZM17.9865 4.09224C18.4557 3.62297 19.0796 3.36461 19.7431 3.36461C20.4066 3.36461 21.0304 3.62297 21.4997 4.09224L25.9577 8.55028C26.9263 9.51921 26.9263 11.0953 25.9577 12.0639C25.4884 12.5331 24.8646 12.7915 24.2015 12.7915H24.2011C23.5376 12.7911 22.9141 12.5331 22.4449 12.0639C22.4441 12.0631 22.4434 12.0624 22.443 12.062L17.9876 7.60656C17.9839 7.60285 17.9805 7.59914 17.9764 7.59581C17.0179 6.62576 17.0212 5.05709 17.9865 4.09224ZM12.4068 13.1718C11.4449 12.2025 11.4471 10.6312 12.4131 9.66525C12.8827 9.19599 13.5069 8.93763 14.1704 8.93763C14.8332 8.93763 15.4563 9.19562 15.9255 9.66451C15.9259 9.66451 15.9263 9.66488 15.9263 9.66525C15.9281 9.66674 15.9296 9.66822 15.9311 9.6697L20.3839 14.1226C20.3865 14.1255 20.3899 14.1285 20.3928 14.1315L21.4993 15.2379C21.9686 15.7072 22.2273 16.331 22.2273 16.9949C22.2273 17.6584 21.9689 18.2822 21.4997 18.7511C21.0304 19.2204 20.4066 19.4787 19.7431 19.4787C19.0796 19.4787 18.4557 19.2204 17.9868 18.7511C17.9809 18.7452 17.975 18.7396 17.969 18.7341L16.8767 17.6413C16.8752 17.6398 16.8737 17.6384 16.8722 17.6365L12.4134 13.1785L12.4131 13.1781C12.4108 13.1759 12.4086 13.1736 12.4068 13.1718ZM6.84116 15.2379C7.31006 14.769 7.93353 14.5106 8.59702 14.5106C9.26052 14.5106 9.88436 14.769 10.3536 15.2383L14.8169 19.7015C15.7806 20.6704 15.7787 22.2428 14.8124 23.2099C14.3431 23.6788 13.7189 23.9371 13.0554 23.9371C12.3919 23.9371 11.7681 23.6788 11.2992 23.2095C11.2933 23.204 11.2877 23.198 11.2818 23.1925L6.85488 18.7656C6.85006 18.7607 6.84524 18.7556 6.84079 18.7511C6.37152 18.2818 6.11317 17.6584 6.11317 16.9949C6.1128 16.3314 6.37152 15.7075 6.84116 15.2379ZM4.06893 27.1256C4.06336 27.1197 4.05781 27.1142 4.05225 27.1086C3.08554 26.14 3.08628 24.5654 4.0541 23.5976C4.52337 23.1283 5.1472 22.87 5.8107 22.87C6.4742 22.87 7.09841 23.1283 7.56767 23.598L10.9111 26.941C11.8797 27.9096 11.8797 29.4857 10.9115 30.4543C10.4422 30.9235 9.81838 31.1819 9.15525 31.1819H9.15488C9.03293 31.1819 8.91246 31.173 8.79385 31.1559C8.78495 31.1541 8.77606 31.153 8.76716 31.1515C8.25564 31.0718 7.7834 30.8353 7.40866 30.465C7.40495 30.4609 7.40087 30.4572 7.39717 30.4531L4.06893 27.1256ZM21.0026 41.3531C20.99 41.3497 20.9778 41.3482 20.9655 41.3453C20.9362 41.3382 20.9073 41.3316 20.878 41.3264C20.8565 41.3227 20.835 41.3201 20.8132 41.3171C20.7891 41.3141 20.765 41.3112 20.7405 41.3093C20.715 41.3071 20.6894 41.306 20.6638 41.3056C20.643 41.3049 20.6227 41.3045 20.6019 41.3049C20.5745 41.3052 20.5474 41.3067 20.5203 41.3089C20.5007 41.3104 20.4811 41.3119 20.4614 41.3141C20.4347 41.3171 20.4084 41.3212 20.3821 41.3256C20.3613 41.329 20.3409 41.333 20.3202 41.3375C20.2961 41.3427 20.2724 41.3482 20.2486 41.3549C20.226 41.3608 20.2034 41.3675 20.1808 41.3745C20.1597 41.3816 20.1393 41.389 20.1185 41.3964C20.0945 41.4057 20.0704 41.415 20.047 41.4253C20.0281 41.4335 20.0092 41.4424 19.9907 41.4513C19.9669 41.4628 19.9436 41.4746 19.9206 41.4876C19.9017 41.498 19.8832 41.5091 19.8646 41.5206C19.8439 41.5336 19.8228 41.5465 19.8024 41.5606C19.7816 41.5751 19.7612 41.5903 19.7412 41.6058C19.7245 41.6184 19.7082 41.6311 19.6919 41.6444C19.6682 41.6644 19.6456 41.6852 19.6233 41.7067C19.6148 41.7148 19.6055 41.7219 19.597 41.7304L16.4052 44.9222C15.4522 45.8752 13.902 45.8752 12.9491 44.9222L7.31896 39.2921C6.84079 38.814 6.55945 38.202 6.52721 37.5685C6.49792 36.9914 6.68363 36.4713 7.05096 36.1044L9.06221 34.0927C9.09298 34.0931 9.12374 34.095 9.15488 34.095C9.15488 34.095 9.15488 34.095 9.15525 34.095C10.5964 34.095 11.9516 33.5334 12.9713 32.5141C14.5314 30.9535 14.9336 28.668 14.1797 26.7324C15.1923 26.5189 16.1231 26.0185 16.8726 25.2697C17.7285 24.4131 18.2363 23.3378 18.3953 22.2221C18.8305 22.3336 19.2823 22.3918 19.7431 22.3918C19.7431 22.3918 19.7431 22.3918 19.7434 22.3918C21.1846 22.3918 22.5398 21.8306 23.5595 20.8113C24.5788 19.7919 25.1404 18.4364 25.1404 16.9949C25.1404 16.5349 25.0826 16.0838 24.9717 15.6493C26.1208 15.4862 27.1824 14.9592 28.0175 14.1233C30.1218 12.0194 30.1218 8.5955 28.0179 6.49084L26.768 5.24094L27.9171 4.09224C28.886 3.12368 30.4621 3.12368 31.4303 4.09187C31.8995 4.56114 32.1579 5.18497 32.1579 5.84847C32.1579 6.51197 31.8995 7.13581 31.4303 7.60507C31.146 7.88938 31.0036 8.26227 31.0036 8.63516C31.0036 9.00769 31.1456 9.38058 31.4303 9.66488C31.9992 10.2339 32.9211 10.2339 33.4901 9.66488C34.4583 8.6967 36.0344 8.69632 37.0033 9.66488C37.9718 10.6338 37.9715 12.2099 37.0029 13.1785C36.7186 13.4628 36.5763 13.8357 36.5763 14.2082C36.5763 14.5811 36.7182 14.9536 37.0029 15.2379C37.5719 15.8069 38.4937 15.8069 39.0627 15.2383C39.532 14.769 40.1562 14.5106 40.8197 14.5103C41.4832 14.5103 42.107 14.7686 42.5759 15.2379C43.0456 15.7075 43.3039 16.3314 43.3039 16.9949C43.3039 17.6495 43.0522 18.2655 42.5948 18.7322C42.5882 18.7389 42.5815 18.7452 42.5752 18.7518L40.4865 20.8409C39.9664 21.361 39.9156 22.1872 40.3682 22.7669L40.4431 22.8629C40.8946 23.4416 41.7063 23.5935 42.3365 23.218C43.3132 22.6361 44.5575 22.7921 45.3626 23.5969C46.3312 24.5658 46.3312 26.1419 45.3626 27.1104L42.0196 30.4531C42.0133 30.4598 42.0066 30.4665 42.0003 30.4732L34.8245 37.6489C31.2242 41.2493 25.928 42.6686 21.0026 41.3531ZM42.6267 36.3646C43.2654 37.0036 43.0185 38.3718 42.0981 39.2921L36.4677 44.9222C35.5147 45.8752 33.9645 45.8752 33.0115 44.9222L31.4621 43.3728C33.476 42.5132 35.3204 41.2726 36.8843 39.7088L41.4272 35.1655L42.6267 36.3646Z"/>
</mask>
<path d="M44.0983 32.4944L47.4221 29.1703C49.5264 27.0663 49.5267 23.6425 47.4224 21.5374C46.7767 20.8921 46.0013 20.4388 45.1728 20.1875C45.8504 19.2671 46.217 18.1591 46.217 16.9949C46.217 15.5533 45.6554 14.1978 44.6357 13.1785C43.6168 12.1591 42.2612 11.5976 40.8193 11.5976C40.7589 11.5976 40.6985 11.5987 40.6381 11.6005C40.6851 10.1597 40.1603 8.703 39.0627 7.60507C37.9652 6.50789 36.5066 5.98228 35.068 6.0301C35.0699 5.97005 35.071 5.90926 35.071 5.84884C35.071 4.40694 34.5094 3.05177 33.4901 2.03243C31.3862 -0.0714918 27.9623 -0.0718625 25.8573 2.03243L24.7082 3.1815L23.5595 2.0328C22.5401 1.01309 21.1846 0.451523 19.7427 0.451523C18.3012 0.451523 16.946 1.01309 15.9266 2.03206C14.8287 3.12998 14.305 4.58708 14.3528 6.02899C14.292 6.02676 14.2312 6.02454 14.1704 6.02454C12.7289 6.02454 11.3733 6.58573 10.3533 7.60507C9.2557 8.70337 8.73195 10.1605 8.77976 11.602C8.7186 11.5998 8.65781 11.5976 8.59665 11.5976C7.15512 11.5976 5.79958 12.1591 4.78098 13.1781C3.76127 14.1974 3.19971 15.553 3.19971 16.9949C3.19971 18.1588 3.56593 19.2667 4.24388 20.1867C3.4032 20.4402 2.63258 20.8991 1.99392 21.5374C-0.105184 23.6373 -0.110003 27.0504 1.97983 29.1554C1.98502 29.161 1.99021 29.1662 1.9954 29.1717L5.32401 32.4996C5.32846 32.5044 5.33328 32.5092 5.3381 32.5141C5.53789 32.7142 5.75139 32.8955 5.97528 33.0597L4.99078 34.0442C4.03334 35.0016 3.54554 36.306 3.61782 37.7172C3.68676 39.0719 4.26983 40.3626 5.25877 41.3516L10.8889 46.982C11.9334 48.0262 13.3049 48.5485 14.6767 48.5485C16.0486 48.5485 17.4204 48.0262 18.4646 46.982L21.0815 44.3647C22.2755 44.6209 23.4916 44.751 24.7089 44.751C25.9251 44.751 27.1416 44.6216 28.3352 44.3655L30.9514 46.982C31.9959 48.0262 33.3674 48.5485 34.7392 48.5485C36.1107 48.5481 37.4829 48.0262 38.5271 46.982L44.1576 41.3516C46.2459 39.2632 46.4832 36.1021 44.6861 34.3048L43.487 33.1057L44.0786 32.5137C44.0853 32.5074 44.0916 32.5011 44.0983 32.4944ZM17.9865 4.09224C18.4557 3.62297 19.0796 3.36461 19.7431 3.36461C20.4066 3.36461 21.0304 3.62297 21.4997 4.09224L25.9577 8.55028C26.9263 9.51921 26.9263 11.0953 25.9577 12.0639C25.4884 12.5331 24.8646 12.7915 24.2015 12.7915H24.2011C23.5376 12.7911 22.9141 12.5331 22.4449 12.0639C22.4441 12.0631 22.4434 12.0624 22.443 12.062L17.9876 7.60656C17.9839 7.60285 17.9805 7.59914 17.9764 7.59581C17.0179 6.62576 17.0212 5.05709 17.9865 4.09224ZM12.4068 13.1718C11.4449 12.2025 11.4471 10.6312 12.4131 9.66525C12.8827 9.19599 13.5069 8.93763 14.1704 8.93763C14.8332 8.93763 15.4563 9.19562 15.9255 9.66451C15.9259 9.66451 15.9263 9.66488 15.9263 9.66525C15.9281 9.66674 15.9296 9.66822 15.9311 9.6697L20.3839 14.1226C20.3865 14.1255 20.3899 14.1285 20.3928 14.1315L21.4993 15.2379C21.9686 15.7072 22.2273 16.331 22.2273 16.9949C22.2273 17.6584 21.9689 18.2822 21.4997 18.7511C21.0304 19.2204 20.4066 19.4787 19.7431 19.4787C19.0796 19.4787 18.4557 19.2204 17.9868 18.7511C17.9809 18.7452 17.975 18.7396 17.969 18.7341L16.8767 17.6413C16.8752 17.6398 16.8737 17.6384 16.8722 17.6365L12.4134 13.1785L12.4131 13.1781C12.4108 13.1759 12.4086 13.1736 12.4068 13.1718ZM6.84116 15.2379C7.31006 14.769 7.93353 14.5106 8.59702 14.5106C9.26052 14.5106 9.88436 14.769 10.3536 15.2383L14.8169 19.7015C15.7806 20.6704 15.7787 22.2428 14.8124 23.2099C14.3431 23.6788 13.7189 23.9371 13.0554 23.9371C12.3919 23.9371 11.7681 23.6788 11.2992 23.2095C11.2933 23.204 11.2877 23.198 11.2818 23.1925L6.85488 18.7656C6.85006 18.7607 6.84524 18.7556 6.84079 18.7511C6.37152 18.2818 6.11317 17.6584 6.11317 16.9949C6.1128 16.3314 6.37152 15.7075 6.84116 15.2379ZM4.06893 27.1256C4.06336 27.1197 4.05781 27.1142 4.05225 27.1086C3.08554 26.14 3.08628 24.5654 4.0541 23.5976C4.52337 23.1283 5.1472 22.87 5.8107 22.87C6.4742 22.87 7.09841 23.1283 7.56767 23.598L10.9111 26.941C11.8797 27.9096 11.8797 29.4857 10.9115 30.4543C10.4422 30.9235 9.81838 31.1819 9.15525 31.1819H9.15488C9.03293 31.1819 8.91246 31.173 8.79385 31.1559C8.78495 31.1541 8.77606 31.153 8.76716 31.1515C8.25564 31.0718 7.7834 30.8353 7.40866 30.465C7.40495 30.4609 7.40087 30.4572 7.39717 30.4531L4.06893 27.1256ZM21.0026 41.3531C20.99 41.3497 20.9778 41.3482 20.9655 41.3453C20.9362 41.3382 20.9073 41.3316 20.878 41.3264C20.8565 41.3227 20.835 41.3201 20.8132 41.3171C20.7891 41.3141 20.765 41.3112 20.7405 41.3093C20.715 41.3071 20.6894 41.306 20.6638 41.3056C20.643 41.3049 20.6227 41.3045 20.6019 41.3049C20.5745 41.3052 20.5474 41.3067 20.5203 41.3089C20.5007 41.3104 20.4811 41.3119 20.4614 41.3141C20.4347 41.3171 20.4084 41.3212 20.3821 41.3256C20.3613 41.329 20.3409 41.333 20.3202 41.3375C20.2961 41.3427 20.2724 41.3482 20.2486 41.3549C20.226 41.3608 20.2034 41.3675 20.1808 41.3745C20.1597 41.3816 20.1393 41.389 20.1185 41.3964C20.0945 41.4057 20.0704 41.415 20.047 41.4253C20.0281 41.4335 20.0092 41.4424 19.9907 41.4513C19.9669 41.4628 19.9436 41.4746 19.9206 41.4876C19.9017 41.498 19.8832 41.5091 19.8646 41.5206C19.8439 41.5336 19.8228 41.5465 19.8024 41.5606C19.7816 41.5751 19.7612 41.5903 19.7412 41.6058C19.7245 41.6184 19.7082 41.6311 19.6919 41.6444C19.6682 41.6644 19.6456 41.6852 19.6233 41.7067C19.6148 41.7148 19.6055 41.7219 19.597 41.7304L16.4052 44.9222C15.4522 45.8752 13.902 45.8752 12.9491 44.9222L7.31896 39.2921C6.84079 38.814 6.55945 38.202 6.52721 37.5685C6.49792 36.9914 6.68363 36.4713 7.05096 36.1044L9.06221 34.0927C9.09298 34.0931 9.12374 34.095 9.15488 34.095C9.15488 34.095 9.15488 34.095 9.15525 34.095C10.5964 34.095 11.9516 33.5334 12.9713 32.5141C14.5314 30.9535 14.9336 28.668 14.1797 26.7324C15.1923 26.5189 16.1231 26.0185 16.8726 25.2697C17.7285 24.4131 18.2363 23.3378 18.3953 22.2221C18.8305 22.3336 19.2823 22.3918 19.7431 22.3918C19.7431 22.3918 19.7431 22.3918 19.7434 22.3918C21.1846 22.3918 22.5398 21.8306 23.5595 20.8113C24.5788 19.7919 25.1404 18.4364 25.1404 16.9949C25.1404 16.5349 25.0826 16.0838 24.9717 15.6493C26.1208 15.4862 27.1824 14.9592 28.0175 14.1233C30.1218 12.0194 30.1218 8.5955 28.0179 6.49084L26.768 5.24094L27.9171 4.09224C28.886 3.12368 30.4621 3.12368 31.4303 4.09187C31.8995 4.56114 32.1579 5.18497 32.1579 5.84847C32.1579 6.51197 31.8995 7.13581 31.4303 7.60507C31.146 7.88938 31.0036 8.26227 31.0036 8.63516C31.0036 9.00769 31.1456 9.38058 31.4303 9.66488C31.9992 10.2339 32.9211 10.2339 33.4901 9.66488C34.4583 8.6967 36.0344 8.69632 37.0033 9.66488C37.9718 10.6338 37.9715 12.2099 37.0029 13.1785C36.7186 13.4628 36.5763 13.8357 36.5763 14.2082C36.5763 14.5811 36.7182 14.9536 37.0029 15.2379C37.5719 15.8069 38.4937 15.8069 39.0627 15.2383C39.532 14.769 40.1562 14.5106 40.8197 14.5103C41.4832 14.5103 42.107 14.7686 42.5759 15.2379C43.0456 15.7075 43.3039 16.3314 43.3039 16.9949C43.3039 17.6495 43.0522 18.2655 42.5948 18.7322C42.5882 18.7389 42.5815 18.7452 42.5752 18.7518L40.4865 20.8409C39.9664 21.361 39.9156 22.1872 40.3682 22.7669L40.4431 22.8629C40.8946 23.4416 41.7063 23.5935 42.3365 23.218C43.3132 22.6361 44.5575 22.7921 45.3626 23.5969C46.3312 24.5658 46.3312 26.1419 45.3626 27.1104L42.0196 30.4531C42.0133 30.4598 42.0066 30.4665 42.0003 30.4732L34.8245 37.6489C31.2242 41.2493 25.928 42.6686 21.0026 41.3531ZM42.6267 36.3646C43.2654 37.0036 43.0185 38.3718 42.0981 39.2921L36.4677 44.9222C35.5147 45.8752 33.9645 45.8752 33.0115 44.9222L31.4621 43.3728C33.476 42.5132 35.3204 41.2726 36.8843 39.7088L41.4272 35.1655L42.6267 36.3646Z" fill="#DADADA" stroke="#217DDA" mask="url(#path-1-inside-1)"/>
</svg>
