<svg width="18" height="18" viewBox="0 0 18 18" fill="none" xmlns="http://www.w3.org/2000/svg">
<mask id="mask0" mask-type="alpha" maskUnits="userSpaceOnUse" x="1" y="1" width="16" height="16">
<path fill-rule="evenodd" clip-rule="evenodd" d="M11.4999 4.53671C9.57665 2.61347 6.45988 2.61347 4.53665 4.53671C2.61341 6.45995 2.61341 9.57671 4.53665 11.5C6.45988 13.4232 9.57665 13.4232 11.4999 11.5C13.4231 9.57671 13.4231 6.45995 11.4999 4.53671ZM16.6207 16.6207C16.2357 17.0048 15.6123 17.0048 15.2273 16.6207L12.1263 13.5187C9.42604 15.5375 5.59729 15.3464 3.14425 12.8924C0.451916 10.201 0.451916 5.83659 3.14425 3.14425C5.8356 0.451916 10.201 0.451916 12.8924 3.14425C15.3464 5.59729 15.5375 9.42604 13.5187 12.1263L16.6207 15.2283C17.0048 15.6123 17.0048 16.2357 16.6207 16.6207Z" fill="white"/>
</mask>
<g mask="url(#mask0)">
<rect width="20" height="20" fill="#BDC3C7"/>
</g>
</svg>