<svg width="16" height="18" viewBox="0 0 16 18" fill="none" xmlns="http://www.w3.org/2000/svg">
<mask id="mask0" mask-type="alpha" maskUnits="userSpaceOnUse" x="0" y="0" width="16" height="18">
<path fill-rule="evenodd" clip-rule="evenodd" d="M5.07166 10.2507L7.25289 7.60937L1.84221 1.0667C0.639836 2.5227 0.639836 4.88403 1.84221 6.34937L5.07166 10.2507ZM10.2973 8.56137C11.4765 9.22403 13.1337 8.75737 14.3591 7.27337C15.8313 5.4907 16.1165 2.93337 14.9835 1.56137C13.8582 0.1987 11.7463 0.5347 10.2665 2.31737C9.04096 3.80137 8.65558 5.80803 9.20281 7.23603L1.68027 16.3454L2.76703 17.6614L8.07752 11.2494L13.3803 17.6707L14.4671 16.3547L9.16428 9.93337L10.2973 8.56137Z" fill="white"/>
</mask>
<g mask="url(#mask0)">
<rect x="-1.94238" y="-3.1333" width="20.0396" height="24.2667" fill="#BFBFBF"/>
</g>
</svg>
