<svg width="41" height="41" viewBox="0 0 41 41" fill="none" xmlns="http://www.w3.org/2000/svg">
<path d="M38.7706 21.1275L39.1551 20.5L38.7706 19.8722C38.7062 19.7674 37.1597 17.2712 34.1552 14.7697C30.1591 11.443 25.4514 9.68445 20.5407 9.68445C15.6312 9.68445 10.9119 11.4421 6.89297 14.7672C3.87127 17.2675 2.30724 19.7618 2.24218 19.8669L1.84961 20.5L2.24218 21.1331C2.30724 21.2382 3.87127 23.7325 6.89297 26.2328C10.9119 29.5579 15.6312 31.3156 20.5407 31.3156C25.4514 31.3156 30.1591 29.557 34.1552 26.2303C37.1597 23.7288 38.7062 21.2326 38.7706 21.1275ZM32.5543 24.4367C28.9595 27.4071 24.9174 28.9129 20.5407 28.9129C16.1623 28.9129 12.1071 27.4061 8.48796 24.4338C6.61614 22.8967 5.34708 21.3402 4.72554 20.5C5.3474 19.6592 6.61645 18.103 8.48796 16.5658C12.1071 13.5939 16.162 12.0868 20.5407 12.0868C24.9174 12.0868 28.9592 13.5929 32.5543 16.563C34.4176 18.1027 35.6757 19.6614 36.2888 20.5C35.6751 21.3389 34.4173 22.8977 32.5543 24.4367Z" fill="#DADADA"/>
<path d="M20.4989 13.2823C16.5191 13.2823 13.2812 16.5202 13.2812 20.5C13.2812 24.4798 16.5191 27.7177 20.4989 27.7177C24.4787 27.7177 27.7166 24.4798 27.7166 20.5C27.7166 16.5202 24.4787 13.2823 20.4989 13.2823ZM20.4989 25.3153C17.8438 25.3153 15.6836 23.1551 15.6836 20.5C15.6836 17.8449 17.8438 15.6847 20.4989 15.6847C23.154 15.6847 25.3142 17.8449 25.3142 20.5C25.3142 23.1551 23.154 25.3153 20.4989 25.3153Z" fill="#DADADA"/>
<path d="M35.9844 2.40234H40.9993V0H33.582V7.32715H35.9844V2.40234Z" fill="#DADADA"/>
<path d="M0 0V2.40234H5.01489V7.32715H7.41724V0H0Z" fill="#DADADA"/>
<path d="M35.9844 33.6729H33.582V41H40.9993V38.5977H35.9844V33.6729Z" fill="#DADADA"/>
<path d="M5.01489 38.5977H0V41H7.41724V33.6729H5.01489V38.5977Z" fill="#DADADA"/>
</svg>
