<svg width="23" height="18" viewBox="0 0 23 18" fill="none" xmlns="http://www.w3.org/2000/svg">
<path opacity="0.695482" fill-rule="evenodd" clip-rule="evenodd" d="M2.16992 0.580139C1.06535 0.580139 0.169922 1.47557 0.169922 2.58014L0.169922 15.1603C0.169922 16.2649 1.06535 17.1603 2.16992 17.1603H20.2768C21.3814 17.1603 22.2768 16.2649 22.2768 15.1603V2.58014C22.2768 1.47557 21.3814 0.580139 20.2768 0.580139L2.16992 0.580139ZM3.93359 3.3435C3.38131 3.3435 2.93359 3.79122 2.93359 4.3435V13.3969C2.93359 13.9492 3.38131 14.3969 3.93359 14.3969H18.5137C19.066 14.3969 19.5137 13.9492 19.5137 13.3969V4.3435C19.5137 3.79122 19.066 3.3435 18.5137 3.3435H3.93359ZM9.85529 11.6202L9.84199 11.6336L11.2237 13.0153L12.6053 11.6336L11.2403 10.2785L11.243 10.2759L6.39698 5.421L5.0304 6.84105L7.09598 8.88704L5.00341 10.9528L6.42346 12.3194L8.49313 10.2709L9.85529 11.6202ZM17.4606 6.791L16.0947 5.42511L11.2399 10.2711L12.6599 11.6377L13.9872 10.2976L15.9777 12.3087L17.3958 10.9479L15.3729 8.89871L17.4606 6.791Z" fill="white"/>
</svg>
