<svg width="47" height="64" viewBox="0 0 47 64" fill="none" xmlns="http://www.w3.org/2000/svg">
<path d="M41.2104 26.7099C39.7141 26.5675 38.2219 27.0619 37.1166 28.0669C36.98 28.1911 36.8505 28.3219 36.7286 28.4584C35.9004 26.9123 34.3763 25.803 32.5974 25.6332C31.1011 25.4909 29.609 25.9852 28.5036 26.9902C28.367 27.1144 28.2375 27.2453 28.1156 27.3817C27.3926 26.0322 26.1392 25.0155 24.649 24.666C27.2318 22.0984 28.7817 18.5567 28.7817 14.7749C28.7815 7.09463 22.533 0.84613 14.8526 0.84613C7.17221 0.84613 0.923828 7.09463 0.923828 14.775C0.923828 20.4099 4.3623 25.5142 9.53681 27.6528V33.6349L5.6584 36.4053C3.36048 38.0468 2.41658 40.9496 3.30961 43.6285L7.13472 55.1043C8.7403 59.9203 13.2296 63.1561 18.3062 63.1561H34.2319C40.725 63.1561 46.0075 57.8737 46.0075 51.3806V32.1862C46.0075 29.3718 43.9004 26.9666 41.2104 26.7099ZM2.94245 14.775C2.94245 8.20781 8.28539 2.86487 14.8526 2.86487C21.4198 2.86487 26.7628 8.20781 26.7628 14.775C26.7628 19.3081 24.1606 23.4389 20.1684 25.4351V22.796C22.8387 21.0217 24.475 18.001 24.475 14.775C24.475 9.46934 20.1583 5.15269 14.8526 5.15269C9.54692 5.15269 5.23026 9.46934 5.23026 14.775C5.23026 18.0008 6.86662 21.0216 9.53681 22.796V25.4351C5.54485 23.4389 2.94245 19.308 2.94245 14.775ZM15.3713 9.48407C13.8749 9.34143 12.3829 9.83578 11.2776 10.8409C10.1714 11.8467 9.53681 13.2807 9.53681 14.775V20.2082C8.09602 18.7933 7.249 16.8372 7.249 14.775C7.249 10.5824 10.66 7.17142 14.8526 7.17142C19.0453 7.17142 22.4562 10.5824 22.4562 14.775C22.4562 16.8375 21.6092 18.7934 20.1684 20.2083V14.9603C20.1685 12.1459 18.0614 9.74036 15.3713 9.48407ZM34.2319 61.1373H18.3061C14.0997 61.1373 10.3799 58.4563 9.04978 54.4659L5.22466 42.9902C4.61349 41.1573 5.25935 39.1711 6.8317 38.0481L9.53681 36.1158V44.9209C9.53681 45.4783 9.98856 45.9303 10.5462 45.9303C11.1037 45.9303 11.5556 45.4784 11.5556 44.9209V14.775C11.5556 13.8481 11.9493 12.9584 12.6355 12.3346C13.3311 11.7021 14.2354 11.4034 15.1797 11.4937C16.8453 11.6524 18.1499 13.1751 18.1499 14.9601V36.3077C18.1499 36.8651 18.6017 37.3171 19.1593 37.3171C19.7168 37.3171 20.1687 36.8652 20.1687 36.3077V29.8479C20.1687 28.9209 20.5624 28.0313 21.2486 27.4075C21.9441 26.7752 22.8474 26.4756 23.7929 26.5666C25.4583 26.7254 26.7629 28.2481 26.7629 30.0331V30.9246V37.3844C26.7629 37.9417 27.2147 38.3937 27.7723 38.3937C28.3299 38.3937 28.7817 37.9419 28.7817 37.3844V30.9246C28.7817 29.9976 29.1753 29.108 29.8616 28.4842C30.5571 27.8518 31.4604 27.5523 32.4058 27.6432C34.0713 27.802 35.3759 29.3247 35.3759 31.1098V32.001V38.4608C35.3759 39.0182 35.8276 39.4702 36.3853 39.4702C36.9429 39.4702 37.3946 39.0183 37.3946 38.4608V32.001C37.3946 31.074 37.7882 30.1844 38.4746 29.5606C39.1701 28.9282 40.0733 28.6287 41.0188 28.7197C42.6843 28.8785 43.9889 30.4012 43.9889 32.1862V51.3803H43.9893C43.9889 56.7604 39.612 61.1373 34.2319 61.1373Z" fill="#ECF0F1"/>
</svg>
