<svg width="55" height="56" viewBox="0 0 55 56" fill="none" xmlns="http://www.w3.org/2000/svg">
<path d="M12.834 23.841V31.1744C12.8359 32.8756 13.5126 34.5066 14.7155 35.7095C15.9185 36.9124 17.5494 37.5891 19.2507 37.591H35.7507C37.4519 37.5891 39.0828 36.9124 40.2858 35.7095C41.4887 34.5066 42.1654 32.8756 42.1673 31.1744V23.841C42.1654 22.1398 41.4887 20.5089 40.2858 19.3059C39.0828 18.103 37.4519 17.4263 35.7507 17.4244H19.2507C17.5494 17.4263 15.9185 18.103 14.7155 19.3059C13.5126 20.5089 12.8359 22.1398 12.834 23.841ZM40.334 23.841V31.1744C40.3325 32.3895 39.8492 33.5544 38.9899 34.4137C38.1307 35.2729 36.9658 35.7563 35.7507 35.7577H19.2507C18.0355 35.7563 16.8706 35.2729 16.0114 34.4137C15.1521 33.5544 14.6688 32.3895 14.6673 31.1744V23.841C14.6688 22.6259 15.1521 21.461 16.0114 20.6017C16.8706 19.7425 18.0355 19.2592 19.2507 19.2577H35.7507C36.9658 19.2592 38.1307 19.7425 38.9899 20.6017C39.8492 21.461 40.3325 22.6259 40.334 23.841Z" fill="#DADADA"/>
<path d="M23.3808 33.8052C23.522 33.8853 23.682 33.9263 23.8444 33.9242C24.0067 33.9221 24.1656 33.877 24.3048 33.7933L33.4714 28.2933C33.607 28.2118 33.7191 28.0967 33.797 27.959C33.8748 27.8213 33.9157 27.6659 33.9157 27.5077C33.9157 27.3496 33.8748 27.1941 33.797 27.0565C33.7191 26.9188 33.607 26.8037 33.4714 26.7222L24.3048 21.2222C24.1657 21.1386 24.0069 21.0935 23.8447 21.0913C23.6825 21.0892 23.5226 21.1302 23.3814 21.2101C23.2401 21.2899 23.1226 21.4059 23.0409 21.546C22.9591 21.6862 22.916 21.8455 22.916 22.0077V33.0077C22.916 33.1699 22.959 33.3292 23.0407 33.4693C23.1223 33.6094 23.2397 33.7253 23.3808 33.8052ZM24.7493 23.6266L31.2173 27.5077L24.7493 31.3889V23.6266Z" fill="#DADADA"/>
<path d="M22.916 51.341V54.091C22.916 54.3342 23.0126 54.5673 23.1845 54.7392C23.3564 54.9111 23.5896 55.0077 23.8327 55.0077H31.166C31.4091 55.0077 31.6423 54.9111 31.8142 54.7392C31.9861 54.5673 32.0827 54.3342 32.0827 54.091V51.341C32.0824 50.5905 31.8977 49.8515 31.545 49.189C31.1922 48.5265 30.6821 47.9607 30.0596 47.5415C30.5815 47.0324 30.9398 46.3793 31.0887 45.6655C31.2376 44.9518 31.1704 44.2099 30.8956 43.5346C30.6208 42.8593 30.1509 42.2812 29.5459 41.8743C28.941 41.4674 28.2284 41.25 27.4993 41.25C26.7703 41.25 26.0577 41.4674 25.4528 41.8743C24.8478 42.2812 24.3779 42.8593 24.1031 43.5346C23.8283 44.2099 23.7611 44.9518 23.91 45.6655C24.0589 46.3793 24.4172 47.0324 24.9391 47.5415C24.3166 47.9607 23.8065 48.5265 23.4537 49.189C23.101 49.8515 22.9163 50.5905 22.916 51.341ZM25.666 44.9244C25.666 44.5618 25.7735 44.2073 25.975 43.9058C26.1764 43.6043 26.4628 43.3694 26.7978 43.2306C27.1328 43.0918 27.5014 43.0555 27.857 43.1263C28.2126 43.197 28.5393 43.3716 28.7957 43.628C29.0521 43.8844 29.2267 44.2111 29.2975 44.5667C29.3682 44.9223 29.3319 45.291 29.1931 45.626C29.0544 45.961 28.8194 46.2473 28.5179 46.4487C28.2164 46.6502 27.8619 46.7577 27.4993 46.7577C27.0131 46.7577 26.5468 46.5646 26.203 46.2207C25.8592 45.8769 25.666 45.4106 25.666 44.9244ZM24.7493 51.341C24.7493 50.6117 25.0391 49.9122 25.5548 49.3965C26.0705 48.8808 26.77 48.591 27.4993 48.591C28.2287 48.591 28.9282 48.8808 29.4439 49.3965C29.9596 49.9122 30.2493 50.6117 30.2493 51.341V53.1744H24.7493V51.341Z" fill="#DADADA"/>
<path d="M22.916 10.091V12.841C22.916 13.0842 23.0126 13.3173 23.1845 13.4892C23.3564 13.6611 23.5896 13.7577 23.8327 13.7577H31.166C31.4091 13.7577 31.6423 13.6611 31.8142 13.4892C31.9861 13.3173 32.0827 13.0842 32.0827 12.841V10.091C32.0824 9.34048 31.8977 8.60148 31.545 7.93898C31.1922 7.27647 30.6821 6.71073 30.0596 6.29146C30.5815 5.78238 30.9398 5.12926 31.0887 4.41554C31.2376 3.70182 31.1704 2.95992 30.8956 2.28461C30.6208 1.60929 30.1509 1.03124 29.5459 0.624299C28.941 0.217356 28.2284 0 27.4993 0C26.7703 0 26.0577 0.217356 25.4528 0.624299C24.8478 1.03124 24.3779 1.60929 24.1031 2.28461C23.8283 2.95992 23.7611 3.70182 23.91 4.41554C24.0589 5.12926 24.4172 5.78238 24.9391 6.29146C24.3166 6.71073 23.8065 7.27647 23.4537 7.93898C23.101 8.60148 22.9163 9.34048 22.916 10.091ZM25.666 3.67438C25.666 3.31178 25.7735 2.95733 25.975 2.65584C26.1764 2.35435 26.4628 2.11936 26.7978 1.9806C27.1328 1.84184 27.5014 1.80554 27.857 1.87627C28.2126 1.94701 28.5393 2.12162 28.7957 2.37802C29.0521 2.63442 29.2267 2.96108 29.2975 3.31672C29.3682 3.67235 29.3319 4.04097 29.1931 4.37597C29.0544 4.71097 28.8194 4.99729 28.5179 5.19874C28.2164 5.40019 27.8619 5.50771 27.4993 5.50771C27.0131 5.50771 26.5468 5.31456 26.203 4.97074C25.8592 4.62693 25.666 4.16061 25.666 3.67438ZM24.7493 10.091C24.7493 9.3617 25.0391 8.66223 25.5548 8.1465C26.0705 7.63078 26.77 7.34105 27.4993 7.34105C28.2287 7.34105 28.9282 7.63078 29.4439 8.1465C29.9596 8.66223 30.2493 9.3617 30.2493 10.091V11.9244H24.7493V10.091Z" fill="#DADADA"/>
<path d="M52.9776 38.3748C53.4995 37.8657 53.8578 37.2126 54.0067 36.4989C54.1556 35.7851 54.0884 35.0432 53.8135 34.3679C53.5387 33.6926 53.0688 33.1146 52.4639 32.7076C51.8589 32.3007 51.1464 32.0833 50.4173 32.0833C49.6882 32.0833 48.9757 32.3007 48.3707 32.7076C47.7658 33.1146 47.2959 33.6926 47.0211 34.3679C46.7463 35.0432 46.679 35.7851 46.8279 36.4989C46.9768 37.2126 47.3351 37.8657 47.8571 38.3748C47.2345 38.794 46.7245 39.3598 46.3717 40.0223C46.019 40.6848 45.8343 41.4238 45.834 42.1744V44.9244C45.834 45.1675 45.9306 45.4006 46.1025 45.5725C46.2744 45.7445 46.5075 45.841 46.7507 45.841H54.084C54.3271 45.841 54.5603 45.7445 54.7322 45.5725C54.9041 45.4006 55.0007 45.1675 55.0007 44.9244V42.1744C55.0003 41.4238 54.8157 40.6848 54.4629 40.0223C54.1102 39.3598 53.6001 38.794 52.9776 38.3748ZM48.584 35.7577C48.584 35.3951 48.6915 35.0406 48.893 34.7391C49.0944 34.4377 49.3807 34.2027 49.7157 34.0639C50.0507 33.9252 50.4194 33.8888 50.775 33.9596C51.1306 34.0303 51.4573 34.2049 51.7137 34.4613C51.9701 34.7177 52.1447 35.0444 52.2154 35.4C52.2862 35.7557 52.2499 36.1243 52.1111 36.4593C51.9723 36.7943 51.7374 37.0806 51.4359 37.2821C51.1344 37.4835 50.7799 37.591 50.4173 37.591C49.9311 37.591 49.4648 37.3979 49.121 37.0541C48.7771 36.7102 48.584 36.2439 48.584 35.7577ZM53.1673 44.0077H47.6673V42.1744C47.6673 41.445 47.9571 40.7455 48.4728 40.2298C48.9885 39.7141 49.688 39.4244 50.4173 39.4244C51.1467 39.4244 51.8461 39.7141 52.3619 40.2298C52.8776 40.7455 53.1673 41.445 53.1673 42.1744V44.0077Z" fill="#DADADA"/>
<path d="M52.9776 15.4582C53.4995 14.9491 53.8578 14.2959 54.0067 13.5822C54.1556 12.8685 54.0884 12.1266 53.8135 11.4513C53.5387 10.776 53.0688 10.1979 52.4639 9.79099C51.8589 9.38404 51.1464 9.16669 50.4173 9.16669C49.6882 9.16669 48.9757 9.38404 48.3707 9.79099C47.7658 10.1979 47.2959 10.776 47.0211 11.4513C46.7463 12.1266 46.679 12.8685 46.8279 13.5822C46.9768 14.2959 47.3351 14.9491 47.8571 15.4582C47.2345 15.8774 46.7245 16.4432 46.3717 17.1057C46.019 17.7682 45.8343 18.5072 45.834 19.2577V22.0077C45.834 22.2509 45.9306 22.484 46.1025 22.6559C46.2744 22.8278 46.5075 22.9244 46.7507 22.9244H54.084C54.3271 22.9244 54.5603 22.8278 54.7322 22.6559C54.9041 22.484 55.0007 22.2509 55.0007 22.0077V19.2577C55.0003 18.5072 54.8157 17.7682 54.4629 17.1057C54.1102 16.4432 53.6001 15.8774 52.9776 15.4582ZM48.584 12.8411C48.584 12.4785 48.6915 12.124 48.893 11.8225C49.0944 11.521 49.3807 11.286 49.7157 11.1473C50.0507 11.0085 50.4194 10.9722 50.775 11.043C51.1306 11.1137 51.4573 11.2883 51.7137 11.5447C51.9701 11.8011 52.1447 12.1278 52.2154 12.4834C52.2862 12.839 52.2499 13.2077 52.1111 13.5427C51.9723 13.8777 51.7374 14.164 51.4359 14.3654C51.1344 14.5669 50.7799 14.6744 50.4173 14.6744C49.9311 14.6744 49.4648 14.4812 49.121 14.1374C48.7771 13.7936 48.584 13.3273 48.584 12.8411ZM53.1673 21.0911H47.6673V19.2577C47.6673 18.5284 47.9571 17.8289 48.4728 17.3132C48.9885 16.7975 49.688 16.5077 50.4173 16.5077C51.1467 16.5077 51.8461 16.7975 52.3619 17.3132C52.8776 17.8289 53.1673 18.5284 53.1673 19.2577V21.0911Z" fill="#DADADA"/>
<path d="M0.916667 45.841H8.25C8.49312 45.841 8.72627 45.7445 8.89818 45.5725C9.07009 45.4006 9.16667 45.1675 9.16667 44.9244V42.1744C9.16634 41.4238 8.98169 40.6848 8.62894 40.0223C8.27619 39.3598 7.76613 38.794 7.14358 38.3748C7.6655 37.8657 8.0238 37.2126 8.17271 36.4989C8.32162 35.7851 8.25437 35.0432 7.97956 34.3679C7.70475 33.6926 7.23485 33.1146 6.6299 32.7076C6.02495 32.3007 5.31242 32.0833 4.58333 32.0833C3.85425 32.0833 3.14171 32.3007 2.53676 32.7076C1.93182 33.1146 1.46192 33.6926 1.18711 34.3679C0.912296 35.0432 0.845048 35.7851 0.993956 36.4989C1.14286 37.2126 1.50116 37.8657 2.02308 38.3748C1.40054 38.794 0.890481 39.3598 0.53773 40.0223C0.184979 40.6848 0.000328183 41.4238 0 42.1744V44.9244C0 45.1675 0.0965771 45.4006 0.268485 45.5725C0.440394 45.7445 0.673552 45.841 0.916667 45.841ZM2.75 35.7577C2.75 35.3951 2.85752 35.0406 3.05897 34.7391C3.26042 34.4377 3.54675 34.2027 3.88175 34.0639C4.21674 33.9252 4.58537 33.8888 4.941 33.9596C5.29663 34.0303 5.6233 34.2049 5.8797 34.4613C6.13609 34.7177 6.3107 35.0444 6.38144 35.4C6.45218 35.7557 6.41587 36.1243 6.27711 36.4593C6.13835 36.7943 5.90337 37.0806 5.60188 37.2821C5.30039 37.4835 4.94593 37.591 4.58333 37.591C4.0971 37.591 3.63079 37.3979 3.28697 37.0541C2.94315 36.7102 2.75 36.2439 2.75 35.7577ZM1.83333 42.1744C1.83333 41.445 2.12306 40.7455 2.63879 40.2298C3.15451 39.7141 3.85399 39.4244 4.58333 39.4244C5.31268 39.4244 6.01215 39.7141 6.52788 40.2298C7.0436 40.7455 7.33333 41.445 7.33333 42.1744V44.0077H1.83333V42.1744Z" fill="#DADADA"/>
<path d="M0.916667 22.9244H8.25C8.49312 22.9244 8.72627 22.8278 8.89818 22.6559C9.07009 22.484 9.16667 22.2509 9.16667 22.0077V19.2577C9.16634 18.5072 8.98169 17.7682 8.62894 17.1057C8.27619 16.4432 7.76613 15.8774 7.14358 15.4582C7.6655 14.9491 8.0238 14.2959 8.17271 13.5822C8.32162 12.8685 8.25437 12.1266 7.97956 11.4513C7.70475 10.776 7.23485 10.1979 6.6299 9.79099C6.02495 9.38404 5.31242 9.16669 4.58333 9.16669C3.85425 9.16669 3.14171 9.38404 2.53676 9.79099C1.93182 10.1979 1.46192 10.776 1.18711 11.4513C0.912296 12.1266 0.845048 12.8685 0.993956 13.5822C1.14286 14.2959 1.50116 14.9491 2.02308 15.4582C1.40054 15.8774 0.890481 16.4432 0.53773 17.1057C0.184979 17.7682 0.000328183 18.5072 0 19.2577V22.0077C0 22.2509 0.0965771 22.484 0.268485 22.6559C0.440394 22.8278 0.673552 22.9244 0.916667 22.9244ZM2.75 12.8411C2.75 12.4785 2.85752 12.124 3.05897 11.8225C3.26042 11.521 3.54675 11.286 3.88175 11.1473C4.21674 11.0085 4.58537 10.9722 4.941 11.043C5.29663 11.1137 5.6233 11.2883 5.8797 11.5447C6.13609 11.8011 6.3107 12.1278 6.38144 12.4834C6.45218 12.839 6.41587 13.2077 6.27711 13.5427C6.13835 13.8777 5.90337 14.164 5.60188 14.3654C5.30039 14.5669 4.94593 14.6744 4.58333 14.6744C4.0971 14.6744 3.63079 14.4812 3.28697 14.1374C2.94315 13.7936 2.75 13.3273 2.75 12.8411ZM1.83333 19.2577C1.83333 18.5284 2.12306 17.8289 2.63879 17.3132C3.15451 16.7975 3.85399 16.5077 4.58333 16.5077C5.31268 16.5077 6.01215 16.7975 6.52788 17.3132C7.0436 17.8289 7.33333 18.5284 7.33333 19.2577V21.0911H1.83333V19.2577Z" fill="#DADADA"/>
</svg>
